<svg xmlns="http://www.w3.org/2000/svg" width="62" height="62" viewBox="0 0 62 62">
    <title>Git</title>
    <path fill="none" d="M22.902 7.546l6.847 6.874c1.59-.54 3.41-.178 4.68 1.095 1.272 1.282 1.63 3.13 1.08 4.732l6.6 6.624c1.595-.55 3.44-.19 4.712 1.09 1.782 1.79 1.782 4.69 0 6.48-1.783 1.79-4.67 1.79-6.453 0-1.34-1.346-1.67-3.322-.993-4.98l-6.154-6.18v16.26c.433.217.844.505 1.205.867 1.782 1.79 1.782 4.688 0 6.48-1.78 1.787-4.67 1.787-6.45 0-1.784-1.79-1.784-4.69 0-6.48.44-.44.95-.774 1.492-1V22.99c-.544-.222-1.053-.554-1.494-.998-1.35-1.354-1.674-3.343-.98-5.007l-6.75-6.777L2.426 28.1c-1.5 1.504-1.5 3.94 0 5.444L28.42 59.638c1.497 1.503 3.924 1.503 5.423 0l25.872-25.972c1.498-1.504 1.498-3.943 0-5.446L33.72 2.127c-1.494-1.503-3.923-1.503-5.42 0l-2.846 2.857"/>
</svg>
