<svg xmlns="http://www.w3.org/2000/svg" width="40" height="39" viewBox="0 0 40 39">
    <path fill="#FFF" fill-rule="evenodd" d="M20.14 0C9.297 0 .5 8.84.5 19.745c0 8.723 5.628 16.124 13.434 18.735.982.182 1.34-.428 1.34-.952 0-.47-.016-1.71-.026-3.358-5.464 1.194-6.617-2.646-6.617-2.646-.89-2.282-2.18-2.89-2.18-2.89-1.78-1.224.14-1.2.14-1.2 1.97.14 3.01 2.036 3.01 2.036 1.75 3.017 4.597 2.146 5.716 1.64.18-1.276.687-2.145 1.248-2.64-4.36-.498-8.947-2.19-8.947-9.757 0-2.157.766-3.92 2.022-5.3-.2-.5-.876-2.506.192-5.225 0 0 1.65-.53 5.4 2.024 1.57-.437 3.25-.657 4.92-.664 1.67.007 3.35.227 4.92.664 3.75-2.555 5.395-2.024 5.395-2.024 1.07 2.72.397 4.726.195 5.225 1.26 1.38 2.02 3.143 2.02 5.3 0 7.584-4.594 9.253-8.97 9.743.705.61 1.332 1.814 1.332 3.656 0 2.64-.023 4.77-.023 5.416 0 .53.353 1.142 1.35.95 7.8-2.616 13.42-10.01 13.42-18.733C39.787 8.84 30.99 0 20.14 0"/>
</svg>
