<?xml version="1.0" standalone="no"?>
<!DOCTYPE svg PUBLIC "-//W3C//DTD SVG 1.1//EN" "http://www.w3.org/Graphics/SVG/1.1/DTD/svg11.dtd" >
<svg xmlns="http://www.w3.org/2000/svg">
<metadata></metadata>
<defs>
<font id="TelegramaRaw" horiz-adv-x="1366" >
<font-face units-per-em="2048" ascent="1593" descent="-455" />
<missing-glyph horiz-adv-x="500" />
<glyph horiz-adv-x="0" />
<glyph horiz-adv-x="2048" />
<glyph unicode=" " />
<glyph unicode="!" d="M569 57v113q0 25 16.5 41t41.5 16h112q25 0 41.5 -16t16.5 -41v-113q0 -25 -16.5 -41t-41.5 -16h-112q-25 0 -41.5 16t-16.5 41zM569 512v1024q0 25 16.5 41t41.5 16h112q25 0 41.5 -16t16.5 -41v-1024q0 -25 -16.5 -41t-41.5 -16h-112q-25 0 -41.5 16t-16.5 41z" />
<glyph unicode="&#x22;" d="M342 967v569q0 25 16.5 41t38.5 16h115q25 0 41 -16t16 -41v-569q0 -23 -16 -40.5t-41 -17.5h-115q-23 0 -39 17.5t-16 40.5zM797 967v569q0 25 16 41t41 16h113q25 0 41 -16t16 -41v-569q0 -23 -16.5 -40.5t-40.5 -17.5h-113q-25 0 -41 17.5t-16 40.5z" />
<glyph unicode="#" d="M115 512v115q0 23 16 39t39 16h172v457h-172q-23 0 -39 16t-16 39v115q0 23 16 40t39 17h172v170q0 25 16.5 41t38.5 16h115q25 0 41 -16t16 -41v-170h228v170q0 25 16 41t41 16h113q25 0 41 -16t16 -41v-170h170q25 0 41 -17.5t16 -39.5v-115q0 -23 -16 -39t-41 -16 h-170v-457h170q25 0 41 -16.5t16 -38.5v-115q0 -25 -16 -41t-41 -16h-170v-170q0 -25 -16.5 -41.5t-40.5 -16.5h-113q-25 0 -41 16.5t-16 41.5v170h-228v-170q0 -25 -16 -41.5t-41 -16.5h-115q-23 0 -39 16.5t-16 41.5v170h-172q-23 0 -39 16t-16 41zM569 682h228v457h-228 v-457z" />
<glyph unicode="$" d="M115 285v112q0 25 16 41.5t39 16.5h399v227h-172q-23 0 -39 17.5t-16 39.5v115q0 23 16.5 39t38.5 16h172v230h-172q-23 0 -39 16t-16 39v115q0 23 16.5 40t38.5 17h172v170q0 25 16.5 41t41.5 16h112q25 0 41.5 -16t16.5 -41v-170h397q25 0 41 -17.5t16 -39.5v-115 q0 -23 -16 -39t-41 -16h-397v-230h170q25 0 41 -16t16 -39v-115q0 -23 -16.5 -40t-40.5 -17h-170v-227h170q25 0 41 -16.5t16 -41.5v-112q0 -25 -16.5 -41.5t-40.5 -16.5h-170v-170q0 -25 -16.5 -41t-41.5 -16h-112q-25 0 -41.5 16.5t-16.5 40.5v170h-399q-23 0 -39 16.5 t-16 41.5zM115 967v114q0 23 16 40.5t39 17.5h115q23 0 40 -17.5t17 -40.5v-114q0 -23 -17.5 -40.5t-39.5 -17.5h-115q-23 0 -39 17.5t-16 40.5zM1024 512v115q0 23 16.5 39t40.5 16h113q25 0 41 -16.5t16 -38.5v-115q0 -25 -16 -41t-41 -16h-113q-25 0 -41 16t-16 41z" />
<glyph unicode="%" d="M115 285v112q0 25 16 41.5t39 16.5h115q23 0 40 -16.5t17 -41.5v-112q0 -25 -17.5 -41.5t-39.5 -16.5h-115q-23 0 -39 16.5t-16 41.5zM115 1194v342q0 25 16 41t39 16h342q25 0 41 -16t16 -41v-342q0 -23 -16 -39t-41 -16h-342q-23 0 -39 16t-16 39zM342 512v115 q0 23 16.5 39t38.5 16h115q25 0 41 -16.5t16 -38.5v-115q0 -25 -16 -41t-41 -16h-115q-23 0 -39 16t-16 41zM569 739v115q0 23 16.5 39t41.5 16h112q25 0 41.5 -16t16.5 -39v-115q0 -23 -16.5 -40t-41.5 -17h-112q-25 0 -41.5 17t-16.5 40zM797 57v340q0 25 16 41.5t41 16.5 h340q25 0 41 -16.5t16 -41.5v-340q0 -25 -16 -41t-41 -16h-340q-25 0 -41 16t-16 41zM797 967v114q0 23 16 40.5t41 17.5h113q25 0 41 -17.5t16 -40.5v-114q0 -23 -16.5 -40.5t-40.5 -17.5h-113q-25 0 -41 17.5t-16 40.5zM1024 1194v115q0 23 16.5 40t40.5 17h113 q25 0 41 -17.5t16 -39.5v-115q0 -23 -16 -39t-41 -16h-113q-25 0 -41 16t-16 39z" />
<glyph unicode="&#x26;" d="M115 285v342q0 23 16 39t39 16h115q23 0 40 -16.5t17 -38.5v-342q0 -25 -17.5 -41.5t-39.5 -16.5h-115q-23 0 -39 16.5t-16 41.5zM115 967v342q0 23 16 40t39 17h115q23 0 40 -17.5t17 -39.5v-342q0 -23 -17.5 -40.5t-39.5 -17.5h-115q-23 0 -39 17.5t-16 40.5zM342 57 v113q0 25 16.5 41t38.5 16h342q25 0 41.5 -16t16.5 -41v-113q0 -25 -16.5 -41t-41.5 -16h-342q-23 0 -39 16t-16 41zM342 739v115q0 23 16.5 39t38.5 16h115q25 0 41 -16t16 -39v-115q0 -23 -16 -40t-41 -17h-115q-23 0 -39 17t-16 40zM342 1421v115q0 25 16.5 41t38.5 16 h342q25 0 41.5 -16t16.5 -41v-115q0 -23 -16.5 -39t-41.5 -16h-342q-23 0 -39 16t-16 39zM569 512v115q0 23 16.5 39t41.5 16h112q25 0 41.5 -16.5t16.5 -38.5v-115q0 -25 -16.5 -41t-41.5 -16h-112q-25 0 -41.5 16t-16.5 41zM569 967v114q0 23 16.5 40.5t41.5 17.5h112 q25 0 41.5 -17.5t16.5 -40.5v-114q0 -23 -16.5 -40.5t-41.5 -17.5h-112q-25 0 -41.5 17.5t-16.5 40.5zM797 285v112q0 25 16 41.5t41 16.5h113q25 0 41 -16.5t16 -41.5v-112q0 -25 -16.5 -41.5t-40.5 -16.5h-113q-25 0 -41 16.5t-16 41.5zM797 1194v115q0 23 16 40t41 17 h113q25 0 41 -17.5t16 -39.5v-115q0 -23 -16.5 -39t-40.5 -16h-113q-25 0 -41 16t-16 39zM1024 57v113q0 25 16.5 41t40.5 16h113q25 0 41 -16t16 -41v-113q0 -25 -16 -41t-41 -16h-113q-25 0 -41 16t-16 41zM1024 512v342q0 23 16.5 39t40.5 16h113q25 0 41 -16t16 -39 v-342q0 -25 -16 -41t-41 -16h-113q-25 0 -41 16t-16 41z" />
<glyph unicode="'" d="M569 967v569q0 25 16.5 41t41.5 16h112q25 0 41.5 -16t16.5 -41v-569q0 -23 -16.5 -40.5t-41.5 -17.5h-112q-25 0 -41.5 17.5t-16.5 40.5z" />
<glyph unicode="(" d="M342 512v569q0 23 16.5 40.5t38.5 17.5h115q25 0 41 -17.5t16 -40.5v-569q0 -25 -16 -41t-41 -16h-115q-23 0 -39 16t-16 41zM569 285v112q0 25 16.5 41.5t41.5 16.5h112q25 0 41.5 -16.5t16.5 -41.5v-112q0 -25 -16.5 -41.5t-41.5 -16.5h-112q-25 0 -41.5 16.5 t-16.5 41.5zM569 1194v115q0 23 16.5 40t41.5 17h112q25 0 41.5 -17.5t16.5 -39.5v-115q0 -23 -16.5 -39t-41.5 -16h-112q-25 0 -41.5 16t-16.5 39zM797 1421v115q0 25 16 41t41 16h340q25 0 41 -16t16 -41v-115q0 -23 -16 -39t-41 -16h-340q-25 0 -41 16t-16 39zM805 57 v113q0 25 17.5 41t39.5 16h332q25 0 41 -16t16 -41v-113q0 -25 -16 -41t-41 -16h-332q-23 0 -40 16t-17 41z" />
<glyph unicode=")" d="M342 57v113q0 25 16.5 41t38.5 16h334q23 0 39 -16t16 -41v-113q0 -25 -16 -41t-39 -16h-334q-23 0 -39 16t-16 41zM342 1421v115q0 25 16.5 41t38.5 16h342q25 0 41.5 -16t16.5 -41v-115q0 -23 -16.5 -39t-41.5 -16h-342q-23 0 -39 16t-16 39zM797 285v112q0 25 16 41.5 t41 16.5h113q25 0 41 -16.5t16 -41.5v-112q0 -25 -16.5 -41.5t-40.5 -16.5h-113q-25 0 -41 16.5t-16 41.5zM797 1194v115q0 23 16 40t41 17h113q25 0 41 -17.5t16 -39.5v-115q0 -23 -16.5 -39t-40.5 -16h-113q-25 0 -41 16t-16 39zM1024 512v569q0 23 16.5 40.5t40.5 17.5 h113q25 0 41 -17.5t16 -40.5v-569q0 -25 -16 -41t-41 -16h-113q-25 0 -41 16t-16 41z" />
<glyph unicode="*" d="M115 285v112q0 25 16 41.5t39 16.5h115q23 0 40 -16.5t17 -41.5v-112q0 -25 -17.5 -41.5t-39.5 -16.5h-115q-23 0 -39 16.5t-16 41.5zM115 739v115q0 23 16 39t39 16h172v172q0 23 16.5 40.5t38.5 17.5h115q25 0 41 -17.5t16 -40.5v-172h228v172q0 23 16 40.5t41 17.5 h113q25 0 41 -17.5t16 -40.5v-172h170q25 0 41 -16t16 -39v-115q0 -23 -16 -40t-41 -17h-170v-170q0 -25 -16.5 -41t-40.5 -16h-113q-25 0 -41 16t-16 41v170h-228v-170q0 -25 -16 -41t-41 -16h-115q-23 0 -39 16t-16 41v170h-172q-23 0 -39 17t-16 40zM115 1194v115 q0 23 16 40t39 17h115q23 0 40 -17.5t17 -39.5v-115q0 -23 -17.5 -39t-39.5 -16h-115q-23 0 -39 16t-16 39zM1024 285v112q0 25 16.5 41.5t40.5 16.5h113q25 0 41 -16.5t16 -41.5v-112q0 -25 -16 -41.5t-41 -16.5h-113q-25 0 -41 16.5t-16 41.5zM1024 1194v115q0 23 16.5 40 t40.5 17h113q25 0 41 -17.5t16 -39.5v-115q0 -23 -16 -39t-41 -16h-113q-25 0 -41 16t-16 39z" />
<glyph unicode="+" d="M115 739v115q0 23 16 39t39 16h399v400q0 23 16.5 40t41.5 17h112q25 0 41.5 -17.5t16.5 -39.5v-400h397q25 0 41 -16t16 -39v-115q0 -23 -16 -40t-41 -17h-397v-397q0 -25 -16.5 -41.5t-41.5 -16.5h-112q-25 0 -41.5 16.5t-16.5 41.5v397h-399q-23 0 -39 17t-16 40z" />
<glyph unicode="," d="M342 57v340q0 25 16.5 41.5t38.5 16.5h342q25 0 41.5 -16.5t16.5 -41.5v-567q0 -25 -16.5 -41t-41.5 -16h-112q-25 0 -41.5 16t-16.5 41v170h-172q-23 0 -39 16t-16 41zM342 -285q0 25 16.5 41.5t38.5 16.5h115q25 0 41 -16.5t16 -41.5v-112q0 -25 -16 -41.5t-41 -16.5 h-115q-23 0 -39 16.5t-16 41.5v112z" />
<glyph unicode="-" d="M115 512v115q0 23 16 39t39 16h1024q25 0 41 -16.5t16 -38.5v-115q0 -25 -16 -41t-41 -16h-1024q-23 0 -39 16t-16 41z" />
<glyph unicode="." d="M342 57v340q0 25 16.5 41.5t38.5 16.5h342q25 0 41.5 -16.5t16.5 -41.5v-340q0 -25 -16.5 -41t-41.5 -16h-342q-23 0 -39 16t-16 41z" />
<glyph unicode="/" d="M115 57v340q0 25 16 41.5t39 16.5h115q23 0 40 -16.5t17 -41.5v-340q0 -25 -17.5 -41t-39.5 -16h-115q-23 0 -39 16t-16 41zM342 512v115q0 23 16.5 39t38.5 16h115q25 0 41 -16.5t16 -38.5v-115q0 -25 -16 -41t-41 -16h-115q-23 0 -39 16t-16 41zM569 739v115 q0 23 16.5 39t41.5 16h112q25 0 41.5 -16t16.5 -39v-115q0 -23 -16.5 -40t-41.5 -17h-112q-25 0 -41.5 17t-16.5 40zM797 967v114q0 23 16 40.5t41 17.5h113q25 0 41 -17.5t16 -40.5v-114q0 -23 -16.5 -40.5t-40.5 -17.5h-113q-25 0 -41 17.5t-16 40.5zM1024 1194v342 q0 25 16.5 41t40.5 16h113q25 0 41 -16t16 -41v-342q0 -23 -16 -39t-41 -16h-113q-25 0 -41 16t-16 39z" />
<glyph unicode="0" d="M115 285v1024q0 23 16 40t39 17h115q23 0 40 -17.5t17 -39.5v-627h170q25 0 41 -16.5t16 -38.5v-115q0 -25 -16 -41t-41 -16h-170v-170q0 -25 -17.5 -41.5t-39.5 -16.5h-115q-23 0 -39 16.5t-16 41.5zM342 57v113q0 25 16.5 41t38.5 16h570q25 0 41 -16t16 -41v-113 q0 -25 -16.5 -41t-40.5 -16h-570q-23 0 -39 16t-16 41zM342 1421v115q0 25 16.5 41t38.5 16h570q25 0 41 -16t16 -41v-115q0 -23 -16.5 -39t-40.5 -16h-570q-23 0 -39 16t-16 39zM569 739v115q0 23 16.5 39t41.5 16h112q25 0 41.5 -16t16.5 -39v-115q0 -23 -16.5 -40 t-41.5 -17h-112q-25 0 -41.5 17t-16.5 40zM797 967v114q0 23 16 40.5t41 17.5h170v170q0 23 16.5 40t40.5 17h113q25 0 41 -17.5t16 -39.5v-1024q0 -25 -16 -41.5t-41 -16.5h-113q-25 0 -41 16.5t-16 41.5v624h-170q-25 0 -41 17.5t-16 40.5z" />
<glyph unicode="1" d="M115 57v113q0 25 16 41t39 16h399v912h-172q-23 0 -39 16t-16 39v115q0 23 16.5 40t38.5 17h172v170q0 25 16.5 41t41.5 16h112q25 0 41.5 -16t16.5 -41v-1309h397q25 0 41 -16t16 -41v-113q0 -25 -16 -41t-41 -16h-1024q-23 0 -39 16t-16 41zM115 967v114q0 23 16 40.5 t39 17.5h115q23 0 40 -17.5t17 -40.5v-114q0 -23 -17.5 -40.5t-39.5 -17.5h-115q-23 0 -39 17.5t-16 40.5z" />
<glyph unicode="2" d="M115 57v113q0 25 16 41t39 16h172v170q0 25 16.5 41.5t38.5 16.5h115q25 0 41 -16.5t16 -41.5v-170h625q25 0 41 -16t16 -41v-113q0 -25 -16 -41t-41 -16h-1024q-23 0 -39 16t-16 41zM115 1194v115q0 23 16 40t39 17h115q23 0 40 -17.5t17 -39.5v-115q0 -23 -17.5 -39 t-39.5 -16h-115q-23 0 -39 16t-16 39zM342 1421v115q0 25 16.5 41t38.5 16h570q25 0 41 -16t16 -41v-115q0 -23 -16.5 -39t-40.5 -16h-570q-23 0 -39 16t-16 39zM569 512v115q0 23 16.5 39t41.5 16h112q25 0 41.5 -16.5t16.5 -38.5v-115q0 -25 -16.5 -41t-41.5 -16h-112 q-25 0 -41.5 16t-16.5 41zM797 739v115q0 23 16 39t41 16h113q25 0 41 -16t16 -39v-115q0 -23 -16.5 -40t-40.5 -17h-113q-25 0 -41 17t-16 40zM1024 967v342q0 23 16.5 40t40.5 17h113q25 0 41 -17.5t16 -39.5v-342q0 -23 -16 -40.5t-41 -17.5h-113q-25 0 -41 17.5 t-16 40.5z" />
<glyph unicode="3" d="M115 285v112q0 25 16 41.5t39 16.5h115q23 0 40 -16.5t17 -41.5v-112q0 -25 -17.5 -41.5t-39.5 -16.5h-115q-23 0 -39 16.5t-16 41.5zM115 1421v115q0 25 16 41t39 16h1024q25 0 41 -16t16 -41v-115q0 -23 -16 -39t-41 -16h-170v-172q0 -23 -16.5 -39t-40.5 -16h-113 q-25 0 -41 16t-16 39v172h-627q-23 0 -39 16t-16 39zM342 57v113q0 25 16.5 41t38.5 16h570q25 0 41 -16t16 -41v-113q0 -25 -16.5 -41t-40.5 -16h-570q-23 0 -39 16t-16 41zM342 739v115q0 23 16.5 39t38.5 16h172v172q0 23 16.5 40.5t41.5 17.5h112q25 0 41.5 -17.5 t16.5 -40.5v-172h170q25 0 41 -16t16 -39v-115q0 -23 -16.5 -40t-40.5 -17h-570q-23 0 -39 17t-16 40zM1024 285v342q0 23 16.5 39t40.5 16h113q25 0 41 -16.5t16 -38.5v-342q0 -25 -16 -41.5t-41 -16.5h-113q-25 0 -41 16.5t-16 41.5z" />
<glyph unicode="4" d="M115 512v342q0 23 16 39t39 16h115q23 0 40 -16t17 -39v-172h455v457h-170q-25 0 -41.5 16t-16.5 39v115q0 23 16.5 40t41.5 17h170v170q0 25 16 41t41 16h113q25 0 41 -16t16 -41v-854h170q25 0 41 -16.5t16 -38.5v-115q0 -25 -16 -41t-41 -16h-170v-398 q0 -25 -16.5 -41t-40.5 -16h-113q-25 0 -41 16.5t-16 40.5v398h-627q-23 0 -39 16t-16 41zM342 967v114q0 23 16.5 40.5t38.5 17.5h115q25 0 41 -17.5t16 -40.5v-114q0 -23 -16 -40.5t-41 -17.5h-115q-23 0 -39 17.5t-16 40.5z" />
<glyph unicode="5" d="M115 285v112q0 25 16 41.5t39 16.5h115q23 0 40 -16.5t17 -41.5v-112q0 -25 -17.5 -41.5t-39.5 -16.5h-115q-23 0 -39 16.5t-16 41.5zM115 739v797q0 25 16 41t39 16h1024q25 0 41 -16t16 -41v-115q0 -23 -16 -39t-41 -16h-852v-457h625q25 0 41 -16t16 -39v-115 q0 -23 -16.5 -40t-40.5 -17h-797q-23 0 -39 17t-16 40zM342 57v113q0 25 16.5 41t38.5 16h570q25 0 41 -16t16 -41v-113q0 -25 -16.5 -41t-40.5 -16h-570q-23 0 -39 16t-16 41zM1024 285v342q0 23 16.5 39t40.5 16h113q25 0 41 -16.5t16 -38.5v-342q0 -25 -16 -41.5 t-41 -16.5h-113q-25 0 -41 16.5t-16 41.5z" />
<glyph unicode="6" d="M115 285v1024q0 23 16 40t39 17h115q23 0 40 -17.5t17 -39.5v-400h625q25 0 41 -16t16 -39v-115q0 -23 -16.5 -40t-40.5 -17h-625v-397q0 -25 -17.5 -41.5t-39.5 -16.5h-115q-23 0 -39 16.5t-16 41.5zM342 57v113q0 25 16.5 41t38.5 16h570q25 0 41 -16t16 -41v-113 q0 -25 -16.5 -41t-40.5 -16h-570q-23 0 -39 16t-16 41zM342 1421v115q0 25 16.5 41t38.5 16h570q25 0 41 -16t16 -41v-115q0 -23 -16.5 -39t-40.5 -16h-570q-23 0 -39 16t-16 39zM1024 285v342q0 23 16.5 39t40.5 16h113q25 0 41 -16.5t16 -38.5v-342q0 -25 -16 -41.5 t-41 -16.5h-113q-25 0 -41 16.5t-16 41.5zM1024 1194v115q0 23 16.5 40t40.5 17h113q25 0 41 -17.5t16 -39.5v-115q0 -23 -16 -39t-41 -16h-113q-25 0 -41 16t-16 39z" />
<glyph unicode="7" d="M115 1421v115q0 25 16 41t39 16h1024q25 0 41 -16t16 -41v-342q0 -23 -16 -39t-41 -16h-113q-25 0 -41 16t-16 39v172h-854q-23 0 -39 16t-16 39zM569 57v797q0 23 16.5 39t41.5 16h112q25 0 41.5 -16t16.5 -39v-797q0 -25 -16.5 -41t-41.5 -16h-112q-25 0 -41.5 16 t-16.5 41zM797 967v114q0 23 16 40.5t41 17.5h113q25 0 41 -17.5t16 -40.5v-114q0 -23 -16.5 -40.5t-40.5 -17.5h-113q-25 0 -41 17.5t-16 40.5z" />
<glyph unicode="8" d="M115 285v342q0 23 16 39t39 16h115q23 0 40 -16.5t17 -38.5v-342q0 -25 -17.5 -41.5t-39.5 -16.5h-115q-23 0 -39 16.5t-16 41.5zM115 967v342q0 23 16 40t39 17h115q23 0 40 -17.5t17 -39.5v-342q0 -23 -17.5 -40.5t-39.5 -17.5h-115q-23 0 -39 17.5t-16 40.5zM342 57 v113q0 25 16.5 41t38.5 16h570q25 0 41 -16t16 -41v-113q0 -25 -16.5 -41t-40.5 -16h-570q-23 0 -39 16t-16 41zM342 739v115q0 23 16.5 39t38.5 16h570q25 0 41 -16t16 -39v-115q0 -23 -16.5 -40t-40.5 -17h-570q-23 0 -39 17t-16 40zM342 1421v115q0 25 16.5 41t38.5 16 h570q25 0 41 -16t16 -41v-115q0 -23 -16.5 -39t-40.5 -16h-570q-23 0 -39 16t-16 39zM1024 285v342q0 23 16.5 39t40.5 16h113q25 0 41 -16.5t16 -38.5v-342q0 -25 -16 -41.5t-41 -16.5h-113q-25 0 -41 16.5t-16 41.5zM1024 967v342q0 23 16.5 40t40.5 17h113q25 0 41 -17.5 t16 -39.5v-342q0 -23 -16 -40.5t-41 -17.5h-113q-25 0 -41 17.5t-16 40.5z" />
<glyph unicode="9" d="M115 285v112q0 25 16 41.5t39 16.5h115q23 0 40 -16.5t17 -41.5v-112q0 -25 -17.5 -41.5t-39.5 -16.5h-115q-23 0 -39 16.5t-16 41.5zM115 967v342q0 23 16 40t39 17h115q23 0 40 -17.5t17 -39.5v-342q0 -23 -17.5 -40.5t-39.5 -17.5h-115q-23 0 -39 17.5t-16 40.5z M342 57v113q0 25 16.5 41t38.5 16h570q25 0 41 -16t16 -41v-113q0 -25 -16.5 -41t-40.5 -16h-570q-23 0 -39 16t-16 41zM342 739v115q0 23 16.5 39t38.5 16h627v400q0 23 16.5 40t40.5 17h113q25 0 41 -17.5t16 -39.5v-1024q0 -25 -16 -41.5t-41 -16.5h-113q-25 0 -41 16.5 t-16 41.5v397h-627q-23 0 -39 17t-16 40zM342 1421v115q0 25 16.5 41t38.5 16h570q25 0 41 -16t16 -41v-115q0 -23 -16.5 -39t-40.5 -16h-570q-23 0 -39 16t-16 39z" />
<glyph unicode=":" d="M342 57v340q0 25 16.5 41.5t38.5 16.5h342q25 0 41.5 -16.5t16.5 -41.5v-340q0 -25 -16.5 -41t-41.5 -16h-342q-23 0 -39 16t-16 41zM342 739v342q0 23 16.5 40.5t38.5 17.5h342q25 0 41.5 -17.5t16.5 -40.5v-342q0 -23 -16.5 -40t-41.5 -17h-342q-23 0 -39 17t-16 40z " />
<glyph unicode=";" d="M342 57v340q0 25 16.5 41.5t38.5 16.5h342q25 0 41.5 -16.5t16.5 -41.5v-567q0 -25 -16.5 -41t-41.5 -16h-112q-25 0 -41.5 16t-16.5 41v170h-172q-23 0 -39 16t-16 41zM342 -285q0 25 16.5 41.5t38.5 16.5h115q25 0 41 -16.5t16 -41.5v-112q0 -25 -16 -41.5t-41 -16.5 h-115q-23 0 -39 16.5t-16 41.5v112zM342 739v342q0 23 16.5 40.5t38.5 17.5h342q25 0 41.5 -17.5t16.5 -40.5v-342q0 -23 -16.5 -40t-41.5 -17h-342q-23 0 -39 17t-16 40z" />
<glyph unicode="&#x3c;" d="M342 739v115q0 23 16.5 39t38.5 16h115q25 0 41 -16t16 -39v-115q0 -23 -16 -40t-41 -17h-115q-23 0 -39 17t-16 40zM569 512v115q0 23 16.5 39t41.5 16h112q25 0 41.5 -16.5t16.5 -38.5v-115q0 -25 -16.5 -41t-41.5 -16h-112q-25 0 -41.5 16t-16.5 41zM569 967v114 q0 23 16.5 40.5t41.5 17.5h112q25 0 41.5 -17.5t16.5 -40.5v-114q0 -23 -16.5 -40.5t-41.5 -17.5h-112q-25 0 -41.5 17.5t-16.5 40.5zM797 285v112q0 25 16 41.5t41 16.5h113q25 0 41 -16.5t16 -41.5v-112q0 -25 -16.5 -41.5t-40.5 -16.5h-113q-25 0 -41 16.5t-16 41.5z M797 1194v115q0 23 16 40t41 17h113q25 0 41 -17.5t16 -39.5v-115q0 -23 -16.5 -39t-40.5 -16h-113q-25 0 -41 16t-16 39zM1024 57v113q0 25 16.5 41t40.5 16h113q25 0 41 -16t16 -41v-113q0 -25 -16 -41t-41 -16h-113q-25 0 -41 16t-16 41zM1024 1421v115q0 25 16.5 41 t40.5 16h113q25 0 41 -16t16 -41v-115q0 -23 -16 -39t-41 -16h-113q-25 0 -41 16t-16 39z" />
<glyph unicode="=" d="M115 285v112q0 25 16 41.5t39 16.5h1024q25 0 41 -16.5t16 -41.5v-112q0 -25 -16 -41.5t-41 -16.5h-1024q-23 0 -39 16.5t-16 41.5zM115 739v115q0 23 16 39t39 16h1024q25 0 41 -16t16 -39v-115q0 -23 -16 -40t-41 -17h-1024q-23 0 -39 17t-16 40z" />
<glyph unicode="&#x3e;" d="M115 57v113q0 25 16 41t39 16h115q23 0 40 -16t17 -41v-113q0 -25 -17.5 -41t-39.5 -16h-115q-23 0 -39 16t-16 41zM115 1421v115q0 25 16 41t39 16h115q23 0 40 -16t17 -41v-115q0 -23 -17.5 -39t-39.5 -16h-115q-23 0 -39 16t-16 39zM342 285v112q0 25 16.5 41.5 t38.5 16.5h115q25 0 41 -16.5t16 -41.5v-112q0 -25 -16 -41.5t-41 -16.5h-115q-23 0 -39 16.5t-16 41.5zM342 1194v115q0 23 16.5 40t38.5 17h115q25 0 41 -17.5t16 -39.5v-115q0 -23 -16 -39t-41 -16h-115q-23 0 -39 16t-16 39zM569 512v115q0 23 16.5 39t41.5 16h112 q25 0 41.5 -16.5t16.5 -38.5v-115q0 -25 -16.5 -41t-41.5 -16h-112q-25 0 -41.5 16t-16.5 41zM569 967v114q0 23 16.5 40.5t41.5 17.5h112q25 0 41.5 -17.5t16.5 -40.5v-114q0 -23 -16.5 -40.5t-41.5 -17.5h-112q-25 0 -41.5 17.5t-16.5 40.5zM797 739v115q0 23 16 39t41 16 h113q25 0 41 -16t16 -39v-115q0 -23 -16.5 -40t-40.5 -17h-113q-25 0 -41 17t-16 40z" />
<glyph unicode="?" d="M115 1194v115q0 23 16 40t39 17h115q23 0 40 -17.5t17 -39.5v-115q0 -23 -17.5 -39t-39.5 -16h-115q-23 0 -39 16t-16 39zM342 1421v115q0 25 16.5 41t38.5 16h570q25 0 41 -16t16 -41v-115q0 -23 -16.5 -39t-40.5 -16h-570q-23 0 -39 16t-16 39zM569 57v113 q0 25 16.5 41t41.5 16h112q25 0 41.5 -16t16.5 -41v-113q0 -25 -16.5 -41t-41.5 -16h-112q-25 0 -41.5 16t-16.5 41zM569 512v115q0 23 16.5 39t41.5 16h112q25 0 41.5 -16.5t16.5 -38.5v-115q0 -25 -16.5 -41t-41.5 -16h-112q-25 0 -41.5 16t-16.5 41zM797 739v115 q0 23 16 39t41 16h113q25 0 41 -16t16 -39v-115q0 -23 -16.5 -40t-40.5 -17h-113q-25 0 -41 17t-16 40zM1024 967v342q0 23 16.5 40t40.5 17h113q25 0 41 -17.5t16 -39.5v-342q0 -23 -16 -40.5t-41 -17.5h-113q-25 0 -41 17.5t-16 40.5z" />
<glyph unicode="@" d="M115 285v342q0 23 16 39t39 16h115q23 0 40 -16.5t17 -38.5v-342q0 -25 -17.5 -41.5t-39.5 -16.5h-115q-23 0 -39 16.5t-16 41.5zM115 1194v115q0 23 16 40t39 17h115q23 0 40 -17.5t17 -39.5v-115q0 -23 -17.5 -39t-39.5 -16h-115q-23 0 -39 16t-16 39zM342 57v113 q0 25 16.5 41t38.5 16h115q25 0 41 -16t16 -41v-113q0 -25 -16 -41t-41 -16h-115q-23 0 -39 16t-16 41zM342 739v115q0 23 16.5 39t38.5 16h342q25 0 41.5 -16t16.5 -39v-569q0 -25 -16.5 -41.5t-41.5 -16.5h-112q-25 0 -41.5 16.5t-16.5 41.5v397h-172q-23 0 -39 17t-16 40 zM342 1421v115q0 25 16.5 41t38.5 16h570q25 0 41 -16t16 -41v-115q0 -23 -16.5 -39t-40.5 -16h-570q-23 0 -39 16t-16 39zM797 57v113q0 25 16 41t41 16h113q25 0 41 -16t16 -41v-113q0 -25 -16.5 -41t-40.5 -16h-113q-25 0 -41 16t-16 41zM1024 285v1024q0 23 16.5 40 t40.5 17h113q25 0 41 -17.5t16 -39.5v-1024q0 -25 -16 -41.5t-41 -16.5h-113q-25 0 -41 16.5t-16 41.5z" />
<glyph unicode="A" d="M115 57v1252q0 23 16 40t39 17h115q23 0 40 -17.5t17 -39.5v-400h682v400q0 23 16.5 40t40.5 17h113q25 0 41 -17.5t16 -39.5v-1252q0 -25 -16 -41t-41 -16h-113q-25 0 -41 16.5t-16 40.5v625h-682v-625q0 -25 -17.5 -41t-39.5 -16h-115q-23 0 -39 16t-16 41zM342 1421 v115q0 25 16.5 41t38.5 16h570q25 0 41 -16t16 -41v-115q0 -23 -16.5 -39t-40.5 -16h-570q-23 0 -39 16t-16 39z" />
<glyph unicode="B" d="M115 57v1479q0 25 16 41t39 16h797q25 0 41 -16t16 -41v-115q0 -23 -16.5 -39t-40.5 -16h-625v-457h625q25 0 41 -16t16 -39v-115q0 -23 -16.5 -40t-40.5 -17h-625v-455h625q25 0 41 -16t16 -41v-113q0 -25 -16.5 -41t-40.5 -16h-797q-23 0 -39 16t-16 41zM1024 285v342 q0 23 16.5 39t40.5 16h113q25 0 41 -16.5t16 -38.5v-342q0 -25 -16 -41.5t-41 -16.5h-113q-25 0 -41 16.5t-16 41.5zM1024 967v342q0 23 16.5 40t40.5 17h113q25 0 41 -17.5t16 -39.5v-342q0 -23 -16 -40.5t-41 -17.5h-113q-25 0 -41 17.5t-16 40.5z" />
<glyph unicode="C" d="M115 285v1024q0 23 16 40t39 17h115q23 0 40 -17.5t17 -39.5v-1024q0 -25 -17.5 -41.5t-39.5 -16.5h-115q-23 0 -39 16.5t-16 41.5zM342 57v113q0 25 16.5 41t38.5 16h570q25 0 41 -16t16 -41v-113q0 -25 -16.5 -41t-40.5 -16h-570q-23 0 -39 16t-16 41zM342 1421v115 q0 25 16.5 41t38.5 16h570q25 0 41 -16t16 -41v-115q0 -23 -16.5 -39t-40.5 -16h-570q-23 0 -39 16t-16 39zM1024 285v112q0 25 16.5 41.5t40.5 16.5h113q25 0 41 -16.5t16 -41.5v-112q0 -25 -16 -41.5t-41 -16.5h-113q-25 0 -41 16.5t-16 41.5zM1024 1194v115q0 23 16.5 40 t40.5 17h113q25 0 41 -17.5t16 -39.5v-115q0 -23 -16 -39t-41 -16h-113q-25 0 -41 16t-16 39z" />
<glyph unicode="D" d="M115 57v1479q0 25 16 41t39 16h797q25 0 41 -16t16 -41v-115q0 -23 -16.5 -39t-40.5 -16h-625v-1139h625q25 0 41 -16t16 -41v-113q0 -25 -16.5 -41t-40.5 -16h-797q-23 0 -39 16t-16 41zM1024 285v1024q0 23 16.5 40t40.5 17h113q25 0 41 -17.5t16 -39.5v-1024 q0 -25 -16 -41.5t-41 -16.5h-113q-25 0 -41 16.5t-16 41.5z" />
<glyph unicode="E" d="M115 57v1479q0 25 16 41t39 16h1024q25 0 41 -16t16 -41v-115q0 -23 -16 -39t-41 -16h-852v-457h625q25 0 41 -16t16 -39v-115q0 -23 -16.5 -40t-40.5 -17h-625v-455h852q25 0 41 -16t16 -41v-113q0 -25 -16 -41t-41 -16h-1024q-23 0 -39 16t-16 41z" />
<glyph unicode="F" d="M115 57v1479q0 25 16 41t39 16h1024q25 0 41 -16t16 -41v-115q0 -23 -16 -39t-41 -16h-852v-457h625q25 0 41 -16t16 -39v-115q0 -23 -16.5 -40t-40.5 -17h-625v-625q0 -25 -17.5 -41t-39.5 -16h-115q-23 0 -39 16t-16 41z" />
<glyph unicode="G" d="M115 285v1024q0 23 16 40t39 17h115q23 0 40 -17.5t17 -39.5v-1024q0 -25 -17.5 -41.5t-39.5 -16.5h-115q-23 0 -39 16.5t-16 41.5zM332 57v113q0 25 16.5 41t40.5 16h578q25 0 41 -16t16 -41v-113q0 -25 -16.5 -41t-40.5 -16h-578q-25 0 -41 16t-16 41zM332 1421v115 q0 25 16.5 41t40.5 16h578q25 0 41 -16t16 -41v-115q0 -23 -16.5 -39t-40.5 -16h-578q-25 0 -41 16t-16 39zM569 739v115q0 23 16.5 39t41.5 16h567q25 0 41 -16t16 -39v-569q0 -25 -16 -41.5t-41 -16.5h-113q-25 0 -41 16.5t-16 41.5v397h-397q-25 0 -41.5 17t-16.5 40z M1024 1194v115q0 23 16.5 40t40.5 17h113q25 0 41 -17.5t16 -39.5v-115q0 -23 -16 -39t-41 -16h-113q-25 0 -41 16t-16 39z" />
<glyph unicode="H" d="M115 57v1479q0 25 16 41t39 16h115q23 0 40 -16t17 -41v-627h682v627q0 25 16.5 41t40.5 16h113q25 0 41 -16t16 -41v-1479q0 -25 -16 -41t-41 -16h-113q-25 0 -41 16.5t-16 40.5v625h-682v-625q0 -25 -17.5 -41t-39.5 -16h-115q-23 0 -39 16t-16 41z" />
<glyph unicode="I" d="M115 57v113q0 25 16 41t39 16h399v1139h-172q-23 0 -39 16.5t-16 38.5v115q0 25 16.5 41t38.5 16h570q25 0 41 -16t16 -41v-115q0 -23 -16.5 -39t-40.5 -16h-170v-1139h397q25 0 41 -16t16 -41v-113q0 -25 -16 -41t-41 -16h-1024q-23 0 -39 16t-16 41z" />
<glyph unicode="J" d="M115 285v112q0 25 16 41.5t39 16.5h115q23 0 40 -16.5t17 -41.5v-112q0 -25 -17.5 -41.5t-39.5 -16.5h-115q-23 0 -39 16.5t-16 41.5zM342 57v113q0 25 16.5 41t38.5 16h570q25 0 41 -16t16 -41v-113q0 -25 -16.5 -41t-40.5 -16h-570q-23 0 -39 16t-16 41zM1024 285v1251 q0 25 16.5 41t40.5 16h113q25 0 41 -16t16 -41v-1251q0 -25 -16 -41.5t-41 -16.5h-113q-25 0 -41 16.5t-16 41.5z" />
<glyph unicode="K" d="M115 57v1479q0 25 16 41t39 16h115q23 0 40 -16t17 -41v-627h170q25 0 41 -16t16 -39v-115q0 -23 -16 -40t-41 -17h-170v-625q0 -25 -17.5 -41t-39.5 -16h-115q-23 0 -39 16t-16 41zM569 512v115q0 23 16.5 39t41.5 16h112q25 0 41.5 -16.5t16.5 -38.5v-115 q0 -25 -16.5 -41t-41.5 -16h-112q-25 0 -41.5 16t-16.5 41zM569 967v114q0 23 16.5 40.5t41.5 17.5h112q25 0 41.5 -17.5t16.5 -40.5v-114q0 -23 -16.5 -40.5t-41.5 -17.5h-112q-25 0 -41.5 17.5t-16.5 40.5zM797 285v112q0 25 16 41.5t41 16.5h113q25 0 41 -16.5t16 -41.5 v-112q0 -25 -16.5 -41.5t-40.5 -16.5h-113q-25 0 -41 16.5t-16 41.5zM797 1194v115q0 23 16 40t41 17h113q25 0 41 -17.5t16 -39.5v-115q0 -23 -16.5 -39t-40.5 -16h-113q-25 0 -41 16t-16 39zM1024 57v113q0 25 16.5 41t40.5 16h113q25 0 41 -16t16 -41v-113q0 -25 -16 -41 t-41 -16h-113q-25 0 -41 16t-16 41zM1024 1421v115q0 25 16.5 41t40.5 16h113q25 0 41 -16t16 -41v-115q0 -23 -16 -39t-41 -16h-113q-25 0 -41 16t-16 39z" />
<glyph unicode="L" d="M115 57v1479q0 25 16 41t39 16h115q23 0 40 -16t17 -41v-1309h852q25 0 41 -16t16 -41v-113q0 -25 -16 -41t-41 -16h-1024q-23 0 -39 16t-16 41z" />
<glyph unicode="M" d="M115 57v1479q0 25 16 41t39 16h115q23 0 40 -16t17 -41v-170h170q25 0 41 -17.5t16 -39.5v-115q0 -23 -16 -39t-41 -16h-170v-1082q0 -25 -17.5 -41t-39.5 -16h-115q-23 0 -39 16t-16 41zM569 967v114q0 23 16.5 40.5t41.5 17.5h112q25 0 41.5 -17.5t16.5 -40.5v-114 q0 -23 -16.5 -40.5t-41.5 -17.5h-112q-25 0 -41.5 17.5t-16.5 40.5zM797 1194v115q0 23 16 40t41 17h170v170q0 25 16.5 41t40.5 16h113q25 0 41 -16t16 -41v-1479q0 -25 -16 -41t-41 -16h-113q-25 0 -41 16.5t-16 40.5v1082h-170q-25 0 -41 16t-16 39z" />
<glyph unicode="N" d="M115 57v1479q0 25 16 41t39 16h115q23 0 40 -16t17 -41v-397h170q25 0 41 -17.5t16 -40.5v-114q0 -23 -16 -40.5t-41 -17.5h-170v-852q0 -25 -17.5 -41t-39.5 -16h-115q-23 0 -39 16t-16 41zM569 739v115q0 23 16.5 39t41.5 16h112q25 0 41.5 -16t16.5 -39v-115 q0 -23 -16.5 -40t-41.5 -17h-112q-25 0 -41.5 17t-16.5 40zM797 512v115q0 23 16 39t41 16h170v854q0 25 16.5 41t40.5 16h113q25 0 41 -16t16 -41v-1479q0 -25 -16 -41t-41 -16h-113q-25 0 -41 16.5t-16 40.5v398h-170q-25 0 -41 16t-16 41z" />
<glyph unicode="O" d="M115 285v1024q0 23 16 40t39 17h115q23 0 40 -17.5t17 -39.5v-1024q0 -25 -17.5 -41.5t-39.5 -16.5h-115q-23 0 -39 16.5t-16 41.5zM342 57v113q0 25 16.5 41t38.5 16h570q25 0 41 -16t16 -41v-113q0 -25 -16.5 -41t-40.5 -16h-570q-23 0 -39 16t-16 41zM342 1421v115 q0 25 16.5 41t38.5 16h570q25 0 41 -16t16 -41v-115q0 -23 -16.5 -39t-40.5 -16h-570q-23 0 -39 16t-16 39zM1024 285v1024q0 23 16.5 40t40.5 17h113q25 0 41 -17.5t16 -39.5v-1024q0 -25 -16 -41.5t-41 -16.5h-113q-25 0 -41 16.5t-16 41.5z" />
<glyph unicode="P" d="M115 57v1479q0 25 16 41t39 16h797q25 0 41 -16t16 -41v-115q0 -23 -16.5 -39t-40.5 -16h-625v-457h625q25 0 41 -16t16 -39v-115q0 -23 -16.5 -40t-40.5 -17h-625v-625q0 -25 -17.5 -41t-39.5 -16h-115q-23 0 -39 16t-16 41zM1024 967v342q0 23 16.5 40t40.5 17h113 q25 0 41 -17.5t16 -39.5v-342q0 -23 -16 -40.5t-41 -17.5h-113q-25 0 -41 17.5t-16 40.5z" />
<glyph unicode="Q" d="M115 285v1024q0 23 16 40t39 17h115q23 0 40 -17.5t17 -39.5v-1024q0 -25 -17.5 -41.5t-39.5 -16.5h-115q-23 0 -39 16.5t-16 41.5zM342 57v113q0 25 16.5 41t38.5 16h342q25 0 41.5 -16t16.5 -41v-113q0 -25 -16.5 -41t-41.5 -16h-342q-23 0 -39 16t-16 41zM342 1421 v115q0 25 16.5 41t38.5 16h570q25 0 41 -16t16 -41v-115q0 -23 -16.5 -39t-40.5 -16h-570q-23 0 -39 16t-16 39zM569 512v115q0 23 16.5 39t41.5 16h112q25 0 41.5 -16.5t16.5 -38.5v-115q0 -25 -16.5 -41t-41.5 -16h-112q-25 0 -41.5 16t-16.5 41zM797 285v112 q0 25 16 41.5t41 16.5h113q25 0 41 -16.5t16 -41.5v-112q0 -25 -16.5 -41.5t-40.5 -16.5h-113q-25 0 -41 16.5t-16 41.5zM1024 57v113q0 25 16.5 41t40.5 16h113q25 0 41 -16t16 -41v-113q0 -25 -16 -41t-41 -16h-113q-25 0 -41 16t-16 41zM1024 512v797q0 23 16.5 40 t40.5 17h113q25 0 41 -17.5t16 -39.5v-797q0 -25 -16 -41t-41 -16h-113q-25 0 -41 16t-16 41z" />
<glyph unicode="R" d="M115 57v1479q0 25 16 41t39 16h797q25 0 41 -16t16 -41v-115q0 -23 -16.5 -39t-40.5 -16h-625v-457h625q25 0 41 -16t16 -39v-115q0 -23 -16.5 -40t-40.5 -17h-170v-170q0 -25 -16.5 -41t-41.5 -16h-112q-25 0 -41.5 16t-16.5 41v170h-227v-625q0 -25 -17.5 -41 t-39.5 -16h-115q-23 0 -39 16t-16 41zM797 285v112q0 25 16 41.5t41 16.5h113q25 0 41 -16.5t16 -41.5v-112q0 -25 -16.5 -41.5t-40.5 -16.5h-113q-25 0 -41 16.5t-16 41.5zM1024 57v113q0 25 16.5 41t40.5 16h113q25 0 41 -16t16 -41v-113q0 -25 -16 -41t-41 -16h-113 q-25 0 -41 16t-16 41zM1024 967v342q0 23 16.5 40t40.5 17h113q25 0 41 -17.5t16 -39.5v-342q0 -23 -16 -40.5t-41 -17.5h-113q-25 0 -41 17.5t-16 40.5z" />
<glyph unicode="S" d="M115 285v112q0 25 16 41.5t39 16.5h115q23 0 40 -16.5t17 -41.5v-112q0 -25 -17.5 -41.5t-39.5 -16.5h-115q-23 0 -39 16.5t-16 41.5zM115 967v342q0 23 16 40t39 17h115q23 0 40 -17.5t17 -39.5v-342q0 -23 -17.5 -40.5t-39.5 -17.5h-115q-23 0 -39 17.5t-16 40.5z M342 57v113q0 25 16.5 41t38.5 16h570q25 0 41 -16t16 -41v-113q0 -25 -16.5 -41t-40.5 -16h-570q-23 0 -39 16t-16 41zM342 739v115q0 23 16.5 39t38.5 16h570q25 0 41 -16t16 -39v-115q0 -23 -16.5 -40t-40.5 -17h-570q-23 0 -39 17t-16 40zM342 1421v115q0 25 16.5 41 t38.5 16h570q25 0 41 -16t16 -41v-115q0 -23 -16.5 -39t-40.5 -16h-570q-23 0 -39 16t-16 39zM1024 285v342q0 23 16.5 39t40.5 16h113q25 0 41 -16.5t16 -38.5v-342q0 -25 -16 -41.5t-41 -16.5h-113q-25 0 -41 16.5t-16 41.5zM1024 1194v115q0 23 16.5 40t40.5 17h113 q25 0 41 -17.5t16 -39.5v-115q0 -23 -16 -39t-41 -16h-113q-25 0 -41 16t-16 39z" />
<glyph unicode="T" d="M115 1421v115q0 25 16 41t39 16h1024q25 0 41 -16t16 -41v-115q0 -23 -16 -39t-41 -16h-397v-1309q0 -25 -16.5 -41t-41.5 -16h-112q-25 0 -41.5 16.5t-16.5 40.5v1309h-399q-23 0 -39 16t-16 39z" />
<glyph unicode="U" d="M115 285v1251q0 25 16 41t39 16h115q23 0 40 -16t17 -41v-1251q0 -25 -17.5 -41.5t-39.5 -16.5h-115q-23 0 -39 16.5t-16 41.5zM342 57v113q0 25 16.5 41t38.5 16h570q25 0 41 -16t16 -41v-113q0 -25 -16.5 -41t-40.5 -16h-570q-23 0 -39 16t-16 41zM1024 285v1251 q0 25 16.5 41t40.5 16h113q25 0 41 -16t16 -41v-1251q0 -25 -16 -41.5t-41 -16.5h-113q-25 0 -41 16.5t-16 41.5z" />
<glyph unicode="V" d="M115 512v1024q0 25 16 41t39 16h115q23 0 40 -16t17 -41v-1024q0 -25 -17.5 -41t-39.5 -16h-115q-23 0 -39 16t-16 41zM342 285v112q0 25 16.5 41.5t38.5 16.5h115q25 0 41 -16.5t16 -41.5v-112q0 -25 -16 -41.5t-41 -16.5h-115q-23 0 -39 16.5t-16 41.5zM569 57v113 q0 25 16.5 41t41.5 16h112q25 0 41.5 -16t16.5 -41v-113q0 -25 -16.5 -41t-41.5 -16h-112q-25 0 -41.5 16t-16.5 41zM797 285v112q0 25 16 41.5t41 16.5h113q25 0 41 -16.5t16 -41.5v-112q0 -25 -16.5 -41.5t-40.5 -16.5h-113q-25 0 -41 16.5t-16 41.5zM1024 512v1024 q0 25 16.5 41t40.5 16h113q25 0 41 -16t16 -41v-1024q0 -25 -16 -41t-41 -16h-113q-25 0 -41 16t-16 41z" />
<glyph unicode="W" d="M115 285v1251q0 25 16 41t39 16h115q23 0 40 -16t17 -41v-1251q0 -25 -17.5 -41.5t-39.5 -16.5h-115q-23 0 -39 16.5t-16 41.5zM342 57v113q0 25 16.5 41t38.5 16h115q25 0 41 -16t16 -41v-113q0 -25 -16 -41t-41 -16h-115q-23 0 -39 16t-16 41zM569 285v569 q0 23 16.5 39t41.5 16h112q25 0 41.5 -16t16.5 -39v-569q0 -25 -16.5 -41.5t-41.5 -16.5h-112q-25 0 -41.5 16.5t-16.5 41.5zM797 57v113q0 25 16 41t41 16h113q25 0 41 -16t16 -41v-113q0 -25 -16.5 -41t-40.5 -16h-113q-25 0 -41 16t-16 41zM1024 285v1251q0 25 16.5 41 t40.5 16h113q25 0 41 -16t16 -41v-1251q0 -25 -16 -41.5t-41 -16.5h-113q-25 0 -41 16.5t-16 41.5z" />
<glyph unicode="X" d="M115 57v340q0 25 16 41.5t39 16.5h115q23 0 40 -16.5t17 -41.5v-340q0 -25 -17.5 -41t-39.5 -16h-115q-23 0 -39 16t-16 41zM115 1194v342q0 25 16 41t39 16h115q23 0 40 -16t17 -41v-342q0 -23 -17.5 -39t-39.5 -16h-115q-23 0 -39 16t-16 39zM342 512v115q0 23 16.5 39 t38.5 16h115q25 0 41 -16.5t16 -38.5v-115q0 -25 -16 -41t-41 -16h-115q-23 0 -39 16t-16 41zM342 967v114q0 23 16.5 40.5t38.5 17.5h115q25 0 41 -17.5t16 -40.5v-114q0 -23 -16 -40.5t-41 -17.5h-115q-23 0 -39 17.5t-16 40.5zM569 739v115q0 23 16.5 39t41.5 16h112 q25 0 41.5 -16t16.5 -39v-115q0 -23 -16.5 -40t-41.5 -17h-112q-25 0 -41.5 17t-16.5 40zM797 512v115q0 23 16 39t41 16h113q25 0 41 -16.5t16 -38.5v-115q0 -25 -16.5 -41t-40.5 -16h-113q-25 0 -41 16t-16 41zM797 967v114q0 23 16 40.5t41 17.5h113q25 0 41 -17.5 t16 -40.5v-114q0 -23 -16.5 -40.5t-40.5 -17.5h-113q-25 0 -41 17.5t-16 40.5zM1024 57v340q0 25 16.5 41.5t40.5 16.5h113q25 0 41 -16.5t16 -41.5v-340q0 -25 -16 -41t-41 -16h-113q-25 0 -41 16t-16 41zM1024 1194v342q0 25 16.5 41t40.5 16h113q25 0 41 -16t16 -41v-342 q0 -23 -16 -39t-41 -16h-113q-25 0 -41 16t-16 39z" />
<glyph unicode="Y" d="M115 1194v342q0 25 16 41t39 16h115q23 0 40 -16t17 -41v-342q0 -23 -17.5 -39t-39.5 -16h-115q-23 0 -39 16t-16 39zM342 967v114q0 23 16.5 40.5t38.5 17.5h115q25 0 41 -17.5t16 -40.5v-114q0 -23 -16 -40.5t-41 -17.5h-115q-23 0 -39 17.5t-16 40.5zM569 57v797 q0 23 16.5 39t41.5 16h112q25 0 41.5 -16t16.5 -39v-797q0 -25 -16.5 -41t-41.5 -16h-112q-25 0 -41.5 16t-16.5 41zM797 967v114q0 23 16 40.5t41 17.5h113q25 0 41 -17.5t16 -40.5v-114q0 -23 -16.5 -40.5t-40.5 -17.5h-113q-25 0 -41 17.5t-16 40.5zM1024 1194v342 q0 25 16.5 41t40.5 16h113q25 0 41 -16t16 -41v-342q0 -23 -16 -39t-41 -16h-113q-25 0 -41 16t-16 39z" />
<glyph unicode="Z" d="M115 57v340q0 25 16 41.5t39 16.5h115q23 0 40 -16.5t17 -41.5v-170h852q25 0 41 -16t16 -41v-113q0 -25 -16 -41t-41 -16h-1024q-23 0 -39 16t-16 41zM115 1421v115q0 25 16 41t39 16h1024q25 0 41 -16t16 -41v-342q0 -23 -16 -39t-41 -16h-113q-25 0 -41 16t-16 39v172 h-854q-23 0 -39 16t-16 39zM342 512v115q0 23 16.5 39t38.5 16h115q25 0 41 -16.5t16 -38.5v-115q0 -25 -16 -41t-41 -16h-115q-23 0 -39 16t-16 41zM569 739v115q0 23 16.5 39t41.5 16h112q25 0 41.5 -16t16.5 -39v-115q0 -23 -16.5 -40t-41.5 -17h-112q-25 0 -41.5 17 t-16.5 40zM797 967v114q0 23 16 40.5t41 17.5h113q25 0 41 -17.5t16 -40.5v-114q0 -23 -16.5 -40.5t-40.5 -17.5h-113q-25 0 -41 17.5t-16 40.5z" />
<glyph unicode="[" d="M455 57v1479q0 25 16 41t41 16h797q23 0 40 -16t17 -41v-115q0 -23 -17.5 -39t-39.5 -16h-627v-1139h627q23 0 40 -16t17 -41v-113q0 -25 -17.5 -41t-39.5 -16h-797q-25 0 -41 16t-16 41z" />
<glyph unicode="\" d="M115 1194v342q0 25 16 41t39 16h115q23 0 40 -16t17 -41v-342q0 -23 -17.5 -39t-39.5 -16h-115q-23 0 -39 16t-16 39zM342 967v114q0 23 16.5 40.5t38.5 17.5h115q25 0 41 -17.5t16 -40.5v-114q0 -23 -16 -40.5t-41 -17.5h-115q-23 0 -39 17.5t-16 40.5zM569 739v115 q0 23 16.5 39t41.5 16h112q25 0 41.5 -16t16.5 -39v-115q0 -23 -16.5 -40t-41.5 -17h-112q-25 0 -41.5 17t-16.5 40zM797 512v115q0 23 16 39t41 16h113q25 0 41 -16.5t16 -38.5v-115q0 -25 -16.5 -41t-40.5 -16h-113q-25 0 -41 16t-16 41zM1024 57v340q0 25 16.5 41.5 t40.5 16.5h113q25 0 41 -16.5t16 -41.5v-340q0 -25 -16 -41t-41 -16h-113q-25 0 -41 16t-16 41z" />
<glyph unicode="]" d="M227 57v113q0 25 16.5 41t41.5 16h624v1139h-624q-25 0 -41.5 16.5t-16.5 38.5v115q0 25 16.5 41t41.5 16h796q23 0 40.5 -16t17.5 -41v-1479q0 -25 -17.5 -41t-40.5 -16h-796q-25 0 -41.5 16t-16.5 41z" />
<glyph unicode="^" horiz-adv-x="909" d="M115 1139v227h227v227h227v-227h228v-227h-228v227h-227v-227h-227z" />
<glyph unicode="_" d="M227 -57q0 25 16.5 41t41.5 16h1024q23 0 40 -16.5t17 -40.5v-113q0 -25 -17.5 -41t-39.5 -16h-1024q-25 0 -41.5 16t-16.5 41v113z" />
<glyph unicode="`" d="M342 1421v115q0 25 16.5 41t38.5 16h115q25 0 41 -16t16 -41v-115q0 -23 -16 -39t-41 -16h-115q-23 0 -39 16t-16 39zM569 1194v115q0 23 16.5 40t41.5 17h112q25 0 41.5 -17.5t16.5 -39.5v-115q0 -23 -16.5 -39t-41.5 -16h-112q-25 0 -41.5 16t-16.5 39z" />
<glyph unicode="a" d="M115 285v112q0 25 16 41.5t39 16.5h115q23 0 40 -16.5t17 -41.5v-112q0 -25 -17.5 -41.5t-39.5 -16.5h-115q-23 0 -39 16.5t-16 41.5zM342 57v113q0 25 16.5 41t38.5 16h627v228h-627q-23 0 -39 16t-16 41v115q0 23 16.5 39t38.5 16h627v172q0 23 16.5 39t40.5 16h113 q25 0 41 -16t16 -39v-797q0 -25 -16 -41t-41 -16h-797q-23 0 -39 16t-16 41zM342 967v114q0 23 16.5 40.5t38.5 17.5h570q25 0 41 -17.5t16 -40.5v-114q0 -23 -16.5 -40.5t-40.5 -17.5h-570q-23 0 -39 17.5t-16 40.5z" />
<glyph unicode="b" d="M115 57v1479q0 25 16 41t39 16h115q23 0 40 -16t17 -41v-397h625q25 0 41 -17.5t16 -40.5v-114q0 -23 -16.5 -40.5t-40.5 -17.5h-625v-682h625q25 0 41 -16t16 -41v-113q0 -25 -16.5 -41t-40.5 -16h-797q-23 0 -39 16t-16 41zM1024 285v569q0 23 16.5 39t40.5 16h113 q25 0 41 -16t16 -39v-569q0 -25 -16 -41.5t-41 -16.5h-113q-25 0 -41 16.5t-16 41.5z" />
<glyph unicode="c" d="M115 285v569q0 23 16 39t39 16h115q23 0 40 -16t17 -39v-569q0 -25 -17.5 -41.5t-39.5 -16.5h-115q-23 0 -39 16.5t-16 41.5zM342 57v113q0 25 16.5 41t38.5 16h797q25 0 41 -16t16 -41v-113q0 -25 -16 -41t-41 -16h-797q-23 0 -39 16t-16 41zM342 967v114 q0 23 16.5 40.5t38.5 17.5h797q25 0 41 -17.5t16 -40.5v-114q0 -23 -16 -40.5t-41 -17.5h-797q-23 0 -39 17.5t-16 40.5z" />
<glyph unicode="d" d="M115 285v569q0 23 16 39t39 16h115q23 0 40 -16t17 -39v-569q0 -25 -17.5 -41.5t-39.5 -16.5h-115q-23 0 -39 16.5t-16 41.5zM342 57v113q0 25 16.5 41t38.5 16h627v682h-627q-23 0 -39 17.5t-16 40.5v114q0 23 16.5 40.5t38.5 17.5h627v397q0 25 16.5 41t40.5 16h113 q25 0 41 -16t16 -41v-1479q0 -25 -16 -41t-41 -16h-797q-23 0 -39 16t-16 41z" />
<glyph unicode="e" d="M115 285v569q0 23 16 39t39 16h115q23 0 40 -16t17 -39v-172h682v172q0 23 16.5 39t40.5 16h113q25 0 41 -16t16 -39v-342q0 -25 -16 -41t-41 -16h-852v-170q0 -25 -17.5 -41.5t-39.5 -16.5h-115q-23 0 -39 16.5t-16 41.5zM342 57v113q0 25 16.5 41t38.5 16h797 q25 0 41 -16t16 -41v-113q0 -25 -16 -41t-41 -16h-797q-23 0 -39 16t-16 41zM342 967v114q0 23 16.5 40.5t38.5 17.5h570q25 0 41 -17.5t16 -40.5v-114q0 -23 -16.5 -40.5t-40.5 -17.5h-570q-23 0 -39 17.5t-16 40.5z" />
<glyph unicode="f" d="M115 967v114q0 23 16 40.5t39 17.5h399v170q0 23 16.5 40t41.5 17h112q25 0 41.5 -17.5t16.5 -39.5v-170h397q25 0 41 -17.5t16 -40.5v-114q0 -23 -16 -40.5t-41 -17.5h-397v-852q0 -25 -16.5 -41t-41.5 -16h-112q-25 0 -41.5 16.5t-16.5 40.5v852h-399q-23 0 -39 17.5 t-16 40.5zM797 1421v115q0 25 16 41t41 16h340q25 0 41 -16t16 -41v-115q0 -23 -16 -39t-41 -16h-340q-25 0 -41 16t-16 39z" />
<glyph unicode="g" d="M115 285v569q0 23 16 39t39 16h115q23 0 40 -16t17 -39v-569q0 -25 -17.5 -41.5t-39.5 -16.5h-115q-23 0 -39 16.5t-16 41.5zM115 -285q0 25 16 41.5t39 16.5h797q25 0 41 -16.5t16 -41.5v-112q0 -25 -16.5 -41.5t-40.5 -16.5h-797q-23 0 -39 16.5t-16 41.5v112zM342 57 v113q0 25 16.5 41t38.5 16h627v682h-627q-23 0 -39 17.5t-16 40.5v114q0 23 16.5 40.5t38.5 17.5h797q25 0 41 -17.5t16 -40.5v-1251q0 -25 -16 -41t-41 -16h-113q-25 0 -41 16t-16 41v170h-627q-23 0 -39 16t-16 41z" />
<glyph unicode="h" d="M115 57v1479q0 25 16 41t39 16h115q23 0 40 -16t17 -41v-397h625q25 0 41 -17.5t16 -40.5v-114q0 -23 -16.5 -40.5t-40.5 -17.5h-625v-852q0 -25 -17.5 -41t-39.5 -16h-115q-23 0 -39 16t-16 41zM1024 57v797q0 23 16.5 39t40.5 16h113q25 0 41 -16t16 -39v-797 q0 -25 -16 -41t-41 -16h-113q-25 0 -41 16t-16 41z" />
<glyph unicode="i" d="M115 57v113q0 25 16 41t39 16h399v682h-172q-23 0 -39 17.5t-16 40.5v114q0 23 16.5 40.5t38.5 17.5h342q25 0 41.5 -17.5t16.5 -40.5v-854h397q25 0 41 -16t16 -41v-113q0 -25 -16 -41t-41 -16h-1024q-23 0 -39 16t-16 41zM569 1421v115q0 25 16.5 41t41.5 16h112 q25 0 41.5 -16t16.5 -41v-115q0 -23 -16.5 -39t-41.5 -16h-112q-25 0 -41.5 16t-16.5 39z" />
<glyph unicode="j" d="M115 -57q0 25 16 41t39 16h115q23 0 40 -16.5t17 -40.5v-113q0 -25 -17.5 -41t-39.5 -16h-115q-23 0 -39 16t-16 41v113zM342 -285q0 25 16.5 41.5t38.5 16.5h570q25 0 41 -16.5t16 -41.5v-112q0 -25 -16.5 -41.5t-40.5 -16.5h-570q-23 0 -39 16.5t-16 41.5v112zM797 967 v114q0 23 16 40.5t41 17.5h340q25 0 41 -17.5t16 -40.5v-1251q0 -25 -16 -41t-41 -16h-113q-25 0 -41 16t-16 41v1079h-170q-25 0 -41 17.5t-16 40.5zM1024 1421v115q0 25 16.5 41t40.5 16h113q25 0 41 -16t16 -41v-115q0 -23 -16 -39t-41 -16h-113q-25 0 -41 16t-16 39z " />
<glyph unicode="k" d="M115 57v1479q0 25 16 41t39 16h115q23 0 40 -16t17 -41v-1081h170q25 0 41 -16.5t16 -41.5v-112q0 -25 -16 -41.5t-41 -16.5h-170v-170q0 -25 -17.5 -41t-39.5 -16h-115q-23 0 -39 16t-16 41zM569 512v115q0 23 16.5 39t41.5 16h112q25 0 41.5 -16.5t16.5 -38.5v-115 q0 -25 -16.5 -41t-41.5 -16h-112q-25 0 -41.5 16t-16.5 41zM797 285v112q0 25 16 41.5t41 16.5h113q25 0 41 -16.5t16 -41.5v-112q0 -25 -16.5 -41.5t-40.5 -16.5h-113q-25 0 -41 16.5t-16 41.5zM797 739v115q0 23 16 39t41 16h113q25 0 41 -16t16 -39v-115q0 -23 -16.5 -40 t-40.5 -17h-113q-25 0 -41 17t-16 40zM1024 57v113q0 25 16.5 41t40.5 16h113q25 0 41 -16t16 -41v-113q0 -25 -16 -41t-41 -16h-113q-25 0 -41 16t-16 41zM1024 967v114q0 23 16.5 40.5t40.5 17.5h113q25 0 41 -17.5t16 -40.5v-114q0 -23 -16 -40.5t-41 -17.5h-113 q-25 0 -41 17.5t-16 40.5z" />
<glyph unicode="l" d="M115 57v113q0 25 16 41t39 16h399v1139h-172q-23 0 -39 16.5t-16 38.5v115q0 25 16.5 41t38.5 16h342q25 0 41.5 -16t16.5 -41v-1309h397q25 0 41 -16t16 -41v-113q0 -25 -16 -41t-41 -16h-1024q-23 0 -39 16t-16 41z" />
<glyph unicode="m" d="M115 57v1024q0 23 16 40.5t39 17.5h342q25 0 41 -17.5t16 -40.5v-114q0 -23 -16 -40.5t-41 -17.5h-170v-852q0 -25 -17.5 -41t-39.5 -16h-115q-23 0 -39 16t-16 41zM569 57v797q0 23 16.5 39t41.5 16h112q25 0 41.5 -16t16.5 -39v-797q0 -25 -16.5 -41t-41.5 -16h-112 q-25 0 -41.5 16t-16.5 41zM797 967v114q0 23 16 40.5t41 17.5h113q25 0 41 -17.5t16 -40.5v-114q0 -23 -16.5 -40.5t-40.5 -17.5h-113q-25 0 -41 17.5t-16 40.5zM1024 57v797q0 23 16.5 39t40.5 16h113q25 0 41 -16t16 -39v-797q0 -25 -16 -41t-41 -16h-113q-25 0 -41 16 t-16 41z" />
<glyph unicode="n" d="M115 57v1024q0 23 16 40.5t39 17.5h797q25 0 41 -17.5t16 -40.5v-114q0 -23 -16.5 -40.5t-40.5 -17.5h-625v-852q0 -25 -17.5 -41t-39.5 -16h-115q-23 0 -39 16t-16 41zM1024 57v797q0 23 16.5 39t40.5 16h113q25 0 41 -16t16 -39v-797q0 -25 -16 -41t-41 -16h-113 q-25 0 -41 16t-16 41z" />
<glyph unicode="o" d="M115 285v569q0 23 16 39t39 16h115q23 0 40 -16t17 -39v-569q0 -25 -17.5 -41.5t-39.5 -16.5h-115q-23 0 -39 16.5t-16 41.5zM342 57v113q0 25 16.5 41t38.5 16h570q25 0 41 -16t16 -41v-113q0 -25 -16.5 -41t-40.5 -16h-570q-23 0 -39 16t-16 41zM342 967v114 q0 23 16.5 40.5t38.5 17.5h570q25 0 41 -17.5t16 -40.5v-114q0 -23 -16.5 -40.5t-40.5 -17.5h-570q-23 0 -39 17.5t-16 40.5zM1024 285v569q0 23 16.5 39t40.5 16h113q25 0 41 -16t16 -39v-569q0 -25 -16 -41.5t-41 -16.5h-113q-25 0 -41 16.5t-16 41.5z" />
<glyph unicode="p" d="M115 -397v1478q0 23 16 40.5t39 17.5h797q25 0 41 -17.5t16 -40.5v-114q0 -23 -16.5 -40.5t-40.5 -17.5h-625v-682h625q25 0 41 -16t16 -41v-113q0 -25 -16.5 -41t-40.5 -16h-625v-397q0 -25 -17.5 -41.5t-39.5 -16.5h-115q-23 0 -39 16.5t-16 41.5zM1024 285v569 q0 23 16.5 39t40.5 16h113q25 0 41 -16t16 -39v-569q0 -25 -16 -41.5t-41 -16.5h-113q-25 0 -41 16.5t-16 41.5z" />
<glyph unicode="q" d="M115 285v569q0 23 16 39t39 16h115q23 0 40 -16t17 -39v-569q0 -25 -17.5 -41.5t-39.5 -16.5h-115q-23 0 -39 16.5t-16 41.5zM342 57v113q0 25 16.5 41t38.5 16h627v682h-627q-23 0 -39 17.5t-16 40.5v114q0 23 16.5 40.5t38.5 17.5h797q25 0 41 -17.5t16 -40.5v-1478 q0 -25 -16 -41.5t-41 -16.5h-113q-25 0 -41 16.5t-16 41.5v397h-627q-23 0 -39 16t-16 41z" />
<glyph unicode="r" d="M115 57v1024q0 23 16 40.5t39 17.5h797q25 0 41 -17.5t16 -40.5v-114q0 -23 -16.5 -40.5t-40.5 -17.5h-625v-852q0 -25 -17.5 -41t-39.5 -16h-115q-23 0 -39 16t-16 41zM1024 739v115q0 23 16.5 39t40.5 16h113q25 0 41 -16t16 -39v-115q0 -23 -16 -40t-41 -17h-113 q-25 0 -41 17t-16 40z" />
<glyph unicode="s" d="M115 57v113q0 25 16 41t39 16h797q25 0 41 -16t16 -41v-113q0 -25 -16.5 -41t-40.5 -16h-797q-23 0 -39 16t-16 41zM115 739v115q0 23 16 39t39 16h115q23 0 40 -16t17 -39v-115q0 -23 -17.5 -40t-39.5 -17h-115q-23 0 -39 17t-16 40zM342 512v115q0 23 16.5 39t38.5 16 h570q25 0 41 -16.5t16 -38.5v-115q0 -25 -16.5 -41t-40.5 -16h-570q-23 0 -39 16t-16 41zM342 967v114q0 23 16.5 40.5t38.5 17.5h797q25 0 41 -17.5t16 -40.5v-114q0 -23 -16 -40.5t-41 -17.5h-797q-23 0 -39 17.5t-16 40.5zM1024 285v112q0 25 16.5 41.5t40.5 16.5h113 q25 0 41 -16.5t16 -41.5v-112q0 -25 -16 -41.5t-41 -16.5h-113q-25 0 -41 16.5t-16 41.5z" />
<glyph unicode="t" d="M115 967v114q0 23 16 40.5t39 17.5h399v397q0 25 16.5 41t41.5 16h112q25 0 41.5 -16t16.5 -41v-397h397q25 0 41 -17.5t16 -40.5v-114q0 -23 -16 -40.5t-41 -17.5h-397v-624q0 -25 -16.5 -41.5t-41.5 -16.5h-112q-25 0 -41.5 16.5t-16.5 41.5v624h-399q-23 0 -39 17.5 t-16 40.5zM797 57v113q0 25 16 41t41 16h340q25 0 41 -16t16 -41v-113q0 -25 -16 -41t-41 -16h-340q-25 0 -41 16t-16 41z" />
<glyph unicode="u" d="M115 285v796q0 23 16 40.5t39 17.5h115q23 0 40 -17.5t17 -40.5v-796q0 -25 -17.5 -41.5t-39.5 -16.5h-115q-23 0 -39 16.5t-16 41.5zM342 57v113q0 25 16.5 41t38.5 16h627v854q0 23 16.5 40.5t40.5 17.5h113q25 0 41 -17.5t16 -40.5v-1024q0 -25 -16 -41t-41 -16h-797 q-23 0 -39 16t-16 41z" />
<glyph unicode="v" d="M115 512v569q0 23 16 40.5t39 17.5h115q23 0 40 -17.5t17 -40.5v-569q0 -25 -17.5 -41t-39.5 -16h-115q-23 0 -39 16t-16 41zM342 285v112q0 25 16.5 41.5t38.5 16.5h115q25 0 41 -16.5t16 -41.5v-112q0 -25 -16 -41.5t-41 -16.5h-115q-23 0 -39 16.5t-16 41.5zM569 57 v113q0 25 16.5 41t41.5 16h112q25 0 41.5 -16t16.5 -41v-113q0 -25 -16.5 -41t-41.5 -16h-112q-25 0 -41.5 16t-16.5 41zM797 285v112q0 25 16 41.5t41 16.5h113q25 0 41 -16.5t16 -41.5v-112q0 -25 -16.5 -41.5t-40.5 -16.5h-113q-25 0 -41 16.5t-16 41.5zM1024 512v569 q0 23 16.5 40.5t40.5 17.5h113q25 0 41 -17.5t16 -40.5v-569q0 -25 -16 -41t-41 -16h-113q-25 0 -41 16t-16 41z" />
<glyph unicode="w" d="M115 285v796q0 23 16 40.5t39 17.5h115q23 0 40 -17.5t17 -40.5v-796q0 -25 -17.5 -41.5t-39.5 -16.5h-115q-23 0 -39 16.5t-16 41.5zM342 57v113q0 25 16.5 41t38.5 16h115q25 0 41 -16t16 -41v-113q0 -25 -16 -41t-41 -16h-115q-23 0 -39 16t-16 41zM569 285v342 q0 23 16.5 39t41.5 16h112q25 0 41.5 -16.5t16.5 -38.5v-342q0 -25 -16.5 -41.5t-41.5 -16.5h-112q-25 0 -41.5 16.5t-16.5 41.5zM797 57v113q0 25 16 41t41 16h113q25 0 41 -16t16 -41v-113q0 -25 -16.5 -41t-40.5 -16h-113q-25 0 -41 16t-16 41zM1024 285v796 q0 23 16.5 40.5t40.5 17.5h113q25 0 41 -17.5t16 -40.5v-796q0 -25 -16 -41.5t-41 -16.5h-113q-25 0 -41 16.5t-16 41.5z" />
<glyph unicode="x" d="M115 57v113q0 25 16 41t39 16h115q23 0 40 -16t17 -41v-113q0 -25 -17.5 -41t-39.5 -16h-115q-23 0 -39 16t-16 41zM115 967v114q0 23 16 40.5t39 17.5h115q23 0 40 -17.5t17 -40.5v-114q0 -23 -17.5 -40.5t-39.5 -17.5h-115q-23 0 -39 17.5t-16 40.5zM342 285v112 q0 25 16.5 41.5t38.5 16.5h115q25 0 41 -16.5t16 -41.5v-112q0 -25 -16 -41.5t-41 -16.5h-115q-23 0 -39 16.5t-16 41.5zM342 739v115q0 23 16.5 39t38.5 16h115q25 0 41 -16t16 -39v-115q0 -23 -16 -40t-41 -17h-115q-23 0 -39 17t-16 40zM569 512v115q0 23 16.5 39 t41.5 16h112q25 0 41.5 -16.5t16.5 -38.5v-115q0 -25 -16.5 -41t-41.5 -16h-112q-25 0 -41.5 16t-16.5 41zM797 285v112q0 25 16 41.5t41 16.5h113q25 0 41 -16.5t16 -41.5v-112q0 -25 -16.5 -41.5t-40.5 -16.5h-113q-25 0 -41 16.5t-16 41.5zM797 739v115q0 23 16 39t41 16 h113q25 0 41 -16t16 -39v-115q0 -23 -16.5 -40t-40.5 -17h-113q-25 0 -41 17t-16 40zM1024 57v113q0 25 16.5 41t40.5 16h113q25 0 41 -16t16 -41v-113q0 -25 -16 -41t-41 -16h-113q-25 0 -41 16t-16 41zM1024 967v114q0 23 16.5 40.5t40.5 17.5h113q25 0 41 -17.5t16 -40.5 v-114q0 -23 -16 -40.5t-41 -17.5h-113q-25 0 -41 17.5t-16 40.5z" />
<glyph unicode="y" d="M115 285v796q0 23 16 40.5t39 17.5h115q23 0 40 -17.5t17 -40.5v-796q0 -25 -17.5 -41.5t-39.5 -16.5h-115q-23 0 -39 16.5t-16 41.5zM115 -285q0 25 16 41.5t39 16.5h797q25 0 41 -16.5t16 -41.5v-112q0 -25 -16.5 -41.5t-40.5 -16.5h-797q-23 0 -39 16.5t-16 41.5v112z M342 57v113q0 25 16.5 41t38.5 16h627v854q0 23 16.5 40.5t40.5 17.5h113q25 0 41 -17.5t16 -40.5v-1251q0 -25 -16 -41t-41 -16h-113q-25 0 -41 16t-16 41v170h-627q-23 0 -39 16t-16 41z" />
<glyph unicode="z" d="M115 57v113q0 25 16 41t39 16h172v170q0 25 16.5 41.5t38.5 16.5h115q25 0 41 -16.5t16 -41.5v-170h625q25 0 41 -16t16 -41v-113q0 -25 -16 -41t-41 -16h-1024q-23 0 -39 16t-16 41zM115 967v114q0 23 16 40.5t39 17.5h1024q25 0 41 -17.5t16 -40.5v-114 q0 -23 -16 -40.5t-41 -17.5h-170v-170q0 -23 -16.5 -40t-40.5 -17h-113q-25 0 -41 17.5t-16 39.5v170h-627q-23 0 -39 17.5t-16 40.5zM569 512v115q0 23 16.5 39t41.5 16h112q25 0 41.5 -16.5t16.5 -38.5v-115q0 -25 -16.5 -41t-41.5 -16h-112q-25 0 -41.5 16t-16.5 41z" />
<glyph unicode="{" horiz-adv-x="909" d="M115 682v227h227v457h227v227h228v-227h-228v-1139h228v-227h-228v227h-227v455h-227z" />
<glyph unicode="|" d="M569 -397v1933q0 25 16.5 41t41.5 16h112q25 0 41.5 -16t16.5 -41v-1933q0 -25 -16.5 -41.5t-41.5 -16.5h-112q-25 0 -41.5 16.5t-16.5 41.5z" />
<glyph unicode="}" horiz-adv-x="909" d="M115 0v227h227v1139h-227v227h227v-227h227v-457h228v-227h-228v-455h-227v-227h-227z" />
<glyph unicode="~" d="M115 739v115q0 23 16 39t39 16h115q23 0 40 -16t17 -39v-115q0 -23 -17.5 -40t-39.5 -17h-115q-23 0 -39 17t-16 40zM342 967v114q0 23 16.5 40.5t38.5 17.5h115q25 0 41 -17.5t16 -40.5v-114q0 -23 -16 -40.5t-41 -17.5h-115q-23 0 -39 17.5t-16 40.5zM569 739v115 q0 23 16.5 39t41.5 16h112q25 0 41.5 -16t16.5 -39v-115q0 -23 -16.5 -40t-41.5 -17h-112q-25 0 -41.5 17t-16.5 40zM797 512v115q0 23 16 39t41 16h113q25 0 41 -16.5t16 -38.5v-115q0 -25 -16.5 -41t-40.5 -16h-113q-25 0 -41 16t-16 41zM1024 739v115q0 23 16.5 39 t40.5 16h113q25 0 41 -16t16 -39v-115q0 -23 -16 -40t-41 -17h-113q-25 0 -41 17t-16 40z" />
<glyph unicode="&#xa0;" />
<glyph unicode="&#xa1;" d="M569 57v1024q0 23 16.5 40.5t41.5 17.5h112q25 0 41.5 -17.5t16.5 -40.5v-1024q0 -25 -16.5 -41t-41.5 -16h-112q-25 0 -41.5 16t-16.5 41zM569 1421v115q0 25 16.5 41t41.5 16h112q25 0 41.5 -16t16.5 -41v-115q0 -23 -16.5 -39t-41.5 -16h-112q-25 0 -41.5 16t-16.5 39 z" />
<glyph unicode="&#xa2;" d="M115 512v569q0 23 16 40.5t39 17.5h115q23 0 40 -17.5t17 -40.5v-569q0 -25 -17.5 -41t-39.5 -16h-115q-23 0 -39 16t-16 41zM342 285v112q0 25 16.5 41.5t38.5 16.5h400v684h-400q-23 0 -39 16t-16 39v115q0 23 16.5 40t38.5 17h400v170q0 25 16 41t41 16h113 q25 0 41 -16t16 -41v-170h170q25 0 41 -17.5t16 -39.5v-115q0 -23 -16 -39t-41 -16h-170v-684h170q25 0 41 -16.5t16 -41.5v-112q0 -25 -16 -41.5t-41 -16.5h-170v-170q0 -25 -16.5 -41t-40.5 -16h-113q-25 0 -41 16.5t-16 40.5v170h-400q-23 0 -39 16.5t-16 41.5z" />
<glyph unicode="&#xa3;" horiz-adv-x="1138" d="M115 0v227h227v455h-227v227h227v457h227v227h455v-227h-455v-457h228v-227h-228v-455h455v-227h-909z" />
<glyph unicode="&#xa5;" d="M115 285v112q0 25 16 41.5t39 16.5h399v227h-399q-23 0 -39 17.5t-16 39.5v115q0 23 16 39t39 16h172v172q0 23 16.5 40.5t38.5 17.5h115q25 0 41 -17.5t16 -40.5v-172h228v172q0 23 16 40.5t41 17.5h113q25 0 41 -17.5t16 -40.5v-172h170q25 0 41 -16t16 -39v-115 q0 -23 -16 -40t-41 -17h-397v-227h397q25 0 41 -16.5t16 -41.5v-112q0 -25 -16 -41.5t-41 -16.5h-397v-170q0 -25 -16.5 -41t-41.5 -16h-112q-25 0 -41.5 16.5t-16.5 40.5v170h-399q-23 0 -39 16.5t-16 41.5zM115 1194v342q0 25 16 41t39 16h115q23 0 40 -16t17 -41v-342 q0 -23 -17.5 -39t-39.5 -16h-115q-23 0 -39 16t-16 39zM1024 1194v342q0 25 16.5 41t40.5 16h113q25 0 41 -16t16 -41v-342q0 -23 -16 -39t-41 -16h-113q-25 0 -41 16t-16 39z" />
<glyph unicode="&#xa6;" d="M569 -397v794q0 25 16.5 41.5t41.5 16.5h112q25 0 41.5 -16.5t16.5 -41.5v-794q0 -25 -16.5 -41.5t-41.5 -16.5h-112q-25 0 -41.5 16.5t-16.5 41.5zM569 739v797q0 25 16.5 41t41.5 16h112q25 0 41.5 -16t16.5 -41v-797q0 -23 -16.5 -40t-41.5 -17h-112q-25 0 -41.5 17 t-16.5 40z" />
<glyph unicode="&#xa7;" d="M115 57v113q0 25 16 41t39 16h797q25 0 41 -16t16 -41v-113q0 -25 -16.5 -41t-40.5 -16h-797q-23 0 -39 16t-16 41zM115 739v115q0 23 16 39t39 16h115q23 0 40 -16t17 -39v-115q0 -23 -17.5 -40t-39.5 -17h-115q-23 0 -39 17t-16 40zM115 1194v115q0 23 16 40t39 17h115 q23 0 40 -17.5t17 -39.5v-115q0 -23 -17.5 -39t-39.5 -16h-115q-23 0 -39 16t-16 39zM342 512v115q0 23 16.5 39t38.5 16h570q25 0 41 -16.5t16 -38.5v-115q0 -25 -16.5 -41t-40.5 -16h-570q-23 0 -39 16t-16 41zM342 967v114q0 23 16.5 40.5t38.5 17.5h570q25 0 41 -17.5 t16 -40.5v-114q0 -23 -16.5 -40.5t-40.5 -17.5h-570q-23 0 -39 17.5t-16 40.5zM342 1421v115q0 25 16.5 41t38.5 16h797q25 0 41 -16t16 -41v-115q0 -23 -16 -39t-41 -16h-797q-23 0 -39 16t-16 39zM1024 285v112q0 25 16.5 41.5t40.5 16.5h113q25 0 41 -16.5t16 -41.5v-112 q0 -25 -16 -41.5t-41 -16.5h-113q-25 0 -41 16.5t-16 41.5zM1024 739v115q0 23 16.5 39t40.5 16h113q25 0 41 -16t16 -39v-115q0 -23 -16 -40t-41 -17h-113q-25 0 -41 17t-16 40z" />
<glyph unicode="&#xa8;" d="M342 1421v115q0 25 16.5 41t38.5 16h115q25 0 41 -16t16 -41v-115q0 -23 -16 -39t-41 -16h-115q-23 0 -39 16t-16 39zM797 1421v115q0 25 16 41t41 16h113q25 0 41 -16t16 -41v-115q0 -23 -16.5 -39t-40.5 -16h-113q-25 0 -41 16t-16 39z" />
<glyph unicode="&#xa9;" d="M115 285v569q0 23 16 39t39 16h115q23 0 40 -16t17 -39v-569q0 -25 -17.5 -41.5t-39.5 -16.5h-115q-23 0 -39 16.5t-16 41.5zM115 -285q0 25 16 41.5t39 16.5h1024q25 0 41 -16.5t16 -41.5v-112q0 -25 -16 -41.5t-41 -16.5h-1024q-23 0 -39 16.5t-16 41.5v112zM115 1421 v115q0 25 16 41t39 16h1024q25 0 41 -16t16 -41v-115q0 -23 -16 -39t-41 -16h-1024q-23 0 -39 16t-16 39zM342 57v113q0 25 16.5 41t38.5 16h797q25 0 41 -16t16 -41v-113q0 -25 -16 -41t-41 -16h-797q-23 0 -39 16t-16 41zM342 967v114q0 23 16.5 40.5t38.5 17.5h797 q25 0 41 -17.5t16 -40.5v-114q0 -23 -16 -40.5t-41 -17.5h-797q-23 0 -39 17.5t-16 40.5z" />
<glyph unicode="&#xaa;" d="M115 739v115q0 23 16 39t39 16h115q23 0 40 -16t17 -39v-115q0 -23 -17.5 -40t-39.5 -17h-115q-23 0 -39 17t-16 40zM342 512v115q0 23 16.5 39t38.5 16h627v227h-627q-23 0 -39 17.5t-16 40.5v114q0 23 16.5 40.5t38.5 17.5h627v170q0 23 16.5 40t40.5 17h113 q25 0 41 -17.5t16 -39.5v-797q0 -25 -16 -41t-41 -16h-797q-23 0 -39 16t-16 41zM342 1421v115q0 25 16.5 41t38.5 16h570q25 0 41 -16t16 -41v-115q0 -23 -16.5 -39t-40.5 -16h-570q-23 0 -39 16t-16 39z" />
<glyph unicode="&#xab;" d="M115 739v115q0 23 16 39t39 16h115q23 0 40 -16t17 -39v-115q0 -23 -17.5 -40t-39.5 -17h-115q-23 0 -39 17t-16 40zM342 512v115q0 23 16.5 39t38.5 16h115q25 0 41 -16.5t16 -38.5v-115q0 -25 -16 -41t-41 -16h-115q-23 0 -39 16t-16 41zM342 967v114q0 23 16.5 40.5 t38.5 17.5h115q25 0 41 -17.5t16 -40.5v-114q0 -23 -16 -40.5t-41 -17.5h-115q-23 0 -39 17.5t-16 40.5zM569 285v112q0 25 16.5 41.5t41.5 16.5h112q25 0 41.5 -16.5t16.5 -41.5v-112q0 -25 -16.5 -41.5t-41.5 -16.5h-112q-25 0 -41.5 16.5t-16.5 41.5zM569 1194v115 q0 23 16.5 40t41.5 17h112q25 0 41.5 -17.5t16.5 -39.5v-115q0 -23 -16.5 -39t-41.5 -16h-112q-25 0 -41.5 16t-16.5 39zM797 57v113q0 25 16 41t41 16h113q25 0 41 -16t16 -41v-113q0 -25 -16.5 -41t-40.5 -16h-113q-25 0 -41 16t-16 41zM797 739v115q0 23 17 39t40 16h115 q23 0 39 -16t16 -39v-115q0 -23 -16.5 -40t-38.5 -17h-115q-23 0 -40 17t-17 40zM797 1421v115q0 25 16 41t41 16h113q25 0 41 -16t16 -41v-115q0 -23 -16.5 -39t-40.5 -16h-113q-25 0 -41 16t-16 39zM1024 512v115q0 23 17.5 39t39.5 16h115q23 0 40 -16.5t17 -38.5v-115 q0 -25 -17 -41t-40 -16h-115q-23 0 -40 16t-17 41zM1024 967v114q0 23 17.5 40.5t39.5 17.5h115q23 0 40 -17.5t17 -40.5v-114q0 -23 -17 -40.5t-40 -17.5h-115q-23 0 -40 17.5t-17 40.5z" />
<glyph unicode="&#xad;" d="M115 512v115q0 23 16 39t39 16h1024q25 0 41 -16.5t16 -38.5v-115q0 -25 -16 -41t-41 -16h-1024q-23 0 -39 16t-16 41z" />
<glyph unicode="&#xae;" d="M115 57v1024q0 23 16 40.5t39 17.5h797q25 0 41 -17.5t16 -40.5v-114q0 -23 -16.5 -40.5t-40.5 -17.5h-625v-227h625q25 0 41 -16.5t16 -38.5v-342q0 -25 -16.5 -41.5t-40.5 -16.5h-113q-25 0 -41 16.5t-16 41.5v170h-455v-398q0 -25 -17.5 -41t-39.5 -16h-115 q-23 0 -39 16t-16 41zM115 -285q0 25 16 41.5t39 16.5h1024q25 0 41 -16.5t16 -41.5v-112q0 -25 -16 -41.5t-41 -16.5h-1024q-23 0 -39 16.5t-16 41.5v112zM115 1421v115q0 25 16 41t39 16h1024q25 0 41 -16t16 -41v-115q0 -23 -16 -39t-41 -16h-1024q-23 0 -39 16t-16 39z M1024 57v113q0 25 16.5 41t40.5 16h113q25 0 41 -16t16 -41v-113q0 -25 -16 -41t-41 -16h-113q-25 0 -41 16t-16 41zM1024 739v115q0 23 16.5 39t40.5 16h113q25 0 41 -16t16 -39v-115q0 -23 -16 -40t-41 -17h-113q-25 0 -41 17t-16 40z" />
<glyph unicode="&#xaf;" d="M342 1421v115q0 25 16.5 41t38.5 16h570q25 0 41 -16t16 -41v-115q0 -23 -16.5 -39t-40.5 -16h-570q-23 0 -39 16t-16 39z" />
<glyph unicode="&#xb0;" d="M342 1194v115q0 23 16.5 40t38.5 17h115q25 0 41 -17.5t16 -39.5v-115q0 -23 -16 -39t-41 -16h-115q-23 0 -39 16t-16 39zM569 967v114q0 23 16.5 40.5t41.5 17.5h112q25 0 41.5 -17.5t16.5 -40.5v-114q0 -23 -16.5 -40.5t-41.5 -17.5h-112q-25 0 -41.5 17.5t-16.5 40.5z M569 1421v115q0 25 16.5 41t41.5 16h112q25 0 41.5 -16t16.5 -41v-115q0 -23 -16.5 -39t-41.5 -16h-112q-25 0 -41.5 16t-16.5 39zM797 1194v115q0 23 16 40t41 17h113q25 0 41 -17.5t16 -39.5v-115q0 -23 -16.5 -39t-40.5 -16h-113q-25 0 -41 16t-16 39z" />
<glyph unicode="&#xb1;" d="M115 57v113q0 25 16 41t39 16h1024q25 0 41 -16t16 -41v-113q0 -25 -16 -41t-41 -16h-1024q-23 0 -39 16t-16 41zM115 967v114q0 23 16 40.5t39 17.5h399v397q0 25 16.5 41t41.5 16h112q25 0 41.5 -16t16.5 -41v-397h397q25 0 41 -17.5t16 -40.5v-114q0 -23 -16 -40.5 t-41 -17.5h-397v-397q0 -25 -16.5 -41t-41.5 -16h-112q-25 0 -41.5 16t-16.5 41v397h-399q-23 0 -39 17.5t-16 40.5z" />
<glyph unicode="&#xb2;" d="M115 57v113q0 25 16 41t39 16h172v170q0 25 16.5 41.5t38.5 16.5h115q25 0 41 -16.5t16 -41.5v-170h625q25 0 41 -16t16 -41v-113q0 -25 -16 -41t-41 -16h-1024q-23 0 -39 16t-16 41zM115 1194v115q0 23 16 40t39 17h115q23 0 40 -17.5t17 -39.5v-115q0 -23 -17.5 -39 t-39.5 -16h-115q-23 0 -39 16t-16 39zM342 1421v115q0 25 16.5 41t38.5 16h570q25 0 41 -16t16 -41v-115q0 -23 -16.5 -39t-40.5 -16h-570q-23 0 -39 16t-16 39zM569 512v115q0 23 16.5 39t41.5 16h112q25 0 41.5 -16.5t16.5 -38.5v-115q0 -25 -16.5 -41t-41.5 -16h-112 q-25 0 -41.5 16t-16.5 41zM797 739v115q0 23 16 39t41 16h113q25 0 41 -16t16 -39v-115q0 -23 -16.5 -40t-40.5 -17h-113q-25 0 -41 17t-16 40zM1024 967v342q0 23 16.5 40t40.5 17h113q25 0 41 -17.5t16 -39.5v-342q0 -23 -16 -40.5t-41 -17.5h-113q-25 0 -41 17.5 t-16 40.5z" />
<glyph unicode="&#xb3;" d="M115 285v112q0 25 16 41.5t39 16.5h115q23 0 40 -16.5t17 -41.5v-112q0 -25 -17.5 -41.5t-39.5 -16.5h-115q-23 0 -39 16.5t-16 41.5zM115 1421v115q0 25 16 41t39 16h1024q25 0 41 -16t16 -41v-115q0 -23 -16 -39t-41 -16h-170v-172q0 -23 -16.5 -39t-40.5 -16h-113 q-25 0 -41 16t-16 39v172h-627q-23 0 -39 16t-16 39zM342 57v113q0 25 16.5 41t38.5 16h570q25 0 41 -16t16 -41v-113q0 -25 -16.5 -41t-40.5 -16h-570q-23 0 -39 16t-16 41zM342 739v115q0 23 16.5 39t38.5 16h172v172q0 23 16.5 40.5t41.5 17.5h112q25 0 41.5 -17.5 t16.5 -40.5v-172h170q25 0 41 -16t16 -39v-115q0 -23 -16.5 -40t-40.5 -17h-570q-23 0 -39 17t-16 40zM1024 285v342q0 23 16.5 39t40.5 16h113q25 0 41 -16.5t16 -38.5v-342q0 -25 -16 -41.5t-41 -16.5h-113q-25 0 -41 16.5t-16 41.5z" />
<glyph unicode="&#xb4;" d="M569 1194v115q0 23 16.5 40t41.5 17h112q25 0 41.5 -17.5t16.5 -39.5v-115q0 -23 -16.5 -39t-41.5 -16h-112q-25 0 -41.5 16t-16.5 39zM797 1421v115q0 25 16 41t41 16h113q25 0 41 -16t16 -41v-115q0 -23 -16.5 -39t-40.5 -16h-113q-25 0 -41 16t-16 39z" />
<glyph unicode="&#xb6;" d="M115 967v342q0 23 16 40t39 17h172v170q0 23 16.5 40t38.5 17h797q25 0 41 -17t16 -40v-115q0 -23 -16 -39t-41 -16h-170v-1536q0 -25 -16.5 -41t-40.5 -16h-113q-25 0 -41 16t-16 41v852h-400q-23 0 -39 17.5t-16 39.5v170h-172q-23 0 -39 17.5t-16 40.5zM569 -285 q0 25 16.5 41.5t41.5 16.5h112q25 0 41.5 -16.5t16.5 -41.5v-112q0 -25 -16.5 -41.5t-41.5 -16.5h-112q-25 0 -41.5 16.5t-16.5 41.5v112z" />
<glyph unicode="&#xb7;" d="M682 739v342q0 23 17.5 40.5t39.5 17.5h342q23 0 40.5 -17.5t17.5 -40.5v-342q0 -23 -17.5 -40t-40.5 -17h-342q-23 0 -40 17t-17 40z" />
<glyph unicode="&#xb8;" d="M342 -285q0 25 16.5 41.5t38.5 16.5h115q25 0 41 -16.5t16 -41.5v-112q0 -25 -16 -41.5t-41 -16.5h-115q-23 0 -39 16.5t-16 41.5v112zM569 -57q0 25 16.5 41t41.5 16h112q25 0 41.5 -16.5t16.5 -40.5v-113q0 -25 -16.5 -41t-41.5 -16h-112q-25 0 -41.5 16t-16.5 41v113z " />
<glyph unicode="&#xb9;" d="M115 57v113q0 25 16 41t39 16h399v912h-172q-23 0 -39 16t-16 39v115q0 23 16.5 40t38.5 17h172v170q0 25 16.5 41t41.5 16h112q25 0 41.5 -16t16.5 -41v-1309h397q25 0 41 -16t16 -41v-113q0 -25 -16 -41t-41 -16h-1024q-23 0 -39 16t-16 41zM115 967v114q0 23 16 40.5 t39 17.5h115q23 0 40 -17.5t17 -40.5v-114q0 -23 -17.5 -40.5t-39.5 -17.5h-115q-23 0 -39 17.5t-16 40.5z" />
<glyph unicode="&#xba;" d="M115 739v570q0 23 16 40t39 17h115q23 0 40 -17.5t17 -39.5v-570q0 -23 -17.5 -40t-39.5 -17h-115q-23 0 -39 17t-16 40zM342 512v115q0 23 16.5 39t38.5 16h570q25 0 41 -16.5t16 -38.5v-115q0 -25 -16.5 -41t-40.5 -16h-570q-23 0 -39 16t-16 41zM342 1421v115 q0 25 16.5 41t38.5 16h570q25 0 41 -16t16 -41v-115q0 -23 -16.5 -39t-40.5 -16h-570q-23 0 -39 16t-16 39zM1024 739v570q0 23 16.5 40t40.5 17h113q25 0 41 -17.5t16 -39.5v-570q0 -23 -16 -40t-41 -17h-113q-25 0 -41 17t-16 40z" />
<glyph unicode="&#xbb;" d="M115 512v115q0 23 16 39t39 16h115q23 0 40 -16.5t17 -38.5v-115q0 -25 -17.5 -41t-39.5 -16h-115q-23 0 -39 16t-16 41zM115 967v114q0 23 16 40.5t39 17.5h115q23 0 40 -17.5t17 -40.5v-114q0 -23 -17.5 -40.5t-39.5 -17.5h-115q-23 0 -39 17.5t-16 40.5zM342 57v113 q0 25 16.5 41t38.5 16h115q25 0 41 -16t16 -41v-113q0 -25 -16 -41t-41 -16h-115q-23 0 -39 16t-16 41zM342 739v115q0 23 16.5 39t38.5 16h115q25 0 41 -16t16 -39v-115q0 -23 -16 -40t-41 -17h-115q-23 0 -39 17t-16 40zM342 1421v115q0 25 16.5 41t38.5 16h115 q25 0 41 -16t16 -41v-115q0 -23 -16 -39t-41 -16h-115q-23 0 -39 16t-16 39zM569 285v112q0 25 16.5 41.5t41.5 16.5h112q25 0 41.5 -16.5t16.5 -41.5v-112q0 -25 -16.5 -41.5t-41.5 -16.5h-112q-25 0 -41.5 16.5t-16.5 41.5zM569 1194v115q0 23 16.5 40t41.5 17h112 q25 0 41.5 -17.5t16.5 -39.5v-115q0 -23 -16.5 -39t-41.5 -16h-112q-25 0 -41.5 16t-16.5 39zM797 512v115q0 23 16 39t41 16h113q25 0 41 -16.5t16 -38.5v-115q0 -25 -16.5 -41t-40.5 -16h-113q-25 0 -41 16t-16 41zM797 967v114q0 23 16 40.5t41 17.5h113q25 0 41 -17.5 t16 -40.5v-114q0 -23 -16.5 -40.5t-40.5 -17.5h-113q-25 0 -41 17.5t-16 40.5zM1024 739v115q0 23 16.5 39t40.5 16h113q25 0 41 -16t16 -39v-115q0 -23 -16 -40t-41 -17h-113q-25 0 -41 17t-16 40z" />
<glyph unicode="&#xbf;" d="M115 285v342q0 23 16 39t39 16h115q23 0 40 -16.5t17 -38.5v-342q0 -25 -17.5 -41.5t-39.5 -16.5h-115q-23 0 -39 16.5t-16 41.5zM342 57v113q0 25 16.5 41t38.5 16h570q25 0 41 -16t16 -41v-113q0 -25 -16.5 -41t-40.5 -16h-570q-23 0 -39 16t-16 41zM342 739v115 q0 23 16.5 39t38.5 16h115q25 0 41 -16t16 -39v-115q0 -23 -16 -40t-41 -17h-115q-23 0 -39 17t-16 40zM569 967v114q0 23 16.5 40.5t41.5 17.5h112q25 0 41.5 -17.5t16.5 -40.5v-114q0 -23 -16.5 -40.5t-41.5 -17.5h-112q-25 0 -41.5 17.5t-16.5 40.5zM569 1421v115 q0 25 16.5 41t41.5 16h112q25 0 41.5 -16t16.5 -41v-115q0 -23 -16.5 -39t-41.5 -16h-112q-25 0 -41.5 16t-16.5 39zM1024 285v112q0 25 16.5 41.5t40.5 16.5h113q25 0 41 -16.5t16 -41.5v-112q0 -25 -16 -41.5t-41 -16.5h-113q-25 0 -41 16.5t-16 41.5z" />
<glyph unicode="&#xc0;" d="M115 57v1252q0 23 16 40t39 17h115q23 0 40 -17.5t17 -39.5v-400h682v400q0 23 16.5 40t40.5 17h113q25 0 41 -17.5t16 -39.5v-1252q0 -25 -16 -41t-41 -16h-113q-25 0 -41 16.5t-16 40.5v625h-682v-625q0 -25 -17.5 -41t-39.5 -16h-115q-23 0 -39 16t-16 41zM342 1421 v115q0 25 16.5 41t38.5 16h172v170q0 25 16.5 41.5t41.5 16.5h112q25 0 41.5 -16.5t16.5 -41.5v-170h170q25 0 41 -16t16 -41v-115q0 -23 -16.5 -39t-40.5 -16h-570q-23 0 -39 16t-16 39zM342 1878v113q0 25 16.5 41t38.5 16h115q25 0 41 -16.5t16 -40.5v-113q0 -25 -16 -41 t-41 -16h-115q-23 0 -39 16t-16 41z" />
<glyph unicode="&#xc1;" d="M115 57v1252q0 23 16 40t39 17h115q23 0 40 -17.5t17 -39.5v-400h682v400q0 23 16.5 40t40.5 17h113q25 0 41 -17.5t16 -39.5v-1252q0 -25 -16 -41t-41 -16h-113q-25 0 -41 16.5t-16 40.5v625h-682v-625q0 -25 -17.5 -41t-39.5 -16h-115q-23 0 -39 16t-16 41zM342 1421 v115q0 25 16.5 41t38.5 16h172v170q0 25 16.5 41.5t41.5 16.5h112q25 0 41.5 -16.5t16.5 -41.5v-170h170q25 0 41 -16t16 -41v-115q0 -23 -16.5 -39t-40.5 -16h-570q-23 0 -39 16t-16 39zM797 1878v113q0 25 16 41t41 16h113q25 0 41 -16.5t16 -40.5v-113q0 -25 -16.5 -41 t-40.5 -16h-113q-25 0 -41 16t-16 41z" />
<glyph unicode="&#xc2;" d="M115 57v1252q0 23 16 40t39 17h115q23 0 40 -17.5t17 -39.5v-400h682v400q0 23 16.5 40t40.5 17h113q25 0 41 -17.5t16 -39.5v-1252q0 -25 -16 -41t-41 -16h-113q-25 0 -41 16.5t-16 40.5v625h-682v-625q0 -25 -17.5 -41t-39.5 -16h-115q-23 0 -39 16t-16 41zM342 1421 v342q0 25 16.5 41.5t38.5 16.5h115q23 0 40 -16.5t17 -41.5v-170h228v170q0 25 16 41.5t41 16.5h113q25 0 41 -16.5t16 -41.5v-342q0 -23 -16.5 -39t-40.5 -16h-570q-23 0 -39 16t-16 39zM569 1878v113q0 25 16.5 41t41.5 16h112q25 0 41.5 -16.5t16.5 -40.5v-113 q0 -25 -16.5 -41t-41.5 -16h-112q-25 0 -41.5 16t-16.5 41z" />
<glyph unicode="&#xc3;" d="M115 57v1252q0 23 16 40t39 17h115q23 0 40 -17.5t17 -39.5v-400h682v400q0 23 16.5 40t40.5 17h113q25 0 41 -17.5t16 -39.5v-1252q0 -25 -16 -41t-41 -16h-113q-25 0 -41 16.5t-16 40.5v625h-682v-625q0 -25 -17.5 -41t-39.5 -16h-115q-23 0 -39 16t-16 41zM115 1651 v112q0 25 16 41.5t39 16.5h115q23 0 40 -16.5t17 -41.5v-112q0 -25 -17.5 -41.5t-39.5 -16.5h-115q-23 0 -39 16.5t-16 41.5zM342 1421v115q0 25 16.5 41t38.5 16h172v170q0 25 16.5 41.5t41.5 16.5h112q25 0 41.5 -16.5t16.5 -41.5v-170h170q25 0 41 -16t16 -41v-115 q0 -23 -16.5 -39t-40.5 -16h-570q-23 0 -39 16t-16 39zM342 1878v113q0 25 16.5 41t38.5 16h115q25 0 41 -16.5t16 -40.5v-113q0 -25 -16 -41t-41 -16h-115q-23 0 -39 16t-16 41zM1024 1651v112q0 25 16.5 41.5t40.5 16.5h113q25 0 41 -16.5t16 -41.5v-112q0 -25 -16 -41.5 t-41 -16.5h-113q-25 0 -41 16.5t-16 41.5z" />
<glyph unicode="&#xc4;" d="M115 57v1252q0 23 16 40t39 17h115q23 0 40 -17.5t17 -39.5v-400h682v400q0 23 16.5 40t40.5 17h113q25 0 41 -17.5t16 -39.5v-1252q0 -25 -16 -41t-41 -16h-113q-25 0 -41 16.5t-16 40.5v625h-682v-625q0 -25 -17.5 -41t-39.5 -16h-115q-23 0 -39 16t-16 41zM342 1421 v115q0 25 16.5 41t38.5 16h570q25 0 41 -16t16 -41v-115q0 -23 -16.5 -39t-40.5 -16h-570q-23 0 -39 16t-16 39zM342 1878v113q0 25 16.5 41t38.5 16h115q25 0 41 -16.5t16 -40.5v-113q0 -25 -16 -41t-41 -16h-115q-23 0 -39 16t-16 41zM797 1878v113q0 25 16 41t41 16h113 q25 0 41 -16.5t16 -40.5v-113q0 -25 -16.5 -41t-40.5 -16h-113q-25 0 -41 16t-16 41z" />
<glyph unicode="&#xc5;" d="M115 57v1252q0 23 16 40t39 17h115q23 0 40 -17.5t17 -39.5v-400h682v400q0 23 16.5 40t40.5 17h113q25 0 41 -17.5t16 -39.5v-1252q0 -25 -16 -41t-41 -16h-113q-25 0 -41 16.5t-16 40.5v625h-682v-625q0 -25 -17.5 -41t-39.5 -16h-115q-23 0 -39 16t-16 41zM342 1421 v115q0 25 16.5 41t38.5 16h570q25 0 41 -16t16 -41v-115q0 -23 -16.5 -39t-40.5 -16h-570q-23 0 -39 16t-16 39z" />
<glyph unicode="&#xc6;" d="M115 57v1252q0 23 16 40t39 17h115q23 0 40 -17.5t17 -39.5v-400h227v457h-172q-23 0 -39 16.5t-16 38.5v115q0 23 16.5 40t38.5 17h797q25 0 41 -17t16 -40v-115q0 -23 -16 -39t-41 -16h-397v-457h170q25 0 41 -16t16 -39v-115q0 -23 -16.5 -40t-40.5 -17h-170v-455h397 q25 0 41 -16t16 -41v-113q0 -25 -16 -41t-41 -16h-567q-25 0 -41.5 16.5t-16.5 40.5v625h-227v-625q0 -25 -17.5 -41t-39.5 -16h-115q-23 0 -39 16t-16 41z" />
<glyph unicode="&#xc7;" d="M115 285v1024q0 23 16 40t39 17h115q23 0 40 -17.5t17 -39.5v-1024q0 -25 -17.5 -41.5t-39.5 -16.5h-115q-23 0 -39 16.5t-16 41.5zM342 57v113q0 25 16.5 41t38.5 16h570q25 0 41 -16t16 -41v-113q0 -25 -16.5 -41t-40.5 -16h-170v-170q0 -25 -16.5 -41t-41.5 -16h-112 q-25 0 -41.5 16t-16.5 41v170h-172q-23 0 -39 16t-16 41zM342 -285q0 25 16.5 41.5t38.5 16.5h115q25 0 41 -16.5t16 -41.5v-112q0 -25 -16 -41.5t-41 -16.5h-115q-23 0 -39 16.5t-16 41.5v112zM342 1421v115q0 25 16.5 41t38.5 16h570q25 0 41 -16t16 -41v-115 q0 -23 -16.5 -39t-40.5 -16h-570q-23 0 -39 16t-16 39zM1024 285v112q0 25 16.5 41.5t40.5 16.5h113q25 0 41 -16.5t16 -41.5v-112q0 -25 -16 -41.5t-41 -16.5h-113q-25 0 -41 16.5t-16 41.5zM1024 1194v115q0 23 16.5 40t40.5 17h113q25 0 41 -17.5t16 -39.5v-115 q0 -23 -16 -39t-41 -16h-113q-25 0 -41 16t-16 39z" />
<glyph unicode="&#xc8;" d="M115 57v1479q0 25 16 41t39 16h399v170q0 23 16.5 40.5t41.5 17.5h112q25 0 41.5 -17.5t16.5 -40.5v-170h397q25 0 41 -16t16 -41v-115q0 -23 -16 -39t-41 -16h-852v-457h625q25 0 41 -16t16 -39v-115q0 -23 -16.5 -40t-40.5 -17h-625v-455h852q25 0 41 -16t16 -41v-113 q0 -25 -16 -41t-41 -16h-1024q-23 0 -39 16t-16 41zM342 1876v115q0 25 16.5 41t38.5 16h115q25 0 41 -16.5t16 -40.5v-115q0 -23 -16 -39t-41 -16h-115q-23 0 -39 16t-16 39z" />
<glyph unicode="&#xc9;" d="M115 57v1479q0 25 16 41t39 16h399v170q0 25 16.5 41.5t41.5 16.5h112q25 0 41.5 -16.5t16.5 -41.5v-170h397q25 0 41 -16t16 -41v-115q0 -23 -16 -39t-41 -16h-852v-457h625q25 0 41 -16t16 -39v-115q0 -23 -16.5 -40t-40.5 -17h-625v-455h852q25 0 41 -16t16 -41v-113 q0 -25 -16 -41t-41 -16h-1024q-23 0 -39 16t-16 41zM797 1878v113q0 25 16 41t41 16h113q25 0 41 -16.5t16 -40.5v-113q0 -25 -16.5 -41t-40.5 -16h-113q-25 0 -41 16t-16 41z" />
<glyph unicode="&#xca;" d="M115 57v1479q0 25 16 41t39 16h172v170q0 25 16.5 41.5t38.5 16.5h115q25 0 41 -16.5t16 -41.5v-170h228v170q0 25 16 41.5t41 16.5h113q25 0 41 -16.5t16 -41.5v-170h170q25 0 41 -16t16 -41v-115q0 -23 -16 -39t-41 -16h-852v-457h625q25 0 41 -16t16 -39v-115 q0 -23 -16.5 -40t-40.5 -17h-625v-455h852q25 0 41 -16t16 -41v-113q0 -25 -16 -41t-41 -16h-1024q-23 0 -39 16t-16 41zM569 1878v113q0 25 16.5 41t41.5 16h112q25 0 41.5 -16.5t16.5 -40.5v-113q0 -25 -16.5 -41t-41.5 -16h-112q-25 0 -41.5 16t-16.5 41z" />
<glyph unicode="&#xcb;" d="M115 57v1479q0 25 16 41t39 16h1024q25 0 41 -16t16 -41v-115q0 -23 -16 -39t-41 -16h-852v-457h625q25 0 41 -16t16 -39v-115q0 -23 -16.5 -40t-40.5 -17h-625v-455h852q25 0 41 -16t16 -41v-113q0 -25 -16 -41t-41 -16h-1024q-23 0 -39 16t-16 41zM342 1878v113 q0 25 16.5 41t38.5 16h115q25 0 41 -16.5t16 -40.5v-113q0 -25 -16 -41t-41 -16h-115q-23 0 -39 16t-16 41zM797 1878v113q0 25 16 41t41 16h113q25 0 41 -16.5t16 -40.5v-113q0 -25 -16.5 -41t-40.5 -16h-113q-25 0 -41 16t-16 41z" />
<glyph unicode="&#xcc;" d="M115 57v113q0 25 16 41t39 16h399v1139h-172q-23 0 -39 16.5t-16 38.5v115q0 25 16.5 41t38.5 16h172v170q0 25 16.5 41.5t41.5 16.5h112q25 0 41.5 -16.5t16.5 -41.5v-170h170q25 0 41 -16t16 -41v-115q0 -23 -16.5 -39t-40.5 -16h-170v-1139h397q25 0 41 -16t16 -41 v-113q0 -25 -16 -41t-41 -16h-1024q-23 0 -39 16t-16 41zM342 1878v113q0 25 16.5 41t38.5 16h115q25 0 41 -16.5t16 -40.5v-113q0 -25 -16 -41t-41 -16h-115q-23 0 -39 16t-16 41z" />
<glyph unicode="&#xcd;" d="M115 57v113q0 25 16 41t39 16h399v1139h-172q-23 0 -39 16.5t-16 38.5v115q0 25 16.5 41t38.5 16h172v170q0 25 16.5 41.5t41.5 16.5h112q25 0 41.5 -16.5t16.5 -41.5v-170h170q25 0 41 -16t16 -41v-115q0 -23 -16.5 -39t-40.5 -16h-170v-1139h397q25 0 41 -16t16 -41 v-113q0 -25 -16 -41t-41 -16h-1024q-23 0 -39 16t-16 41zM797 1878v113q0 25 16 41t41 16h113q25 0 41 -16.5t16 -40.5v-113q0 -25 -16.5 -41t-40.5 -16h-113q-25 0 -41 16t-16 41z" />
<glyph unicode="&#xce;" d="M115 57v113q0 25 16 41t39 16h399v1139h-172q-23 0 -39 16.5t-16 38.5v342q0 25 16.5 41.5t38.5 16.5h115q23 0 40 -16.5t17 -41.5v-170h228v170q0 25 16 41.5t41 16.5h113q25 0 41 -16.5t16 -41.5v-342q0 -23 -16.5 -39t-40.5 -16h-170v-1139h397q25 0 41 -16t16 -41 v-113q0 -25 -16 -41t-41 -16h-1024q-23 0 -39 16t-16 41zM569 1878v113q0 25 16.5 41t41.5 16h112q25 0 41.5 -16.5t16.5 -40.5v-113q0 -25 -16.5 -41t-41.5 -16h-112q-25 0 -41.5 16t-16.5 41z" />
<glyph unicode="&#xcf;" d="M115 57v113q0 25 16 41t39 16h399v1139h-172q-23 0 -39 16.5t-16 38.5v115q0 25 16.5 41t38.5 16h570q25 0 41 -16t16 -41v-115q0 -23 -16.5 -39t-40.5 -16h-170v-1139h397q25 0 41 -16t16 -41v-113q0 -25 -16 -41t-41 -16h-1024q-23 0 -39 16t-16 41zM342 1878v113 q0 25 16.5 41t38.5 16h115q25 0 41 -16.5t16 -40.5v-113q0 -25 -16 -41t-41 -16h-115q-23 0 -39 16t-16 41zM797 1878v113q0 25 16 41t41 16h113q25 0 41 -16.5t16 -40.5v-113q0 -25 -16.5 -41t-40.5 -16h-113q-25 0 -41 16t-16 41z" />
<glyph unicode="&#xd0;" d="M115 57v1479q0 25 16 41t39 16h797q25 0 41 -16t16 -41v-115q0 -23 -16.5 -39t-40.5 -16h-625v-457h397q25 0 41.5 -16t16.5 -39v-115q0 -23 -16.5 -40t-41.5 -17h-397v-455h625q25 0 41 -16t16 -41v-113q0 -25 -16.5 -41t-40.5 -16h-797q-23 0 -39 16t-16 41zM1024 285 v1024q0 23 16.5 40t40.5 17h113q25 0 41 -17.5t16 -39.5v-1024q0 -25 -16 -41.5t-41 -16.5h-113q-25 0 -41 16.5t-16 41.5z" />
<glyph unicode="&#xd1;" d="M115 57v1706q0 25 16 41.5t39 16.5h115q23 0 40 -16.5t17 -41.5v-624h170q23 0 40 -17.5t17 -40.5v-114q0 -23 -17 -40.5t-40 -17.5h-170v-852q0 -25 -17.5 -41t-39.5 -16h-115q-23 0 -39 16t-16 41zM342 1878v113q0 25 16.5 41t38.5 16h115q23 0 40 -16.5t17 -40.5v-113 q0 -25 -17 -41t-40 -16h-115q-23 0 -39 16t-16 41zM569 739v115q0 23 16.5 39t41.5 16h112q25 0 41.5 -16t16.5 -39v-115q0 -23 -16.5 -40t-41.5 -17h-112q-25 0 -41.5 17t-16.5 40zM569 1651v112q0 25 16.5 41.5t41.5 16.5h112q25 0 41.5 -16.5t16.5 -41.5v-112 q0 -25 -16.5 -41.5t-41.5 -16.5h-112q-25 0 -41.5 16.5t-16.5 41.5zM797 512v115q0 23 16 39t41 16h170v684h-170q-25 0 -41 16.5t-16 38.5v115q0 23 16 40t41 17h170v170q0 25 16.5 41.5t40.5 16.5h113q25 0 41 -16.5t16 -41.5v-1706q0 -25 -16 -41t-41 -16h-113 q-25 0 -41 16.5t-16 40.5v398h-170q-25 0 -41 17t-16 40z" />
<glyph unicode="&#xd2;" d="M115 285v1024q0 23 16 40t39 17h115q23 0 40 -17.5t17 -39.5v-1024q0 -25 -17.5 -41.5t-39.5 -16.5h-115q-23 0 -39 16.5t-16 41.5zM342 57v113q0 25 16.5 41t38.5 16h570q25 0 41 -16t16 -41v-113q0 -25 -16.5 -41t-40.5 -16h-570q-23 0 -39 16t-16 41zM342 1421v115 q0 25 16.5 41t38.5 16h172v170q0 25 16.5 41.5t41.5 16.5h112q25 0 41.5 -16.5t16.5 -41.5v-170h170q25 0 41 -16t16 -41v-115q0 -23 -16.5 -39t-40.5 -16h-570q-23 0 -39 16t-16 39zM342 1878v113q0 25 16.5 41t38.5 16h115q25 0 41 -16.5t16 -40.5v-113q0 -25 -16 -41 t-41 -16h-115q-23 0 -39 16t-16 41zM1024 285v1024q0 23 16.5 40t40.5 17h113q25 0 41 -17.5t16 -39.5v-1024q0 -25 -16 -41.5t-41 -16.5h-113q-25 0 -41 16.5t-16 41.5z" />
<glyph unicode="&#xd3;" d="M115 285v1024q0 23 16 40t39 17h115q23 0 40 -17.5t17 -39.5v-1024q0 -25 -17.5 -41.5t-39.5 -16.5h-115q-23 0 -39 16.5t-16 41.5zM342 57v113q0 25 16.5 41t38.5 16h570q25 0 41 -16t16 -41v-113q0 -25 -16.5 -41t-40.5 -16h-570q-23 0 -39 16t-16 41zM342 1421v115 q0 25 16.5 41t38.5 16h172v170q0 25 16.5 41.5t41.5 16.5h112q25 0 41.5 -16.5t16.5 -41.5v-170h170q25 0 41 -16t16 -41v-115q0 -23 -16.5 -39t-40.5 -16h-570q-23 0 -39 16t-16 39zM797 1878v113q0 25 16 41t41 16h113q25 0 41 -16.5t16 -40.5v-113q0 -25 -16.5 -41 t-40.5 -16h-113q-25 0 -41 16t-16 41zM1024 285v1024q0 23 16.5 40t40.5 17h113q25 0 41 -17.5t16 -39.5v-1024q0 -25 -16 -41.5t-41 -16.5h-113q-25 0 -41 16.5t-16 41.5z" />
<glyph unicode="&#xd4;" d="M115 285v1024q0 23 16 40t39 17h115q23 0 40 -17.5t17 -39.5v-1024q0 -25 -17.5 -41.5t-39.5 -16.5h-115q-23 0 -39 16.5t-16 41.5zM342 57v113q0 25 16.5 41t38.5 16h570q25 0 41 -16t16 -41v-113q0 -25 -16.5 -41t-40.5 -16h-570q-23 0 -39 16t-16 41zM342 1421v342 q0 25 16.5 41.5t38.5 16.5h115q23 0 40 -16.5t17 -41.5v-170h228v170q0 25 16 41.5t41 16.5h113q25 0 41 -16.5t16 -41.5v-342q0 -23 -16.5 -39t-40.5 -16h-570q-23 0 -39 16t-16 39zM569 1878v113q0 25 16.5 41t41.5 16h112q25 0 41.5 -16.5t16.5 -40.5v-113 q0 -25 -16.5 -41t-41.5 -16h-112q-25 0 -41.5 16t-16.5 41zM1024 285v1024q0 23 16.5 40t40.5 17h113q25 0 41 -17.5t16 -39.5v-1024q0 -25 -16 -41.5t-41 -16.5h-113q-25 0 -41 16.5t-16 41.5z" />
<glyph unicode="&#xd5;" d="M115 285v1024q0 23 16 40t39 17h115q23 0 40 -17.5t17 -39.5v-1024q0 -25 -17.5 -41.5t-39.5 -16.5h-115q-23 0 -39 16.5t-16 41.5zM115 1651v112q0 25 16 41.5t39 16.5h115q23 0 40 -16.5t17 -41.5v-112q0 -25 -17.5 -41.5t-39.5 -16.5h-115q-23 0 -39 16.5t-16 41.5z M342 57v113q0 25 16.5 41t38.5 16h570q25 0 41 -16t16 -41v-113q0 -25 -16.5 -41t-40.5 -16h-570q-23 0 -39 16t-16 41zM342 1421v115q0 25 16.5 41t38.5 16h172v170q0 25 16.5 41.5t41.5 16.5h112q25 0 41.5 -16.5t16.5 -41.5v-170h170q25 0 41 -16t16 -41v-115 q0 -23 -16.5 -39t-40.5 -16h-570q-23 0 -39 16t-16 39zM342 1878v113q0 25 16.5 41t38.5 16h115q25 0 41 -16.5t16 -40.5v-113q0 -25 -16 -41t-41 -16h-115q-23 0 -39 16t-16 41zM1024 285v1024q0 23 16.5 40t40.5 17h113q25 0 41 -17.5t16 -39.5v-1024q0 -25 -16 -41.5 t-41 -16.5h-113q-25 0 -41 16.5t-16 41.5zM1024 1651v112q0 25 16.5 41.5t40.5 16.5h113q25 0 41 -16.5t16 -41.5v-112q0 -25 -16 -41.5t-41 -16.5h-113q-25 0 -41 16.5t-16 41.5z" />
<glyph unicode="&#xd6;" d="M115 285v1024q0 23 16 40t39 17h115q23 0 40 -17.5t17 -39.5v-1024q0 -25 -17.5 -41.5t-39.5 -16.5h-115q-23 0 -39 16.5t-16 41.5zM342 57v113q0 25 16.5 41t38.5 16h570q25 0 41 -16t16 -41v-113q0 -25 -16.5 -41t-40.5 -16h-570q-23 0 -39 16t-16 41zM342 1421v115 q0 25 16.5 41t38.5 16h570q25 0 41 -16t16 -41v-115q0 -23 -16.5 -39t-40.5 -16h-570q-23 0 -39 16t-16 39zM342 1878v113q0 25 16.5 41t38.5 16h115q25 0 41 -16.5t16 -40.5v-113q0 -25 -16 -41t-41 -16h-115q-23 0 -39 16t-16 41zM797 1878v113q0 25 16 41t41 16h113 q25 0 41 -16.5t16 -40.5v-113q0 -25 -16.5 -41t-40.5 -16h-113q-25 0 -41 16t-16 41zM1024 285v1024q0 23 16.5 40t40.5 17h113q25 0 41 -17.5t16 -39.5v-1024q0 -25 -16 -41.5t-41 -16.5h-113q-25 0 -41 16.5t-16 41.5z" />
<glyph unicode="&#xd7;" d="M115 285v112q0 25 16 41.5t39 16.5h115q23 0 40 -16.5t17 -41.5v-112q0 -25 -17.5 -41.5t-39.5 -16.5h-115q-23 0 -39 16.5t-16 41.5zM115 1194v115q0 23 16 40t39 17h115q23 0 40 -17.5t17 -39.5v-115q0 -23 -17.5 -39t-39.5 -16h-115q-23 0 -39 16t-16 39zM342 512v115 q0 23 16.5 39t38.5 16h115q25 0 41 -16.5t16 -38.5v-115q0 -25 -16 -41t-41 -16h-115q-23 0 -39 16t-16 41zM342 967v114q0 23 16.5 40.5t38.5 17.5h115q25 0 41 -17.5t16 -40.5v-114q0 -23 -16 -40.5t-41 -17.5h-115q-23 0 -39 17.5t-16 40.5zM569 739v115q0 23 16.5 39 t41.5 16h112q25 0 41.5 -16t16.5 -39v-115q0 -23 -16.5 -40t-41.5 -17h-112q-25 0 -41.5 17t-16.5 40zM797 512v115q0 23 16 39t41 16h113q25 0 41 -16.5t16 -38.5v-115q0 -25 -16.5 -41t-40.5 -16h-113q-25 0 -41 16t-16 41zM797 967v114q0 23 16 40.5t41 17.5h113 q25 0 41 -17.5t16 -40.5v-114q0 -23 -16.5 -40.5t-40.5 -17.5h-113q-25 0 -41 17.5t-16 40.5zM1024 285v112q0 25 16.5 41.5t40.5 16.5h113q25 0 41 -16.5t16 -41.5v-112q0 -25 -16 -41.5t-41 -16.5h-113q-25 0 -41 16.5t-16 41.5zM1024 1194v115q0 23 16.5 40t40.5 17h113 q25 0 41 -17.5t16 -39.5v-115q0 -23 -16 -39t-41 -16h-113q-25 0 -41 16t-16 39z" />
<glyph unicode="&#xd8;" d="M115 285v1024q0 23 16 40t39 17h115q23 0 40 -17.5t17 -39.5v-627h170q25 0 41 -16.5t16 -38.5v-115q0 -25 -16 -41t-41 -16h-170v-170q0 -25 -17.5 -41.5t-39.5 -16.5h-115q-23 0 -39 16.5t-16 41.5zM342 57v113q0 25 16.5 41t38.5 16h570q25 0 41 -16t16 -41v-113 q0 -25 -16.5 -41t-40.5 -16h-570q-23 0 -39 16t-16 41zM342 1421v115q0 25 16.5 41t38.5 16h570q25 0 41 -16t16 -41v-115q0 -23 -16.5 -39t-40.5 -16h-570q-23 0 -39 16t-16 39zM569 739v115q0 23 16.5 39t41.5 16h112q25 0 41.5 -16t16.5 -39v-115q0 -23 -16.5 -40 t-41.5 -17h-112q-25 0 -41.5 17t-16.5 40zM797 967v114q0 23 16 40.5t41 17.5h170v170q0 23 16.5 40t40.5 17h113q25 0 41 -17.5t16 -39.5v-1024q0 -25 -16 -41.5t-41 -16.5h-113q-25 0 -41 16.5t-16 41.5v624h-170q-25 0 -41 17.5t-16 40.5z" />
<glyph unicode="&#xd9;" d="M115 285v1251q0 25 16 41t39 16h115q23 0 40 -16t17 -41v-1251q0 -25 -17.5 -41.5t-39.5 -16.5h-115q-23 0 -39 16.5t-16 41.5zM342 57v113q0 25 16.5 41t38.5 16h570q25 0 41 -16t16 -41v-113q0 -25 -16.5 -41t-40.5 -16h-570q-23 0 -39 16t-16 41zM342 1878v113 q0 25 16.5 41t38.5 16h115q25 0 41 -16.5t16 -40.5v-113q0 -25 -16 -41t-41 -16h-115q-23 0 -39 16t-16 41zM569 1651v112q0 25 16.5 41.5t41.5 16.5h112q25 0 41.5 -16.5t16.5 -41.5v-112q0 -25 -16.5 -41.5t-41.5 -16.5h-112q-25 0 -41.5 16.5t-16.5 41.5zM1024 285v1251 q0 25 16.5 41t40.5 16h113q25 0 41 -16t16 -41v-1251q0 -25 -16 -41.5t-41 -16.5h-113q-25 0 -41 16.5t-16 41.5z" />
<glyph unicode="&#xda;" d="M115 285v1251q0 25 16 41t39 16h115q23 0 40 -16t17 -41v-1251q0 -25 -17.5 -41.5t-39.5 -16.5h-115q-23 0 -39 16.5t-16 41.5zM342 57v113q0 25 16.5 41t38.5 16h570q25 0 41 -16t16 -41v-113q0 -25 -16.5 -41t-40.5 -16h-570q-23 0 -39 16t-16 41zM569 1651v112 q0 25 16.5 41.5t41.5 16.5h112q25 0 41.5 -16.5t16.5 -41.5v-112q0 -25 -16.5 -41.5t-41.5 -16.5h-112q-25 0 -41.5 16.5t-16.5 41.5zM797 1878v113q0 25 16 41t41 16h113q25 0 41 -16.5t16 -40.5v-113q0 -25 -16.5 -41t-40.5 -16h-113q-25 0 -41 16t-16 41zM1024 285v1251 q0 25 16.5 41t40.5 16h113q25 0 41 -16t16 -41v-1251q0 -25 -16 -41.5t-41 -16.5h-113q-25 0 -41 16.5t-16 41.5z" />
<glyph unicode="&#xdb;" d="M115 285v1251q0 25 16 41t39 16h115q23 0 40 -16t17 -41v-1251q0 -25 -17.5 -41.5t-39.5 -16.5h-115q-23 0 -39 16.5t-16 41.5zM342 57v113q0 25 16.5 41t38.5 16h570q25 0 41 -16t16 -41v-113q0 -25 -16.5 -41t-40.5 -16h-570q-23 0 -39 16t-16 41zM342 1651v112 q0 25 16.5 41.5t38.5 16.5h115q25 0 41 -16.5t16 -41.5v-112q0 -25 -16 -41.5t-41 -16.5h-115q-23 0 -39 16.5t-16 41.5zM569 1878v113q0 25 16.5 41t41.5 16h112q25 0 41.5 -16.5t16.5 -40.5v-113q0 -25 -16.5 -41t-41.5 -16h-112q-25 0 -41.5 16t-16.5 41zM797 1651v112 q0 25 16 41.5t41 16.5h113q25 0 41 -16.5t16 -41.5v-112q0 -25 -16.5 -41.5t-40.5 -16.5h-113q-25 0 -41 16.5t-16 41.5zM1024 285v1251q0 25 16.5 41t40.5 16h113q25 0 41 -16t16 -41v-1251q0 -25 -16 -41.5t-41 -16.5h-113q-25 0 -41 16.5t-16 41.5z" />
<glyph unicode="&#xdc;" d="M115 285v1251q0 25 16 41t39 16h115q23 0 40 -16t17 -41v-1251q0 -25 -17.5 -41.5t-39.5 -16.5h-115q-23 0 -39 16.5t-16 41.5zM342 57v113q0 25 16.5 41t38.5 16h570q25 0 41 -16t16 -41v-113q0 -25 -16.5 -41t-40.5 -16h-570q-23 0 -39 16t-16 41zM342 1878v113 q0 25 16.5 41t38.5 16h115q25 0 41 -16.5t16 -40.5v-113q0 -25 -16 -41t-41 -16h-115q-23 0 -39 16t-16 41zM797 1878v113q0 25 16 41t41 16h113q25 0 41 -16.5t16 -40.5v-113q0 -25 -16.5 -41t-40.5 -16h-113q-25 0 -41 16t-16 41zM1024 285v1251q0 25 16.5 41t40.5 16h113 q25 0 41 -16t16 -41v-1251q0 -25 -16 -41.5t-41 -16.5h-113q-25 0 -41 16.5t-16 41.5z" />
<glyph unicode="&#xdd;" d="M115 1194v342q0 25 16 41t39 16h115q23 0 40 -16t17 -41v-342q0 -23 -17.5 -39t-39.5 -16h-115q-23 0 -39 16t-16 39zM342 967v114q0 23 16.5 40.5t38.5 17.5h115q25 0 41 -17.5t16 -40.5v-114q0 -23 -16 -40.5t-41 -17.5h-115q-23 0 -39 17.5t-16 40.5zM569 57v797 q0 23 16.5 39t41.5 16h112q25 0 41.5 -16t16.5 -39v-797q0 -25 -16.5 -41t-41.5 -16h-112q-25 0 -41.5 16t-16.5 41zM569 1651v112q0 25 16.5 41.5t41.5 16.5h112q25 0 41.5 -16.5t16.5 -41.5v-112q0 -25 -16.5 -41.5t-41.5 -16.5h-112q-25 0 -41.5 16.5t-16.5 41.5z M797 967v114q0 23 16 40.5t41 17.5h113q25 0 41 -17.5t16 -40.5v-114q0 -23 -16.5 -40.5t-40.5 -17.5h-113q-25 0 -41 17.5t-16 40.5zM797 1878v113q0 25 16 41t41 16h113q25 0 41 -16.5t16 -40.5v-113q0 -25 -16.5 -41t-40.5 -16h-113q-25 0 -41 16t-16 41zM1024 1194v342 q0 25 16.5 41t40.5 16h113q25 0 41 -16t16 -41v-342q0 -23 -16 -39t-41 -16h-113q-25 0 -41 16t-16 39z" />
<glyph unicode="&#xde;" d="M115 57v1479q0 23 16 40t39 17h115q23 0 40 -17t17 -40v-170h625q25 0 41 -17.5t16 -39.5v-115q0 -23 -16.5 -39t-40.5 -16h-625v-457h625q25 0 41 -16.5t16 -38.5v-115q0 -23 -16.5 -40t-40.5 -17h-625v-398q0 -25 -17.5 -41t-39.5 -16h-115q-23 0 -39 16t-16 41z M1024 739v342q0 23 16.5 40.5t40.5 17.5h113q25 0 41 -17.5t16 -40.5v-342q0 -23 -16 -40t-41 -17h-113q-25 0 -41 17t-16 40z" />
<glyph unicode="&#xdf;" d="M115 57v1252q0 23 16 40t39 17h115q23 0 40 -17.5t17 -39.5v-1252q0 -25 -17.5 -41t-39.5 -16h-115q-23 0 -39 16t-16 41zM342 1421v115q0 23 16.5 40t38.5 17h342q25 0 41.5 -17t16.5 -40v-115q0 -23 -16.5 -39t-41.5 -16h-342q-23 0 -39 16t-16 39zM569 57v113 q0 25 16.5 41t41.5 16h340q25 0 41 -16t16 -41v-113q0 -25 -16.5 -41t-40.5 -16h-340q-25 0 -41.5 16t-16.5 41zM569 739v342q0 23 16.5 40.5t41.5 17.5h112q25 0 41.5 -17.5t16.5 -40.5v-172h170q25 0 41 -16t16 -39v-115q0 -23 -16.5 -40t-40.5 -17h-340q-25 0 -41.5 17 t-16.5 40zM797 1194v115q0 23 16 40t41 17h113q25 0 41 -17.5t16 -39.5v-115q0 -23 -16.5 -39t-40.5 -16h-113q-25 0 -41 16t-16 39zM1024 285v342q0 23 16.5 39t40.5 16h113q25 0 41 -16.5t16 -38.5v-342q0 -25 -16 -41.5t-41 -16.5h-113q-25 0 -41 16.5t-16 41.5z" />
<glyph unicode="&#xe0;" d="M115 285v112q0 25 16 41.5t39 16.5h115q23 0 40 -16.5t17 -41.5v-112q0 -25 -17.5 -41.5t-39.5 -16.5h-115q-23 0 -39 16.5t-16 41.5zM342 57v113q0 25 16.5 41t38.5 16h627v228h-627q-23 0 -39 16t-16 41v115q0 23 16.5 39t38.5 16h627v172q0 23 16.5 39t40.5 16h113 q25 0 41 -16t16 -39v-797q0 -25 -16 -41t-41 -16h-797q-23 0 -39 16t-16 41zM342 967v114q0 23 16.5 40.5t38.5 17.5h172v170q0 23 16.5 40t41.5 17h112q25 0 41.5 -17.5t16.5 -39.5v-170h170q25 0 41 -17.5t16 -40.5v-114q0 -23 -16.5 -40.5t-40.5 -17.5h-570 q-23 0 -39 17.5t-16 40.5zM342 1421v115q0 25 16.5 41t38.5 16h115q25 0 41 -16t16 -41v-115q0 -23 -16 -39t-41 -16h-115q-23 0 -39 16t-16 39z" />
<glyph unicode="&#xe1;" d="M115 285v112q0 25 16 41.5t39 16.5h115q23 0 40 -16.5t17 -41.5v-112q0 -25 -17.5 -41.5t-39.5 -16.5h-115q-23 0 -39 16.5t-16 41.5zM342 57v113q0 25 16.5 41t38.5 16h627v228h-627q-23 0 -39 16t-16 41v115q0 23 16.5 39t38.5 16h627v172q0 23 16.5 39t40.5 16h113 q25 0 41 -16t16 -39v-797q0 -25 -16 -41t-41 -16h-797q-23 0 -39 16t-16 41zM342 967v114q0 23 16.5 40.5t38.5 17.5h172v170q0 23 16.5 40t41.5 17h112q25 0 41.5 -17.5t16.5 -39.5v-170h170q25 0 41 -17.5t16 -40.5v-114q0 -23 -16.5 -40.5t-40.5 -17.5h-570 q-23 0 -39 17.5t-16 40.5zM797 1421v115q0 25 16 41t41 16h113q25 0 41 -16t16 -41v-115q0 -23 -16.5 -39t-40.5 -16h-113q-25 0 -41 16t-16 39z" />
<glyph unicode="&#xe2;" d="M115 285v112q0 25 16 41.5t39 16.5h115q23 0 40 -16.5t17 -41.5v-112q0 -25 -17.5 -41.5t-39.5 -16.5h-115q-23 0 -39 16.5t-16 41.5zM342 57v113q0 25 16.5 41t38.5 16h627v228h-627q-23 0 -39 17t-16 40v115q0 23 16.5 39t38.5 16h627v172q0 23 16.5 39t40.5 16h113 q25 0 41 -16t16 -39v-797q0 -25 -16 -41t-41 -16h-797q-23 0 -39 16t-16 41zM342 967v342q0 23 16.5 40t38.5 17h115q23 0 40 -17.5t17 -39.5v-170h228v170q0 23 16 40t41 17h113q25 0 41 -17.5t16 -39.5v-342q0 -23 -16.5 -40.5t-40.5 -17.5h-570q-23 0 -39 17.5t-16 40.5z M569 1421v115q0 23 16.5 40t41.5 17h112q25 0 41.5 -17t16.5 -40v-115q0 -23 -16.5 -39t-41.5 -16h-112q-25 0 -41.5 16t-16.5 39z" />
<glyph unicode="&#xe3;" d="M115 285v112q0 25 16 41.5t39 16.5h115q23 0 40 -16.5t17 -41.5v-112q0 -25 -17.5 -41.5t-39.5 -16.5h-115q-23 0 -39 16.5t-16 41.5zM115 1194v115q0 23 16 40t39 17h115q23 0 40 -17.5t17 -39.5v-115q0 -23 -17.5 -39t-39.5 -16h-115q-23 0 -39 16t-16 39zM342 57v113 q0 25 16.5 41t38.5 16h627v228h-627q-23 0 -39 16t-16 41v115q0 23 16.5 39t38.5 16h627v172q0 23 16.5 39t40.5 16h113q25 0 41 -16t16 -39v-797q0 -25 -16 -41t-41 -16h-797q-23 0 -39 16t-16 41zM342 967v114q0 23 16.5 40.5t38.5 17.5h172v170q0 23 16.5 40t41.5 17h112 q25 0 41.5 -17.5t16.5 -39.5v-170h170q25 0 41 -17.5t16 -40.5v-114q0 -23 -16.5 -40.5t-40.5 -17.5h-570q-23 0 -39 17.5t-16 40.5zM342 1421v115q0 25 16.5 41t38.5 16h115q25 0 41 -16t16 -41v-115q0 -23 -16 -39t-41 -16h-115q-23 0 -39 16t-16 39zM1024 1194v115 q0 23 16.5 40t40.5 17h113q25 0 41 -17.5t16 -39.5v-115q0 -23 -16 -39t-41 -16h-113q-25 0 -41 16t-16 39z" />
<glyph unicode="&#xe4;" d="M115 285v112q0 25 16 41.5t39 16.5h115q23 0 40 -16.5t17 -41.5v-112q0 -25 -17.5 -41.5t-39.5 -16.5h-115q-23 0 -39 16.5t-16 41.5zM342 57v113q0 25 16.5 41t38.5 16h627v228h-627q-23 0 -39 16t-16 41v115q0 23 16.5 39t38.5 16h627v172q0 23 16.5 39t40.5 16h113 q25 0 41 -16t16 -39v-797q0 -25 -16 -41t-41 -16h-797q-23 0 -39 16t-16 41zM342 967v114q0 23 16.5 40.5t38.5 17.5h570q25 0 41 -17.5t16 -40.5v-114q0 -23 -16.5 -40.5t-40.5 -17.5h-570q-23 0 -39 17.5t-16 40.5zM342 1421v115q0 25 16.5 41t38.5 16h115q25 0 41 -16 t16 -41v-115q0 -23 -16 -39t-41 -16h-115q-23 0 -39 16t-16 39zM797 1421v115q0 25 16 41t41 16h113q25 0 41 -16t16 -41v-115q0 -23 -16.5 -39t-40.5 -16h-113q-25 0 -41 16t-16 39z" />
<glyph unicode="&#xe5;" d="M115 285v112q0 25 16 41.5t39 16.5h115q23 0 40 -16.5t17 -41.5v-112q0 -25 -17.5 -41.5t-39.5 -16.5h-115q-23 0 -39 16.5t-16 41.5zM342 57v113q0 25 16.5 41t38.5 16h627v228h-627q-23 0 -39 17t-16 40v115q0 23 16.5 39t38.5 16h627v172q0 23 16.5 39t40.5 16h113 q25 0 41 -16t16 -39v-797q0 -25 -16 -41t-41 -16h-797q-23 0 -39 16t-16 41zM342 967v342q0 23 16.5 40t38.5 17h115q23 0 40 -17.5t17 -39.5v-170h228v170q0 23 16 40t41 17h113q25 0 41 -17.5t16 -39.5v-342q0 -23 -16.5 -40.5t-40.5 -17.5h-570q-23 0 -39 17.5t-16 40.5z M569 1421v115q0 23 16.5 40t41.5 17h112q25 0 41.5 -17t16.5 -40v-115q0 -23 -16.5 -39t-41.5 -16h-112q-25 0 -41.5 16t-16.5 39z" />
<glyph unicode="&#xe6;" d="M115 285v112q0 25 16 41.5t39 16.5h115q23 0 40 -16.5t17 -41.5v-112q0 -23 -17.5 -40.5t-39.5 -17.5h-115q-23 0 -39 17.5t-16 40.5zM342 57v113q0 25 16.5 41t38.5 16h172v228h-172q-23 0 -39 17t-16 40v115q0 23 16.5 39t38.5 16h172v227h-172q-23 0 -39 17.5 t-16 40.5v114q0 23 16.5 40.5t38.5 17.5h570q25 0 41 -17.5t16 -40.5v-114q0 -23 -16.5 -40.5t-40.5 -17.5h-170v-227h227v172q0 23 16.5 39t40.5 16h113q25 0 41 -16t16 -39v-342q0 -23 -16 -40t-41 -17h-397v-228h397q25 0 41 -16t16 -41v-113q0 -25 -16 -41t-41 -16h-797 q-23 0 -39 16t-16 41z" />
<glyph unicode="&#xe7;" d="M115 285v569q0 23 16 39t39 16h115q23 0 40 -16t17 -39v-569q0 -25 -17.5 -41.5t-39.5 -16.5h-115q-23 0 -39 16.5t-16 41.5zM342 57v113q0 25 16.5 41t38.5 16h797q25 0 41 -16t16 -41v-113q0 -25 -16 -41t-41 -16h-397v-170q0 -25 -16.5 -41t-41.5 -16h-112 q-25 0 -41.5 16t-16.5 41v170h-172q-23 0 -39 16t-16 41zM342 -285q0 25 16.5 41.5t38.5 16.5h115q25 0 41 -16.5t16 -41.5v-112q0 -25 -16 -41.5t-41 -16.5h-115q-23 0 -39 16.5t-16 41.5v112zM342 967v114q0 23 16.5 40.5t38.5 17.5h797q25 0 41 -17.5t16 -40.5v-114 q0 -23 -16 -40.5t-41 -17.5h-797q-23 0 -39 17.5t-16 40.5z" />
<glyph unicode="&#xe8;" d="M115 285v569q0 23 16 39t39 16h115q23 0 40 -16t17 -39v-172h682v172q0 23 16.5 39t40.5 16h113q25 0 41 -16t16 -39v-342q0 -25 -16 -41t-41 -16h-852v-170q0 -25 -17.5 -41.5t-39.5 -16.5h-115q-23 0 -39 16.5t-16 41.5zM342 57v113q0 25 16.5 41t38.5 16h797 q25 0 41 -16t16 -41v-113q0 -25 -16 -41t-41 -16h-797q-23 0 -39 16t-16 41zM342 967v114q0 23 16.5 40.5t38.5 17.5h172v170q0 23 16.5 40t41.5 17h112q25 0 41.5 -17.5t16.5 -39.5v-170h170q25 0 41 -17.5t16 -40.5v-114q0 -23 -16.5 -40.5t-40.5 -17.5h-570 q-23 0 -39 17.5t-16 40.5zM342 1421v115q0 25 16.5 41t38.5 16h115q25 0 41 -16t16 -41v-115q0 -23 -16 -39t-41 -16h-115q-23 0 -39 16t-16 39z" />
<glyph unicode="&#xe9;" d="M115 285v569q0 23 16 39t39 16h115q23 0 40 -16t17 -39v-172h682v172q0 23 16.5 39t40.5 16h113q25 0 41 -16t16 -39v-342q0 -25 -16 -41t-41 -16h-852v-170q0 -25 -17.5 -41.5t-39.5 -16.5h-115q-23 0 -39 16.5t-16 41.5zM342 57v113q0 25 16.5 41t38.5 16h797 q25 0 41 -16t16 -41v-113q0 -25 -16 -41t-41 -16h-797q-23 0 -39 16t-16 41zM342 967v114q0 23 16.5 40.5t38.5 17.5h172v170q0 23 16.5 40t41.5 17h112q25 0 41.5 -17.5t16.5 -39.5v-170h170q25 0 41 -17.5t16 -40.5v-114q0 -23 -16.5 -40.5t-40.5 -17.5h-570 q-23 0 -39 17.5t-16 40.5zM797 1421v115q0 25 16 41t41 16h113q25 0 41 -16t16 -41v-115q0 -23 -16.5 -39t-40.5 -16h-113q-25 0 -41 16t-16 39z" />
<glyph unicode="&#xea;" d="M115 285v569q0 23 16 39t39 16h115q23 0 40 -16t17 -39v-172h682v172q0 23 16.5 39t40.5 16h113q25 0 41 -16t16 -39v-342q0 -23 -16 -40t-41 -17h-852v-170q0 -25 -17.5 -41.5t-39.5 -16.5h-115q-23 0 -39 16.5t-16 41.5zM342 57v113q0 25 16.5 41t38.5 16h797 q25 0 41 -16t16 -41v-113q0 -25 -16 -41t-41 -16h-797q-23 0 -39 16t-16 41zM342 967v342q0 23 16.5 40t38.5 17h115q23 0 40 -17.5t17 -39.5v-170h228v170q0 23 16 40t41 17h113q25 0 41 -17.5t16 -39.5v-342q0 -23 -16.5 -40.5t-40.5 -17.5h-570q-23 0 -39 17.5t-16 40.5z M569 1421v115q0 23 16.5 40t41.5 17h112q25 0 41.5 -17t16.5 -40v-115q0 -23 -16.5 -39t-41.5 -16h-112q-25 0 -41.5 16t-16.5 39z" />
<glyph unicode="&#xeb;" d="M115 285v569q0 23 16 39t39 16h115q23 0 40 -16t17 -39v-172h682v172q0 23 16.5 39t40.5 16h113q25 0 41 -16t16 -39v-342q0 -25 -16 -41t-41 -16h-852v-170q0 -25 -17.5 -41.5t-39.5 -16.5h-115q-23 0 -39 16.5t-16 41.5zM342 57v113q0 25 16.5 41t38.5 16h797 q25 0 41 -16t16 -41v-113q0 -25 -16 -41t-41 -16h-797q-23 0 -39 16t-16 41zM342 967v114q0 23 16.5 40.5t38.5 17.5h570q25 0 41 -17.5t16 -40.5v-114q0 -23 -16.5 -40.5t-40.5 -17.5h-570q-23 0 -39 17.5t-16 40.5zM342 1421v115q0 25 16.5 41t38.5 16h115q25 0 41 -16 t16 -41v-115q0 -23 -16 -39t-41 -16h-115q-23 0 -39 16t-16 39zM797 1421v115q0 25 16 41t41 16h113q25 0 41 -16t16 -41v-115q0 -23 -16.5 -39t-40.5 -16h-113q-25 0 -41 16t-16 39z" />
<glyph unicode="&#xec;" d="M115 57v113q0 25 16 41t39 16h399v682h-172q-23 0 -39 17.5t-16 40.5v114q0 23 16.5 40.5t38.5 17.5h172v170q0 23 16.5 40t41.5 17h112q25 0 41.5 -17.5t16.5 -39.5v-1082h397q25 0 41 -16t16 -41v-113q0 -25 -16 -41t-41 -16h-1024q-23 0 -39 16t-16 41zM342 1421v115 q0 23 16.5 40t38.5 17h115q23 0 40 -17t17 -40v-115q0 -23 -17 -39t-40 -16h-115q-23 0 -39 16t-16 39z" />
<glyph unicode="&#xed;" d="M115 57v113q0 25 16 41t39 16h399v682h-172q-23 0 -39 17.5t-16 40.5v114q0 23 16.5 40.5t38.5 17.5h172v170q0 23 16.5 40t41.5 17h112q25 0 41.5 -17.5t16.5 -39.5v-1082h397q25 0 41 -16t16 -41v-113q0 -25 -16 -41t-41 -16h-1024q-23 0 -39 16t-16 41zM797 1421v115 q0 23 16 40t41 17h113q25 0 41 -17t16 -40v-115q0 -23 -16.5 -39t-40.5 -16h-113q-25 0 -41 16t-16 39z" />
<glyph unicode="&#xee;" d="M115 57v113q0 25 16 41t39 16h399v682h-172q-23 0 -39 17.5t-16 40.5v342q0 23 16.5 40t38.5 17h115q23 0 40 -17.5t17 -39.5v-170h170q25 0 41.5 -17.5t16.5 -40.5v-854h397q25 0 41 -16t16 -41v-113q0 -25 -16 -41t-41 -16h-1024q-23 0 -39 16t-16 41zM569 1421v115 q0 23 16.5 40t41.5 17h112q25 0 41.5 -17t16.5 -40v-115q0 -23 -16.5 -39t-41.5 -16h-112q-25 0 -41.5 16t-16.5 39zM797 1194v115q0 23 16 40t41 17h113q25 0 41 -17.5t16 -39.5v-115q0 -23 -16.5 -39t-40.5 -16h-113q-25 0 -41 16t-16 39z" />
<glyph unicode="&#xef;" d="M115 57v113q0 25 16 41t39 16h399v682h-172q-23 0 -39 17.5t-16 40.5v114q0 23 16.5 40.5t38.5 17.5h342q25 0 41.5 -17.5t16.5 -40.5v-854h397q25 0 41 -16t16 -41v-113q0 -25 -16 -41t-41 -16h-1024q-23 0 -39 16t-16 41zM342 1421v115q0 25 16.5 41t38.5 16h115 q25 0 41 -16t16 -41v-115q0 -23 -16 -39t-41 -16h-115q-23 0 -39 16t-16 39zM797 1421v115q0 25 16 41t41 16h113q25 0 41 -16t16 -41v-115q0 -23 -16.5 -39t-40.5 -16h-113q-25 0 -41 16t-16 39z" />
<glyph unicode="&#xf0;" d="M115 285v342q0 23 16 39t39 16h115q23 0 40 -16.5t17 -38.5v-342q0 -25 -17.5 -41.5t-39.5 -16.5h-115q-23 0 -39 16.5t-16 41.5zM115 967v114q0 23 16 40.5t39 17.5h115q23 0 40 -17.5t17 -40.5v-114q0 -23 -17.5 -40.5t-39.5 -17.5h-115q-23 0 -39 17.5t-16 40.5z M115 1421v115q0 25 16 41t39 16h115q23 0 40 -16t17 -41v-115q0 -23 -17.5 -39t-39.5 -16h-115q-23 0 -39 16t-16 39zM342 57v113q0 25 16.5 41t38.5 16h570q25 0 41 -16t16 -41v-113q0 -25 -16.5 -41t-40.5 -16h-570q-23 0 -39 16t-16 41zM342 739v115q0 23 16.5 39 t38.5 16h172v172q0 23 16.5 40.5t41.5 17.5h112q25 0 41.5 -17.5t16.5 -40.5v-172h170q25 0 41 -16t16 -39v-115q0 -23 -16.5 -40t-40.5 -17h-570q-23 0 -39 17t-16 40zM342 1194v115q0 23 16.5 40t38.5 17h115q25 0 41 -17.5t16 -39.5v-115q0 -23 -16 -39t-41 -16h-115 q-23 0 -39 16t-16 39zM569 1421v115q0 25 16.5 41t41.5 16h112q25 0 41.5 -16t16.5 -41v-115q0 -23 -16.5 -39t-41.5 -16h-112q-25 0 -41.5 16t-16.5 39zM1024 285v342q0 23 16.5 39t40.5 16h113q25 0 41 -16.5t16 -38.5v-342q0 -25 -16 -41.5t-41 -16.5h-113 q-25 0 -41 16.5t-16 41.5z" />
<glyph unicode="&#xf1;" d="M115 57v1252q0 23 16 40t39 17h115q23 0 40 -17.5t17 -39.5v-170h227v170q0 23 16.5 40t41.5 17h112q25 0 41.5 -17.5t16.5 -39.5v-170h170q25 0 41 -17.5t16 -40.5v-114q0 -23 -16.5 -40.5t-40.5 -17.5h-625v-852q0 -25 -17.5 -41t-39.5 -16h-115q-23 0 -39 16t-16 41z M342 1421v115q0 23 16.5 40t38.5 17h115q23 0 40 -17t17 -40v-115q0 -23 -17 -39t-40 -16h-115q-23 0 -39 16t-16 39zM1024 57v797q0 23 16.5 39t40.5 16h113q25 0 41 -16t16 -39v-797q0 -25 -16 -41t-41 -16h-113q-25 0 -41 16t-16 41zM1024 1194v115q0 23 16.5 40t40.5 17 h113q25 0 41 -17.5t16 -39.5v-115q0 -23 -16 -39t-41 -16h-113q-25 0 -41 16t-16 39z" />
<glyph unicode="&#xf2;" d="M115 285v569q0 23 16 39t39 16h115q23 0 40 -16t17 -39v-569q0 -25 -17.5 -41.5t-39.5 -16.5h-115q-23 0 -39 16.5t-16 41.5zM342 57v113q0 25 16.5 41t38.5 16h570q25 0 41 -16t16 -41v-113q0 -25 -16.5 -41t-40.5 -16h-570q-23 0 -39 16t-16 41zM342 967v114 q0 23 16.5 40.5t38.5 17.5h172v170q0 23 16.5 40t41.5 17h112q25 0 41.5 -17.5t16.5 -39.5v-170h170q25 0 41 -17.5t16 -40.5v-114q0 -23 -16.5 -40.5t-40.5 -17.5h-570q-23 0 -39 17.5t-16 40.5zM342 1421v115q0 25 16.5 41t38.5 16h115q25 0 41 -16t16 -41v-115 q0 -23 -16 -39t-41 -16h-115q-23 0 -39 16t-16 39zM1024 285v569q0 23 16.5 39t40.5 16h113q25 0 41 -16t16 -39v-569q0 -25 -16 -41.5t-41 -16.5h-113q-25 0 -41 16.5t-16 41.5z" />
<glyph unicode="&#xf3;" d="M115 285v569q0 23 16 39t39 16h115q23 0 40 -16t17 -39v-569q0 -25 -17.5 -41.5t-39.5 -16.5h-115q-23 0 -39 16.5t-16 41.5zM342 57v113q0 25 16.5 41t38.5 16h570q25 0 41 -16t16 -41v-113q0 -25 -16.5 -41t-40.5 -16h-570q-23 0 -39 16t-16 41zM342 967v114 q0 23 16.5 40.5t38.5 17.5h172v170q0 23 16.5 40t41.5 17h112q25 0 41.5 -17.5t16.5 -39.5v-170h170q25 0 41 -17.5t16 -40.5v-114q0 -23 -16.5 -40.5t-40.5 -17.5h-570q-23 0 -39 17.5t-16 40.5zM797 1421v115q0 25 16 41t41 16h113q25 0 41 -16t16 -41v-115 q0 -23 -16.5 -39t-40.5 -16h-113q-25 0 -41 16t-16 39zM1024 285v569q0 23 16.5 39t40.5 16h113q25 0 41 -16t16 -39v-569q0 -25 -16 -41.5t-41 -16.5h-113q-25 0 -41 16.5t-16 41.5z" />
<glyph unicode="&#xf4;" d="M115 285v569q0 23 16 39t39 16h115q23 0 40 -16t17 -39v-569q0 -25 -17.5 -41.5t-39.5 -16.5h-115q-23 0 -39 16.5t-16 41.5zM342 57v113q0 25 16.5 41t38.5 16h570q25 0 41 -16t16 -41v-113q0 -25 -16.5 -41t-40.5 -16h-570q-23 0 -39 16t-16 41zM342 967v342 q0 23 16.5 40t38.5 17h115q23 0 40 -17.5t17 -39.5v-170h228v170q0 23 16 40t41 17h113q25 0 41 -17.5t16 -39.5v-342q0 -23 -16.5 -40.5t-40.5 -17.5h-570q-23 0 -39 17.5t-16 40.5zM569 1421v115q0 23 16.5 40t41.5 17h112q25 0 41.5 -17t16.5 -40v-115q0 -23 -16.5 -39 t-41.5 -16h-112q-25 0 -41.5 16t-16.5 39zM1024 285v569q0 23 16.5 39t40.5 16h113q25 0 41 -16t16 -39v-569q0 -25 -16 -41.5t-41 -16.5h-113q-25 0 -41 16.5t-16 41.5z" />
<glyph unicode="&#xf5;" d="M115 285v569q0 23 16 39t39 16h115q23 0 40 -16t17 -39v-569q0 -25 -17.5 -41.5t-39.5 -16.5h-115q-23 0 -39 16.5t-16 41.5zM115 1194v115q0 23 16 40t39 17h115q23 0 40 -17.5t17 -39.5v-115q0 -23 -17.5 -39t-39.5 -16h-115q-23 0 -39 16t-16 39zM342 57v113 q0 25 16.5 41t38.5 16h570q25 0 41 -16t16 -41v-113q0 -25 -16.5 -41t-40.5 -16h-570q-23 0 -39 16t-16 41zM342 967v114q0 23 16.5 40.5t38.5 17.5h172v170q0 23 16.5 40t41.5 17h112q25 0 41.5 -17.5t16.5 -39.5v-170h170q25 0 41 -17.5t16 -40.5v-114q0 -23 -16.5 -40.5 t-40.5 -17.5h-570q-23 0 -39 17.5t-16 40.5zM342 1421v115q0 25 16.5 41t38.5 16h115q25 0 41 -16t16 -41v-115q0 -23 -16 -39t-41 -16h-115q-23 0 -39 16t-16 39zM1024 285v569q0 23 16.5 39t40.5 16h113q25 0 41 -16t16 -39v-569q0 -25 -16 -41.5t-41 -16.5h-113 q-25 0 -41 16.5t-16 41.5zM1024 1194v115q0 23 16.5 40t40.5 17h113q25 0 41 -17.5t16 -39.5v-115q0 -23 -16 -39t-41 -16h-113q-25 0 -41 16t-16 39z" />
<glyph unicode="&#xf6;" d="M115 285v569q0 23 16 39t39 16h115q23 0 40 -16t17 -39v-569q0 -25 -17.5 -41.5t-39.5 -16.5h-115q-23 0 -39 16.5t-16 41.5zM342 57v113q0 25 16.5 41t38.5 16h570q25 0 41 -16t16 -41v-113q0 -25 -16.5 -41t-40.5 -16h-570q-23 0 -39 16t-16 41zM342 967v114 q0 23 16.5 40.5t38.5 17.5h570q25 0 41 -17.5t16 -40.5v-114q0 -23 -16.5 -40.5t-40.5 -17.5h-570q-23 0 -39 17.5t-16 40.5zM342 1421v115q0 25 16.5 41t38.5 16h115q25 0 41 -16t16 -41v-115q0 -23 -16 -39t-41 -16h-115q-23 0 -39 16t-16 39zM797 1421v115q0 25 16 41 t41 16h113q25 0 41 -16t16 -41v-115q0 -23 -16.5 -39t-40.5 -16h-113q-25 0 -41 16t-16 39zM1024 285v569q0 23 16.5 39t40.5 16h113q25 0 41 -16t16 -39v-569q0 -25 -16 -41.5t-41 -16.5h-113q-25 0 -41 16.5t-16 41.5z" />
<glyph unicode="&#xf7;" d="M115 739v115q0 23 16 39t39 16h1024q25 0 41 -16t16 -39v-115q0 -23 -16 -40t-41 -17h-1024q-23 0 -39 17t-16 40zM569 285v112q0 25 16.5 41.5t41.5 16.5h112q25 0 41.5 -16.5t16.5 -41.5v-112q0 -25 -16.5 -41.5t-41.5 -16.5h-112q-25 0 -41.5 16.5t-16.5 41.5z M569 1194v115q0 23 16.5 40t41.5 17h112q25 0 41.5 -17.5t16.5 -39.5v-115q0 -23 -16.5 -39t-41.5 -16h-112q-25 0 -41.5 16t-16.5 39z" />
<glyph unicode="&#xf8;" d="M115 285v569q0 23 16 39t39 16h115q23 0 40 -16t17 -39v-399h170q25 0 41 -16.5t16 -41.5v-170h398q25 0 41 -16t16 -41v-113q0 -25 -16.5 -41t-40.5 -16h-570q-23 0 -39 16.5t-16 40.5v113q0 25 -17.5 41t-39.5 16h-115q-23 0 -39 16.5t-16 41.5zM342 967v114 q0 23 16.5 40.5t38.5 17.5h570q25 0 41 -17.5t16 -40.5v-114q0 -23 16.5 -40.5t40.5 -17.5h113q25 0 41 -16t16 -39v-569q0 -25 -16 -41.5t-41 -16.5h-113q-25 0 -41 16.5t-16 41.5v397h-170q-25 0 -41 17.5t-16 39.5v170h-400q-23 0 -39 17.5t-16 40.5zM569 512v115 q0 23 16.5 39t41.5 16h112q25 0 41.5 -16.5t16.5 -38.5v-115q0 -25 -16.5 -41t-41.5 -16h-112q-25 0 -41.5 16t-16.5 41z" />
<glyph unicode="&#xf9;" d="M115 285v796q0 23 16 40.5t39 17.5h115q23 0 40 -17.5t17 -40.5v-796q0 -25 -17.5 -41.5t-39.5 -16.5h-115q-23 0 -39 16.5t-16 41.5zM342 57v113q0 25 16.5 41t38.5 16h627v854q0 23 16.5 40.5t40.5 17.5h113q25 0 41 -17.5t16 -40.5v-1024q0 -25 -16 -41t-41 -16h-797 q-23 0 -39 16t-16 41zM342 1421v115q0 25 16.5 41t38.5 16h115q25 0 41 -16t16 -41v-115q0 -23 -16 -39t-41 -16h-115q-23 0 -39 16t-16 39zM569 1194v115q0 23 16.5 40t41.5 17h112q25 0 41.5 -17.5t16.5 -39.5v-115q0 -23 -16.5 -39t-41.5 -16h-112q-25 0 -41.5 16 t-16.5 39z" />
<glyph unicode="&#xfa;" d="M115 285v796q0 23 16 40.5t39 17.5h115q23 0 40 -17.5t17 -40.5v-796q0 -25 -17.5 -41.5t-39.5 -16.5h-115q-23 0 -39 16.5t-16 41.5zM342 57v113q0 25 16.5 41t38.5 16h627v854q0 23 16.5 40.5t40.5 17.5h113q25 0 41 -17.5t16 -40.5v-1024q0 -25 -16 -41t-41 -16h-797 q-23 0 -39 16t-16 41zM569 1194v115q0 23 16.5 40t41.5 17h112q25 0 41.5 -17.5t16.5 -39.5v-115q0 -23 -16.5 -39t-41.5 -16h-112q-25 0 -41.5 16t-16.5 39zM797 1421v115q0 25 16 41t41 16h113q25 0 41 -16t16 -41v-115q0 -23 -16.5 -39t-40.5 -16h-113q-25 0 -41 16 t-16 39z" />
<glyph unicode="&#xfb;" d="M115 285v796q0 23 16 40.5t39 17.5h115q23 0 40 -17.5t17 -40.5v-796q0 -25 -17.5 -41.5t-39.5 -16.5h-115q-23 0 -39 16.5t-16 41.5zM342 57v113q0 25 16.5 41t38.5 16h627v854q0 23 16.5 40.5t40.5 17.5h113q25 0 41 -17.5t16 -40.5v-1024q0 -25 -16 -41t-41 -16h-797 q-23 0 -39 16t-16 41zM342 1194v115q0 23 16.5 40t38.5 17h115q25 0 41 -17.5t16 -39.5v-115q0 -23 -16 -39t-41 -16h-115q-23 0 -39 16t-16 39zM569 1421v115q0 25 16.5 41t41.5 16h112q25 0 41.5 -16t16.5 -41v-115q0 -23 -16.5 -39t-41.5 -16h-112q-25 0 -41.5 16 t-16.5 39zM797 1194v115q0 23 16 40t41 17h113q25 0 41 -17.5t16 -39.5v-115q0 -23 -16.5 -39t-40.5 -16h-113q-25 0 -41 16t-16 39z" />
<glyph unicode="&#xfc;" d="M115 285v796q0 23 16 40.5t39 17.5h115q23 0 40 -17.5t17 -40.5v-796q0 -25 -17.5 -41.5t-39.5 -16.5h-115q-23 0 -39 16.5t-16 41.5zM342 57v113q0 25 16.5 41t38.5 16h627v854q0 23 16.5 40.5t40.5 17.5h113q25 0 41 -17.5t16 -40.5v-1024q0 -25 -16 -41t-41 -16h-797 q-23 0 -39 16t-16 41zM342 1421v115q0 25 16.5 41t38.5 16h115q25 0 41 -16t16 -41v-115q0 -23 -16 -39t-41 -16h-115q-23 0 -39 16t-16 39zM797 1421v115q0 25 16 41t41 16h113q25 0 41 -16t16 -41v-115q0 -23 -16.5 -39t-40.5 -16h-113q-25 0 -41 16t-16 39z" />
<glyph unicode="&#xfd;" d="M115 285v796q0 23 16 40.5t39 17.5h115q23 0 40 -17.5t17 -40.5v-796q0 -25 -17.5 -41.5t-39.5 -16.5h-115q-23 0 -39 16.5t-16 41.5zM115 -285q0 25 16 41.5t39 16.5h797q25 0 41 -16.5t16 -41.5v-112q0 -25 -16.5 -41.5t-40.5 -16.5h-797q-23 0 -39 16.5t-16 41.5v112z M342 57v113q0 25 16.5 41t38.5 16h627v854q0 23 16.5 40.5t40.5 17.5h113q25 0 41 -17.5t16 -40.5v-1251q0 -25 -16 -41t-41 -16h-113q-25 0 -41 16t-16 41v170h-627q-23 0 -39 16t-16 41zM569 1194v115q0 23 16.5 40t41.5 17h112q25 0 41.5 -17.5t16.5 -39.5v-115 q0 -23 -16.5 -39t-41.5 -16h-112q-25 0 -41.5 16t-16.5 39zM797 1421v115q0 25 16 41t41 16h113q25 0 41 -16t16 -41v-115q0 -23 -16.5 -39t-40.5 -16h-113q-25 0 -41 16t-16 39z" />
<glyph unicode="&#xfe;" d="M115 -397v1933q0 23 16 40t39 17h115q23 0 40 -17t17 -40v-397h625q25 0 41 -17.5t16 -40.5v-114q0 -23 -16.5 -40.5t-40.5 -17.5h-625v-682h625q25 0 41 -16t16 -41v-113q0 -25 -16.5 -41t-40.5 -16h-625v-397q0 -25 -17.5 -41.5t-39.5 -16.5h-115q-23 0 -39 16.5 t-16 41.5zM1024 285v569q0 23 16.5 39t40.5 16h113q25 0 41 -16t16 -39v-569q0 -25 -16 -41.5t-41 -16.5h-113q-25 0 -41 16.5t-16 41.5z" />
<glyph unicode="&#xff;" d="M115 285v796q0 23 16 40.5t39 17.5h115q23 0 40 -17.5t17 -40.5v-796q0 -25 -17.5 -41.5t-39.5 -16.5h-115q-23 0 -39 16.5t-16 41.5zM115 -285q0 25 16 41.5t39 16.5h797q25 0 41 -16.5t16 -41.5v-112q0 -25 -16.5 -41.5t-40.5 -16.5h-797q-23 0 -39 16.5t-16 41.5v112z M342 57v113q0 25 16.5 41t38.5 16h627v854q0 23 16.5 40.5t40.5 17.5h113q25 0 41 -17.5t16 -40.5v-1251q0 -25 -16 -41t-41 -16h-113q-25 0 -41 16t-16 41v170h-627q-23 0 -39 16t-16 41zM342 1421v115q0 25 16.5 41t38.5 16h115q25 0 41 -16t16 -41v-115q0 -23 -16 -39 t-41 -16h-115q-23 0 -39 16t-16 39zM797 1421v115q0 25 16 41t41 16h113q25 0 41 -16t16 -41v-115q0 -23 -16.5 -39t-40.5 -16h-113q-25 0 -41 16t-16 39z" />
<glyph unicode="&#x152;" d="M115 285v1024q0 23 16 40t39 17h115q23 0 40 -17.5t17 -39.5v-1024q0 -25 -17.5 -41.5t-39.5 -16.5h-115q-23 0 -39 16.5t-16 41.5zM342 57v113q0 25 16.5 41t38.5 16h172v1139h-172q-23 0 -39 16.5t-16 38.5v115q0 25 16.5 41t38.5 16h797q25 0 41 -16t16 -41v-115 q0 -23 -16 -39t-41 -16h-397v-457h170q25 0 41 -16t16 -39v-115q0 -23 -16.5 -40t-40.5 -17h-170v-455h397q25 0 41 -16t16 -41v-113q0 -25 -16 -41t-41 -16h-797q-23 0 -39 16t-16 41z" />
<glyph unicode="&#x153;" d="M115 285v569q0 23 16 39t39 16h115q23 0 40 -16t17 -39v-569q0 -23 -17.5 -40.5t-39.5 -17.5h-115q-23 0 -39 17.5t-16 40.5zM342 57v113q0 25 16.5 41t38.5 16h172v682h-172q-23 0 -39 17.5t-16 40.5v114q0 23 16.5 40.5t38.5 17.5h570q25 0 41 -17.5t16 -40.5v-114 q0 -23 -16.5 -40.5t-40.5 -17.5h-170v-227h227v172q0 23 16.5 39t40.5 16h113q25 0 41 -16t16 -39v-342q0 -23 -16 -40t-41 -17h-397v-228h397q25 0 41 -16t16 -41v-113q0 -25 -16 -41t-41 -16h-797q-23 0 -39 16t-16 41z" />
<glyph unicode="&#x178;" d="M115 1194v342q0 25 16 41t39 16h115q23 0 40 -16t17 -41v-342q0 -23 -17.5 -39t-39.5 -16h-115q-23 0 -39 16t-16 39zM342 967v114q0 23 16.5 40.5t38.5 17.5h115q25 0 41 -17.5t16 -40.5v-114q0 -23 -16 -40.5t-41 -17.5h-115q-23 0 -39 17.5t-16 40.5zM342 1878v113 q0 25 16.5 41t38.5 16h115q25 0 41 -16.5t16 -40.5v-113q0 -25 -16 -41t-41 -16h-115q-23 0 -39 16t-16 41zM569 57v797q0 23 16.5 39t41.5 16h112q25 0 41.5 -16t16.5 -39v-797q0 -25 -16.5 -41t-41.5 -16h-112q-25 0 -41.5 16t-16.5 41zM797 967v114q0 23 16 40.5t41 17.5 h113q25 0 41 -17.5t16 -40.5v-114q0 -23 -16.5 -40.5t-40.5 -17.5h-113q-25 0 -41 17.5t-16 40.5zM797 1878v113q0 25 16 41t41 16h113q25 0 41 -16.5t16 -40.5v-113q0 -25 -16.5 -41t-40.5 -16h-113q-25 0 -41 16t-16 41zM1024 1194v342q0 25 16.5 41t40.5 16h113 q25 0 41 -16t16 -41v-342q0 -23 -16 -39t-41 -16h-113q-25 0 -41 16t-16 39z" />
<glyph unicode="&#x2c6;" d="M342 1194v115q0 23 16.5 40t38.5 17h115q25 0 41 -17.5t16 -39.5v-115q0 -23 -16 -39t-41 -16h-115q-23 0 -39 16t-16 39zM569 1421v115q0 25 16.5 41t41.5 16h112q25 0 41.5 -16t16.5 -41v-115q0 -23 -16.5 -39t-41.5 -16h-112q-25 0 -41.5 16t-16.5 39zM797 1194v115 q0 23 16 40t41 17h113q25 0 41 -17.5t16 -39.5v-115q0 -23 -16.5 -39t-40.5 -16h-113q-25 0 -41 16t-16 39z" />
<glyph unicode="&#x2dc;" d="M115 1194v115q0 23 16 40t39 17h115q23 0 40 -17.5t17 -39.5v-115q0 -23 -17.5 -39t-39.5 -16h-115q-23 0 -39 16t-16 39zM342 1421v115q0 25 16.5 41t38.5 16h115q25 0 41 -16t16 -41v-115q0 -23 -16 -39t-41 -16h-115q-23 0 -39 16t-16 39zM569 1194v115q0 23 16.5 40 t41.5 17h112q25 0 41.5 -17.5t16.5 -39.5v-115q0 -23 -16.5 -39t-41.5 -16h-112q-25 0 -41.5 16t-16.5 39zM797 967v114q0 23 16 40.5t41 17.5h113q25 0 41 -17.5t16 -40.5v-114q0 -23 -16.5 -40.5t-40.5 -17.5h-113q-25 0 -41 17.5t-16 40.5zM1024 1194v115q0 23 16.5 40 t40.5 17h113q25 0 41 -17.5t16 -39.5v-115q0 -23 -16 -39t-41 -16h-113q-25 0 -41 16t-16 39z" />
<glyph unicode="&#x2000;" horiz-adv-x="1024" />
<glyph unicode="&#x2001;" horiz-adv-x="2048" />
<glyph unicode="&#x2002;" horiz-adv-x="1024" />
<glyph unicode="&#x2003;" horiz-adv-x="2048" />
<glyph unicode="&#x2004;" horiz-adv-x="682" />
<glyph unicode="&#x2005;" horiz-adv-x="512" />
<glyph unicode="&#x2006;" horiz-adv-x="341" />
<glyph unicode="&#x2007;" horiz-adv-x="341" />
<glyph unicode="&#x2008;" horiz-adv-x="256" />
<glyph unicode="&#x2009;" horiz-adv-x="409" />
<glyph unicode="&#x200a;" horiz-adv-x="113" />
<glyph unicode="&#x2010;" d="M115 512v115q0 23 16 39t39 16h1024q25 0 41 -16.5t16 -38.5v-115q0 -25 -16 -41t-41 -16h-1024q-23 0 -39 16t-16 41z" />
<glyph unicode="&#x2011;" d="M115 512v115q0 23 16 39t39 16h1024q25 0 41 -16.5t16 -38.5v-115q0 -25 -16 -41t-41 -16h-1024q-23 0 -39 16t-16 41z" />
<glyph unicode="&#x2012;" d="M115 512v115q0 23 16 39t39 16h1024q25 0 41 -16.5t16 -38.5v-115q0 -25 -16 -41t-41 -16h-1024q-23 0 -39 16t-16 41z" />
<glyph unicode="&#x2013;" d="M115 512v115q0 23 16 39t39 16h1024q25 0 41 -16.5t16 -38.5v-115q0 -25 -16 -41t-41 -16h-1024q-23 0 -39 16t-16 41z" />
<glyph unicode="&#x2014;" d="M115 512v115q0 23 16 39t39 16h1024q25 0 41 -16.5t16 -38.5v-115q0 -25 -16 -41t-41 -16h-1024q-23 0 -39 16t-16 41z" />
<glyph unicode="&#x2018;" d="M569 739v570q0 23 16.5 40t41.5 17h112q25 0 41.5 -17.5t16.5 -39.5v-170h170q25 0 41 -17.5t16 -40.5v-342q0 -23 -16.5 -40t-40.5 -17h-340q-25 0 -41.5 17t-16.5 40zM797 1421v115q0 25 16 41t41 16h113q25 0 41 -16t16 -41v-115q0 -23 -16.5 -39t-40.5 -16h-113 q-25 0 -41 16t-16 39z" />
<glyph unicode="&#x2019;" d="M342 739v115q0 23 16.5 39t38.5 16h115q25 0 41 -16t16 -39v-115q0 -23 -16 -40t-41 -17h-115q-23 0 -39 17t-16 40zM342 1194v342q0 25 16.5 41t38.5 16h342q25 0 41.5 -16t16.5 -41v-569q0 -23 -16.5 -40.5t-41.5 -17.5h-112q-25 0 -41.5 17.5t-16.5 40.5v172h-172 q-23 0 -39 16t-16 39z" />
<glyph unicode="&#x201a;" d="M342 57v340q0 25 16.5 41.5t38.5 16.5h342q25 0 41.5 -16.5t16.5 -41.5v-567q0 -25 -16.5 -41t-41.5 -16h-112q-25 0 -41.5 16t-16.5 41v170h-172q-23 0 -39 16t-16 41zM342 -285q0 25 16.5 41.5t38.5 16.5h115q25 0 41 -16.5t16 -41.5v-112q0 -25 -16 -41.5t-41 -16.5 h-115q-23 0 -39 16.5t-16 41.5v112z" />
<glyph unicode="&#x201c;" d="M115 739v570q0 23 16 40t39 17h115q23 0 40 -17.5t17 -39.5v-170h170q25 0 41 -17.5t16 -40.5v-342q0 -23 -16 -40t-41 -17h-342q-23 0 -39 17t-16 40zM342 1421v115q0 25 16.5 41t38.5 16h115q25 0 41 -16t16 -41v-115q0 -23 -16 -39t-41 -16h-115q-23 0 -39 16t-16 39z M797 739v570q0 23 16 40t41 17h113q25 0 41 -17.5t16 -39.5v-170h170q25 0 41 -17.5t16 -40.5v-342q0 -23 -16 -40t-41 -17h-340q-25 0 -41 17t-16 40zM1024 1421v115q0 25 16.5 41t40.5 16h113q25 0 41 -16t16 -41v-115q0 -23 -16 -39t-41 -16h-113q-25 0 -41 16t-16 39z " />
<glyph unicode="&#x201d;" d="M115 739v115q0 23 16 39t39 16h115q23 0 40 -16t17 -39v-115q0 -23 -17.5 -40t-39.5 -17h-115q-23 0 -39 17t-16 40zM115 1194v342q0 25 16 41t39 16h342q25 0 41 -16t16 -41v-569q0 -23 -16 -40.5t-41 -17.5h-115q-23 0 -39 17.5t-16 40.5v172h-172q-23 0 -39 16t-16 39 zM797 739v115q0 23 16 39t41 16h113q25 0 41 -16t16 -39v-115q0 -23 -16.5 -40t-40.5 -17h-113q-25 0 -41 17t-16 40zM797 1194v342q0 25 16 41t41 16h340q25 0 41 -16t16 -41v-569q0 -23 -16 -40.5t-41 -17.5h-113q-25 0 -41 17.5t-16 40.5v172h-170q-25 0 -41 16t-16 39z " />
<glyph unicode="&#x201e;" d="M115 57v340q0 25 16 41.5t39 16.5h342q25 0 41 -16.5t16 -41.5v-567q0 -25 -16 -41t-41 -16h-115q-23 0 -39 16t-16 41v170h-172q-23 0 -39 16t-16 41zM115 -285q0 25 16 41.5t39 16.5h115q23 0 40 -16.5t17 -41.5v-112q0 -25 -17.5 -41.5t-39.5 -16.5h-115 q-23 0 -39 16.5t-16 41.5v112zM797 57v340q0 25 16 41.5t41 16.5h340q25 0 41 -16.5t16 -41.5v-567q0 -25 -16 -41t-41 -16h-113q-25 0 -41 16t-16 41v170h-170q-25 0 -41 16t-16 41zM797 -285q0 25 16 41.5t41 16.5h113q25 0 41 -16.5t16 -41.5v-112q0 -25 -16.5 -41.5 t-40.5 -16.5h-113q-25 0 -41 16.5t-16 41.5v112z" />
<glyph unicode="&#x2022;" d="M682 739v342q0 23 17.5 40.5t39.5 17.5h342q23 0 40.5 -17.5t17.5 -40.5v-342q0 -23 -17.5 -40t-40.5 -17h-342q-23 0 -40 17t-17 40z" />
<glyph unicode="&#x2026;" d="M227 57v340q0 25 16.5 41.5t41.5 16.5h112q25 0 41.5 -16.5t16.5 -41.5v-340q0 -25 -16.5 -41t-41.5 -16h-112q-25 0 -41.5 16t-16.5 41zM682 57v340q0 25 17.5 41.5t39.5 16.5h115q23 0 39 -16.5t16 -41.5v-340q0 -25 -16 -41t-39 -16h-115q-23 0 -40 16t-17 41z M1139 57v340q0 25 16 41.5t39 16.5h115q23 0 40 -16.5t17 -41.5v-340q0 -25 -17.5 -41t-39.5 -16h-115q-23 0 -39 16t-16 41z" />
<glyph unicode="&#x202f;" horiz-adv-x="409" />
<glyph unicode="&#x2039;" d="M342 739v115q0 23 16.5 39t38.5 16h115q25 0 41 -16t16 -39v-115q0 -23 -16 -40t-41 -17h-115q-23 0 -39 17t-16 40zM569 512v115q0 23 16.5 39t41.5 16h112q25 0 41.5 -16.5t16.5 -38.5v-115q0 -25 -16.5 -41t-41.5 -16h-112q-25 0 -41.5 16t-16.5 41zM569 967v114 q0 23 16.5 40.5t41.5 17.5h112q25 0 41.5 -17.5t16.5 -40.5v-114q0 -23 -16.5 -40.5t-41.5 -17.5h-112q-25 0 -41.5 17.5t-16.5 40.5zM797 285v112q0 25 16 41.5t41 16.5h113q25 0 41 -16.5t16 -41.5v-112q0 -25 -16.5 -41.5t-40.5 -16.5h-113q-25 0 -41 16.5t-16 41.5z M797 1194v115q0 23 16 40t41 17h113q25 0 41 -17.5t16 -39.5v-115q0 -23 -16.5 -39t-40.5 -16h-113q-25 0 -41 16t-16 39zM1024 57v113q0 25 16.5 41t40.5 16h113q25 0 41 -16t16 -41v-113q0 -25 -16 -41t-41 -16h-113q-25 0 -41 16t-16 41zM1024 1421v115q0 25 16.5 41 t40.5 16h113q25 0 41 -16t16 -41v-115q0 -23 -16 -39t-41 -16h-113q-25 0 -41 16t-16 39z" />
<glyph unicode="&#x203a;" d="M115 57v113q0 25 16 41t39 16h115q23 0 40 -16t17 -41v-113q0 -25 -17.5 -41t-39.5 -16h-115q-23 0 -39 16t-16 41zM115 1421v115q0 25 16 41t39 16h115q23 0 40 -16t17 -41v-115q0 -23 -17.5 -39t-39.5 -16h-115q-23 0 -39 16t-16 39zM342 285v112q0 25 16.5 41.5 t38.5 16.5h115q25 0 41 -16.5t16 -41.5v-112q0 -25 -16 -41.5t-41 -16.5h-115q-23 0 -39 16.5t-16 41.5zM342 1194v115q0 23 16.5 40t38.5 17h115q25 0 41 -17.5t16 -39.5v-115q0 -23 -16 -39t-41 -16h-115q-23 0 -39 16t-16 39zM569 512v115q0 23 16.5 39t41.5 16h112 q25 0 41.5 -16.5t16.5 -38.5v-115q0 -25 -16.5 -41t-41.5 -16h-112q-25 0 -41.5 16t-16.5 41zM569 967v114q0 23 16.5 40.5t41.5 17.5h112q25 0 41.5 -17.5t16.5 -40.5v-114q0 -23 -16.5 -40.5t-41.5 -17.5h-112q-25 0 -41.5 17.5t-16.5 40.5zM797 739v115q0 23 16 39t41 16 h113q25 0 41 -16t16 -39v-115q0 -23 -16.5 -40t-40.5 -17h-113q-25 0 -41 17t-16 40z" />
<glyph unicode="&#x205f;" horiz-adv-x="512" />
<glyph unicode="&#x20ac;" d="M115 512v115q0 23 16 39t39 16h172v227h-172q-23 0 -39 17.5t-16 40.5v114q0 23 16 40.5t39 17.5h172v170q0 23 16.5 40t38.5 17h115q25 0 41 -17.5t16 -39.5v-170h398q25 0 41 -17.5t16 -40.5v-114q0 -23 -16.5 -40.5t-40.5 -17.5h-398v-227h170q25 0 41.5 -16.5 t16.5 -38.5v-115q0 -25 -16.5 -41t-41.5 -16h-170v-170q0 -25 -16 -41.5t-41 -16.5h-115q-23 0 -39 16.5t-16 41.5v170h-172q-23 0 -39 16t-16 41zM569 57v113q0 25 16.5 41t41.5 16h567q25 0 41 -16t16 -41v-113q0 -25 -16 -41t-41 -16h-567q-25 0 -41.5 16t-16.5 41z M569 1421v115q0 25 16.5 41t41.5 16h567q25 0 41 -16t16 -41v-115q0 -23 -16 -39t-41 -16h-567q-25 0 -41.5 16t-16.5 39z" />
<glyph unicode="&#x2122;" d="M115 57v797q0 23 16 39t39 16h115q23 0 40 -16t17 -39v-172h170q25 0 41 -16.5t16 -38.5v-115q0 -25 -16 -41t-41 -16h-170v-398q0 -25 -17.5 -41t-39.5 -16h-115q-23 0 -39 16t-16 41zM115 1421v115q0 25 16 41t39 16h1024q25 0 41 -16t16 -41v-115q0 -23 -16 -39 t-41 -16h-397v-627q0 -23 -16.5 -40t-41.5 -17h-112q-25 0 -41.5 17.5t-16.5 39.5v627h-399q-23 0 -39 16t-16 39zM569 285v112q0 25 16.5 41.5t41.5 16.5h112q25 0 41.5 -16.5t16.5 -41.5v-112q0 -25 -16.5 -41.5t-41.5 -16.5h-112q-25 0 -41.5 16.5t-16.5 41.5zM797 512 v115q0 23 16 39t41 16h170v172q0 23 16.5 39t40.5 16h113q25 0 41 -16t16 -39v-797q0 -25 -16 -41t-41 -16h-113q-25 0 -41 16.5t-16 40.5v398h-170q-25 0 -41 16t-16 41z" />
<glyph unicode="&#xe000;" horiz-adv-x="1140" d="M0 0v1140h1140v-1140h-1140z" />
<glyph unicode="&#xfb01;" d="M115 57v1252q0 23 16 40t39 17h115q23 0 40 -17.5t17 -39.5v-170h397h228q25 0 41 -17.5t16 -40.5v-854h170q25 0 41 -16t16 -41v-113q0 -25 -16 -41t-41 -16h-567q-25 0 -41.5 16.5t-16.5 40.5v113q0 25 16.5 41t41.5 16h170v682h-455v-852q0 -25 -17.5 -41t-39.5 -16 h-115q-23 0 -39 16t-16 41zM342 1421v115q0 23 16.5 40t38.5 17h342q25 0 41.5 -17t16.5 -40v-115q0 -23 -16.5 -39t-41.5 -16h-342q-23 0 -39 16t-16 39z" />
<glyph unicode="&#xfb02;" d="M115 57v1252q0 23 16 40t39 17h115q23 0 40 -17.5t17 -39.5v-170h170q23 0 40 -17.5t17 -40.5v-114q0 -23 -17 -40.5t-40 -17.5h-170v-852q0 -25 -17.5 -41t-39.5 -16h-115q-23 0 -39 16t-16 41zM342 1421v115q0 23 16.5 40t38.5 17h570q25 0 41 -17t16 -40v-1309h170 q25 0 41 -16t16 -41v-113q0 -25 -16 -41t-41 -16h-567q-25 0 -41.5 16.5t-16.5 40.5v113q0 25 16.5 41t41.5 16h170v1139h-400q-23 0 -39 16t-16 39z" />
<glyph unicode="&#xfb03;" horiz-adv-x="4098" d="M115 967v114q0 23 16 40.5t39 17.5h399v170q0 23 16.5 40t41.5 17h112q25 0 41.5 -17.5t16.5 -39.5v-170h397q25 0 41 -17.5t16 -40.5v-114q0 -23 -16 -40.5t-41 -17.5h-397v-852q0 -25 -16.5 -41t-41.5 -16h-112q-25 0 -41.5 16.5t-16.5 40.5v852h-399q-23 0 -39 17.5 t-16 40.5zM797 1421v115q0 25 16 41t41 16h340q25 0 41 -16t16 -41v-115q0 -23 -16 -39t-41 -16h-340q-25 0 -41 16t-16 39zM1481 967v114q0 23 16 40.5t39 17.5h399v170q0 23 16.5 40t41.5 17h112q25 0 41.5 -17.5t16.5 -39.5v-170h397q25 0 41 -17.5t16 -40.5v-114 q0 -23 -16 -40.5t-41 -17.5h-397v-852q0 -25 -16.5 -41t-41.5 -16h-112q-25 0 -41.5 16.5t-16.5 40.5v852h-399q-23 0 -39 17.5t-16 40.5zM2163 1421v115q0 25 16 41t41 16h340q25 0 41 -16t16 -41v-115q0 -23 -16 -39t-41 -16h-340q-25 0 -41 16t-16 39zM2847 57v113 q0 25 16 41t39 16h399v682h-172q-23 0 -39 17.5t-16 40.5v114q0 23 16.5 40.5t38.5 17.5h342q25 0 41.5 -17.5t16.5 -40.5v-854h397q25 0 41 -16t16 -41v-113q0 -25 -16 -41t-41 -16h-1024q-23 0 -39 16t-16 41zM3301 1421v115q0 25 16.5 41t41.5 16h112q25 0 41.5 -16 t16.5 -41v-115q0 -23 -16.5 -39t-41.5 -16h-112q-25 0 -41.5 16t-16.5 39z" />
<glyph unicode="&#xfb04;" horiz-adv-x="4098" d="M115 967v114q0 23 16 40.5t39 17.5h399v170q0 23 16.5 40t41.5 17h112q25 0 41.5 -17.5t16.5 -39.5v-170h397q25 0 41 -17.5t16 -40.5v-114q0 -23 -16 -40.5t-41 -17.5h-397v-852q0 -25 -16.5 -41t-41.5 -16h-112q-25 0 -41.5 16.5t-16.5 40.5v852h-399q-23 0 -39 17.5 t-16 40.5zM797 1421v115q0 25 16 41t41 16h340q25 0 41 -16t16 -41v-115q0 -23 -16 -39t-41 -16h-340q-25 0 -41 16t-16 39zM1481 967v114q0 23 16 40.5t39 17.5h399v170q0 23 16.5 40t41.5 17h112q25 0 41.5 -17.5t16.5 -39.5v-170h397q25 0 41 -17.5t16 -40.5v-114 q0 -23 -16 -40.5t-41 -17.5h-397v-852q0 -25 -16.5 -41t-41.5 -16h-112q-25 0 -41.5 16.5t-16.5 40.5v852h-399q-23 0 -39 17.5t-16 40.5zM2163 1421v115q0 25 16 41t41 16h340q25 0 41 -16t16 -41v-115q0 -23 -16 -39t-41 -16h-340q-25 0 -41 16t-16 39zM2847 57v113 q0 25 16 41t39 16h399v1139h-172q-23 0 -39 16.5t-16 38.5v115q0 25 16.5 41t38.5 16h342q25 0 41.5 -16t16.5 -41v-1309h397q25 0 41 -16t16 -41v-113q0 -25 -16 -41t-41 -16h-1024q-23 0 -39 16t-16 41z" />
</font>
</defs>
</svg>
