<svg xmlns:rdf="http://www.w3.org/1999/02/22-rdf-syntax-ns#" xmlns="http://www.w3.org/2000/svg" height="70" width="118" version="1.1" xmlns:cc="http://creativecommons.org/ns#" xmlns:xlink="http://www.w3.org/1999/xlink" xmlns:dc="http://purl.org/dc/elements/1.1/">
	<g id="g4366">
		<rect id="rect3463" height="10" width="10" y="0" x="0" fill="#F00"/>
		<use xlink:href="#rect3463" transform="translate(12,0)" height="70" width="118" y="0" x="0"/>
		<use xlink:href="#rect3463" transform="translate(12,12)" height="70" width="118" y="0" x="0"/>
		<use xlink:href="#rect3463" transform="translate(24,12)" height="70" width="118" y="0" x="0"/>
	</g>
	<g id="g4360">
		<rect id="rect4344" height="10" width="10" y="0" x="36" fill="#A0F"/>
		<use xlink:href="#rect4344" transform="translate(12,0)" height="70" width="118" y="0" x="0"/>
		<use xlink:href="#rect4344" transform="translate(12,12)" height="70" width="118" y="0" x="0"/>
		<use xlink:href="#rect4344" transform="translate(24,0)" height="70" width="118" y="0" x="0"/>
	</g>
	<g id="g4426">
		<rect id="rect4410" height="10" width="10" y="0" x="72" fill="#0FF"/>
		<use xlink:href="#rect4410" transform="translate(0,12)" height="70" width="118" y="0" x="0"/>
		<use xlink:href="#rect4410" transform="translate(0,24)" height="70" width="118" y="0" x="0"/>
		<use xlink:href="#rect4410" transform="translate(0,36)" height="70" width="118" y="0" x="0"/>
	</g>
	<rect id="rect4432" height="10" width="10" y="0" x="84" fill="#FF0"/>
	<use xlink:href="#rect4432" transform="translate(12,0)" height="70" width="118" y="0" x="0"/>
	<use xlink:href="#rect4432" transform="translate(0,12)" height="70" width="118" y="0" x="0"/>
	<use xlink:href="#rect4432" transform="translate(12,12)" height="70" width="118" y="0" x="0"/>
	<g id="g4454" transform="translate(-14,0)">
		<rect id="rect4440" height="10" width="10" y="0" x="122" fill="#00F"/>
		<use xlink:href="#rect4440" transform="translate(0,12)" height="70" width="118" y="0" x="0"/>
		<use xlink:href="#rect4440" transform="translate(0,24)" height="70" width="118" y="0" x="0"/>
		<use xlink:href="#rect4440" transform="translate(-12,24)" height="70" width="118" y="0" x="0"/>
	</g>
	<use xlink:href="#g4454" transform="matrix(0,1,-1,0,34,-84)" height="70" width="118" y="0" x="0"/>
	<g transform="translate(2,-28)">
		<rect id="rect4521" height="10" width="10" y="40" x="34" fill="#0F0"/>
		<use xlink:href="#rect4521" transform="translate(0,12)" height="70" width="118" y="0" x="0"/>
		<use xlink:href="#rect4521" transform="translate(12,12)" height="70" width="118" y="0" x="0"/>
		<use xlink:href="#rect4521" transform="translate(12,24)" height="70" width="118" y="0" x="0"/>
	</g>
	<g transform="translate(30,-26)">
		<rect id="rect4535" height="10" width="10" y="50" x="30" fill="#ffa500"/>
		<use xlink:href="#rect4535" transform="translate(0,12)" height="70" width="118" y="0" x="0"/>
		<use xlink:href="#rect4535" transform="translate(0,24)" height="70" width="118" y="0" x="0"/>
		<use xlink:href="#rect4535" transform="translate(12,24)" height="70" width="118" y="0" x="0"/>
	</g>
	<use xlink:href="#g4366" transform="translate(84,36)" height="70" width="118" y="0" x="0"/>
	<use xlink:href="#g4426" transform="matrix(0,1,-1,0,46,-36)" height="70" width="118" y="0" x="0"/>
	<use xlink:href="#g4360" transform="matrix(-1,0,0,-1,70,70)" height="70" width="118" y="0" x="0"/>
	<use xlink:href="#g4454" transform="matrix(0,-1,1,0,24,166)" height="70" width="118" y="0" x="0"/>
</svg>
