<svg xmlns="http://www.w3.org/2000/svg" width="37" height="36" viewBox="0 0 37 36">
    <title>LinkedIn</title>
    <path fill="#FFF" fill-rule="evenodd" d="M31.177 30.676H25.84V22.32c0-1.99-.035-4.554-2.776-4.554-2.777 0-3.2 2.17-3.2 4.413l-.002 8.494H14.53v-17.18h5.118v2.35h.073c.715-1.352 2.458-2.776 5.055-2.776 5.405 0 6.404 3.556 6.404 8.183v9.423zM8.51 11.15c-1.717 0-3.1-1.39-3.1-3.1s1.38-3.096 3.096-3.096c1.71 0 3.096 1.387 3.096 3.096 0 1.71-1.387 3.097-3.095 3.097h-.002zm-2.675 2.346h5.345v17.18H5.835v-17.18zM33.837 0H3.157C1.69 0 .5 1.162.5 2.596v30.806C.5 34.836 1.692 36 3.157 36h30.68c1.47 0 2.663-1.164 2.663-2.598V2.596C36.5 1.162 35.305 0 33.837 0z"/>
</svg>
