<svg xmlns="http://www.w3.org/2000/svg" width="40" height="33" viewBox="0 0 40 33">
    <title>Twitter</title>
    <path fill="#FFF" fill-rule="evenodd" d="M39.62 4.646c-1.438.64-2.984 1.07-4.61 1.263 1.66-.994 2.93-2.567 3.53-4.44-1.55.92-3.267 1.587-5.096 1.946-1.464-1.56-3.55-2.534-5.858-2.534-4.433 0-8.026 3.594-8.026 8.026 0 .628.07 1.24.208 1.828-6.67-.335-12.585-3.53-16.544-8.386-.69 1.185-1.087 2.564-1.087 4.035 0 2.785 1.417 5.24 3.57 6.68-1.314-.042-2.552-.402-3.635-1.004v.103c0 3.888 2.766 7.132 6.438 7.87-.673.183-1.382.28-2.114.28-.518 0-1.02-.05-1.51-.143 1.02 3.188 3.985 5.51 7.496 5.574-2.746 2.152-6.206 3.436-9.967 3.436-.648 0-1.287-.038-1.915-.112 3.553 2.277 7.77 3.606 12.304 3.606 14.763 0 22.835-12.23 22.835-22.837 0-.348-.008-.695-.024-1.04 1.567-1.13 2.93-2.544 4.004-4.154"/>
</svg>
