<?xml version="1.0" encoding="UTF-8" standalone="no"?>
<!-- Created with Inkscape (http://www.inkscape.org/) -->

<svg
   xmlns:dc="http://purl.org/dc/elements/1.1/"
   xmlns:cc="http://creativecommons.org/ns#"
   xmlns:rdf="http://www.w3.org/1999/02/22-rdf-syntax-ns#"
   xmlns:svg="http://www.w3.org/2000/svg"
   xmlns="http://www.w3.org/2000/svg"
   xmlns:xlink="http://www.w3.org/1999/xlink"
   xmlns:sodipodi="http://sodipodi.sourceforge.net/DTD/sodipodi-0.dtd"
   xmlns:inkscape="http://www.inkscape.org/namespaces/inkscape"
   width="118"
   height="70"
   id="svg3225"
   version="1.1"
   inkscape:version="0.48.4 r9939"
   sodipodi:docname="tetris.svg">
  <defs
     id="defs3227" />
  <sodipodi:namedview
     id="base"
     pagecolor="#ffffff"
     bordercolor="#666666"
     borderopacity="1.0"
     inkscape:pageopacity="0.0"
     inkscape:pageshadow="2"
     inkscape:zoom="5.6"
     inkscape:cx="50.18122"
     inkscape:cy="19.746186"
     inkscape:document-units="px"
     showgrid="true"
     inkscape:window-width="1280"
     inkscape:window-height="996"
     inkscape:window-x="1366"
     inkscape:window-y="0"
     inkscape:window-maximized="1"
     inkscape:current-layer="svg3225"
     inkscape:snap-global="true"
     inkscape:snap-bbox="true"
     inkscape:snap-bbox-midpoints="false"
     inkscape:snap-bbox-edge-midpoints="false"
     inkscape:bbox-nodes="true"
     inkscape:bbox-paths="false"
     inkscape:snap-object-midpoints="false">
    <inkscape:grid
       type="xygrid"
       id="grid3461"
       empspacing="2"
       visible="true"
       enabled="true"
       snapvisiblegridlinesonly="true"
       dotted="false" />
  </sodipodi:namedview>
  <metadata
     id="metadata3230">
    <rdf:RDF>
      <cc:Work
         rdf:about="">
        <dc:format>image/svg+xml</dc:format>
        <dc:type
           rdf:resource="http://purl.org/dc/dcmitype/StillImage" />
        <dc:title></dc:title>
      </cc:Work>
    </rdf:RDF>
  </metadata>
  <g
     id="g4366">
    <rect
       y="0"
       x="0"
       height="10"
       width="10"
       id="rect3463"
       style="fill:#ff0000;fill-opacity:1;stroke:none" />
    <use
       height="70"
       width="118"
       transform="translate(12,0)"
       id="use4264"
       xlink:href="#rect3463"
       y="0"
       x="0" />
    <use
       height="70"
       width="118"
       transform="translate(12,12)"
       id="use4266"
       xlink:href="#rect3463"
       y="0"
       x="0" />
    <use
       height="70"
       width="118"
       transform="translate(24,12)"
       id="use4268"
       xlink:href="#rect3463"
       y="0"
       x="0" />
  </g>
  <g
     id="g4360">
    <rect
       y="0"
       x="36"
       height="10"
       width="10"
       id="rect4344"
       style="fill-opacity:1;stroke:none;fill:#aa00ff" />
    <use
       height="70"
       width="118"
       transform="translate(12,0)"
       id="use4354"
       xlink:href="#rect4344"
       y="0"
       x="0" />
    <use
       height="70"
       width="118"
       transform="translate(12,12)"
       id="use4356"
       xlink:href="#rect4344"
       y="0"
       x="0" />
    <use
       height="70"
       width="118"
       transform="translate(24,0)"
       id="use4358"
       xlink:href="#rect4344"
       y="0"
       x="0" />
  </g>
  <g
     id="g4426">
    <rect
       y="0"
       x="72"
       height="10"
       width="10"
       id="rect4410"
       style="fill:#00ffff;fill-opacity:1;stroke:none" />
    <use
       height="70"
       width="118"
       transform="translate(0,12)"
       id="use4420"
       xlink:href="#rect4410"
       y="0"
       x="0" />
    <use
       height="70"
       width="118"
       transform="translate(0,24)"
       id="use4422"
       xlink:href="#rect4410"
       y="0"
       x="0" />
    <use
       height="70"
       width="118"
       transform="translate(0,36)"
       id="use4424"
       xlink:href="#rect4410"
       y="0"
       x="0" />
  </g>
  <g
     id="g4444">
    <rect
       y="0"
       x="84"
       height="10"
       width="10"
       id="rect4432"
       style="fill:#ffff00;fill-opacity:1;stroke:none" />
    <use
       height="70"
       width="118"
       transform="translate(12,0)"
       id="use4434"
       xlink:href="#rect4432"
       y="0"
       x="0" />
    <use
       height="70"
       width="118"
       transform="translate(0,12)"
       id="use4436"
       xlink:href="#rect4432"
       y="0"
       x="0" />
    <use
       height="70"
       width="118"
       transform="translate(12,12)"
       id="use4438"
       xlink:href="#rect4432"
       y="0"
       x="0" />
  </g>
  <g
     id="g4454"
     transform="translate(-14,0)">
    <rect
       y="0"
       x="122"
       height="10"
       width="10"
       id="rect4440"
       style="fill:#0000ff;fill-opacity:1;stroke:none" />
    <use
       height="70"
       width="118"
       transform="translate(0,12)"
       id="use4442"
       xlink:href="#rect4440"
       y="0"
       x="0" />
    <use
       height="70"
       width="118"
       transform="translate(0,24)"
       id="use4450"
       xlink:href="#rect4440"
       y="0"
       x="0" />
    <use
       height="70"
       width="118"
       transform="translate(-12,24)"
       id="use4452"
       xlink:href="#rect4440"
       y="0"
       x="0" />
  </g>
  <use
     x="0"
     y="0"
     xlink:href="#g4454"
     id="use4460"
     transform="matrix(0,1,-1,0,34,-84)"
     width="118"
     height="70" />
  <g
     id="g4529"
     transform="translate(2,-28)">
    <rect
       y="40"
       x="34"
       height="10"
       width="10"
       id="rect4521"
       style="fill:#00ff00;fill-opacity:1;stroke:none" />
    <use
       height="70"
       width="118"
       transform="translate(0,12)"
       id="use4523"
       xlink:href="#rect4521"
       y="0"
       x="0" />
    <use
       height="70"
       width="118"
       transform="translate(12,12)"
       id="use4525"
       xlink:href="#rect4521"
       y="0"
       x="0" />
    <use
       height="70"
       width="118"
       transform="translate(12,24)"
       id="use4527"
       xlink:href="#rect4521"
       y="0"
       x="0" />
  </g>
  <g
     id="g4549"
     transform="translate(30,-26)">
    <rect
       y="50"
       x="30"
       height="10"
       width="10"
       id="rect4535"
       style="fill:#ffa500;fill-opacity:1;stroke:none" />
    <use
       height="70"
       width="118"
       transform="translate(0,12)"
       id="use4543"
       xlink:href="#rect4535"
       y="0"
       x="0" />
    <use
       height="70"
       width="118"
       transform="translate(0,24)"
       id="use4545"
       xlink:href="#rect4535"
       y="0"
       x="0" />
    <use
       height="70"
       width="118"
       transform="translate(12,24)"
       id="use4547"
       xlink:href="#rect4535"
       y="0"
       x="0" />
  </g>
  <use
     x="0"
     y="0"
     xlink:href="#g4366"
     id="use4574"
     transform="translate(84,36)"
     width="118"
     height="70" />
  <use
     x="0"
     y="0"
     xlink:href="#g4426"
     id="use4576"
     transform="matrix(0,1,-1,0,46,-36)"
     width="118"
     height="70" />
  <use
     x="0"
     y="0"
     xlink:href="#g4360"
     id="use4578"
     transform="matrix(-1,0,0,-1,70,70)"
     width="118"
     height="70" />
  <use
     x="0"
     y="0"
     xlink:href="#g4454"
     id="use4580"
     transform="matrix(0,-1,1,0,24,166)"
     width="118"
     height="70" />
</svg>
