<?xml version="1.0" standalone="no"?>
<!DOCTYPE svg PUBLIC "-//W3C//DTD SVG 1.1//EN" "http://www.w3.org/Graphics/SVG/1.1/DTD/svg11.dtd" >
<svg xmlns="http://www.w3.org/2000/svg">
<metadata></metadata>
<defs>
<font id="TelegramaRender" horiz-adv-x="1366" >
<font-face units-per-em="2048" ascent="1593" descent="-455" />
<missing-glyph horiz-adv-x="500" />
<glyph horiz-adv-x="0" />
<glyph horiz-adv-x="2048" />
<glyph unicode=" " />
<glyph unicode="!" d="M569 57v113q0 25 16.5 41t41.5 16h112q25 0 41.5 -16t16.5 -41v-113q0 -25 -16.5 -41t-41.5 -16h-112q-25 0 -41.5 16t-16.5 41zM569 512v1024q0 25 16.5 41t41.5 16h112q25 0 41.5 -16t16.5 -41v-1024q0 -25 -16.5 -41t-41.5 -16h-112q-25 0 -41.5 16t-16.5 41z" />
<glyph unicode="&#x22;" d="M342 967v569q0 25 16.5 41t38.5 16h115q25 0 41 -16t16 -41v-569q0 -23 -16 -40.5t-41 -17.5h-115q-23 0 -39 17.5t-16 40.5zM797 967v569q0 25 16 41t41 16h113q25 0 41 -16t16 -41v-569q0 -23 -16.5 -40.5t-40.5 -17.5h-113q-25 0 -41 17.5t-16 40.5z" />
<glyph unicode="#" d="M115 512v115q0 23 16 39t39 16h172v457h-172q-23 0 -39 16t-16 39v115q0 23 16 40t39 17h172v170q0 25 16.5 41t38.5 16h115q25 0 41 -16t16 -41v-170h228v170q0 25 16 41t41 16h113q25 0 41 -16t16 -41v-170h170q25 0 41 -17.5t16 -39.5v-115q0 -23 -16 -39t-41 -16 h-170v-457h170q25 0 41 -16.5t16 -38.5v-115q0 -25 -16 -41t-41 -16h-170v-170q0 -25 -16.5 -41.5t-40.5 -16.5h-113q-25 0 -41 16.5t-16 41.5v170h-228v-170q0 -25 -16 -41.5t-41 -16.5h-115q-23 0 -39 16.5t-16 41.5v170h-172q-23 0 -39 16t-16 41zM569 682h228v457h-228 v-457z" />
<glyph unicode="$" d="M115 285v112q0 25 16 41.5t39 16.5h399v227h-114q-141 0 -240.5 100.5t-99.5 241.5t99 241.5t241 100.5h114v170q0 25 16.5 41t41.5 16h112q25 0 41.5 -16t16.5 -41v-170h397q25 0 41 -17.5t16 -39.5v-115q0 -23 -16 -39t-41 -16h-397v-230h112q143 0 242.5 -99 t99.5 -240.5t-99 -242t-243 -100.5h-112v-170q0 -25 -16.5 -41t-41.5 -16h-112q-25 0 -41.5 16.5t-16.5 40.5v170h-399q-23 0 -39 16.5t-16 41.5zM342 1024q0 -47 34 -81t79 -34h114v230h-114q-45 0 -79 -34t-34 -81zM797 455h112q45 0 80 34.5t35 79.5t-34 79t-81 34h-112 v-227z" />
<glyph unicode="%" d="M115 1251.5q0 141.5 99 241.5t240.5 100t242 -100t100.5 -241.5t-100.5 -242t-242 -100.5t-240.5 100.5t-99 242zM129 324q-39 41 0 79l944 945q41 39 80 0l80 -80q16 -16 16 -40t-16 -40l-944 -944q-39 -39 -80 0zM342 1251q0 -47 33 -79.5t80 -32.5t80.5 32.5 t33.5 79.5t-33.5 81t-80.5 34t-80 -34t-33 -81zM569 342q0 141 99.5 240.5t240.5 99.5q143 0 242.5 -99.5t99.5 -240.5q0 -143 -99 -242.5t-243 -99.5q-141 0 -240.5 99.5t-99.5 242.5zM797 342q0 -47 33.5 -81t78.5 -34t80 34t35 81q0 45 -34 79t-81 34q-45 0 -78.5 -33 t-33.5 -80z" />
<glyph unicode="&#x26;" d="M115 455q0 211 153 342q-154 131 -153 342q0 188 133 321t321 133q143 0 246 -102t103 -248q0 -141 -107 -252l-197 -194l347 -346q63 102 63 231v172q0 23 16.5 39t40.5 16h113q25 0 41 -16t16 -39v-174q0 -223 -125 -395l109 -109q39 -41 0 -80l-80 -80q-39 -39 -78 0 l-110 109q-172 -125 -398 -125q-188 2 -321 135.5t-133 319.5zM342 455q0 -94 66.5 -161t160.5 -67q127 0 232 64l-355 356q-104 -67 -104 -192zM342 1139q0 -125 104 -193l209 209q37 41 37 88q0 51 -35.5 87t-87.5 36q-94 0 -160.5 -66.5t-66.5 -160.5z" />
<glyph unicode="'" d="M569 967v569q0 25 16.5 41t41.5 16h112q25 0 41.5 -16t16.5 -41v-569q0 -23 -16.5 -40.5t-41.5 -17.5h-112q-25 0 -41.5 17.5t-16.5 40.5z" />
<glyph unicode="(" d="M342 455v684q0 188 134 321t321 133h397q25 0 41 -16t16 -41v-115q0 -23 -16 -39t-41 -16h-397q-94 0 -161 -66.5t-67 -160.5v-684q0 -94 66.5 -161t161.5 -67h397q25 0 41 -16t16 -41v-113q0 -25 -16 -41t-41 -16h-397q-186 0 -320.5 133.5t-134.5 321.5z" />
<glyph unicode=")" d="M115 57v113q0 25 16 41t39 16h399q94 0 161 66.5t67 161.5v684q0 94 -66.5 160.5t-161.5 66.5h-399q-23 0 -39 16.5t-16 38.5v115q0 25 16 41t39 16h399q188 0 321.5 -133t133.5 -321v-684q0 -188 -133 -321.5t-322 -133.5h-399q-23 0 -39 16t-16 41z" />
<glyph unicode="*" d="M115 739v115q0 23 16 39t39 16h240l-279 279q-16 16 -16 39.5t16 40.5l80 80q16 16 39.5 16t40.5 -16l391 -392l391 392q41 39 80 0l80 -80q16 -16 16 -40t-16 -40l-277 -279h238q25 0 41 -16t16 -39v-115q0 -23 -16 -40t-41 -17h-238l279 -279q39 -39 0 -79l-80 -80 q-39 -39 -78 0l-395 393l-393 -393q-39 -39 -80 0l-80 80q-39 41 0 79l281 279h-240q-23 0 -39 17t-16 40z" />
<glyph unicode="+" d="M115 739v115q0 23 16 39t39 16h399v400q0 23 16.5 40t41.5 17h112q25 0 41.5 -17.5t16.5 -39.5v-400h397q25 0 41 -16t16 -39v-115q0 -23 -16 -40t-41 -17h-397v-397q0 -25 -16.5 -41.5t-41.5 -16.5h-112q-25 0 -41.5 16.5t-16.5 41.5v397h-399q-23 0 -39 17t-16 40z" />
<glyph unicode="," d="M342 57v340q0 25 16.5 41.5t38.5 16.5h342q25 0 41.5 -16.5t16.5 -41.5v-512q0 -141 -100.5 -240.5t-241.5 -99.5h-58q-23 0 -39 16.5t-16 41.5v112q0 25 16.5 41.5t38.5 16.5h58q47 0 80.5 33.5t33.5 78.5v115h-172q-23 0 -39 16t-16 41z" />
<glyph unicode="-" d="M115 512v115q0 23 16 39t39 16h1024q25 0 41 -16.5t16 -38.5v-115q0 -25 -16 -41t-41 -16h-1024q-23 0 -39 16t-16 41z" />
<glyph unicode="." d="M342 57v340q0 25 16.5 41.5t38.5 16.5h342q25 0 41.5 -16.5t16.5 -41.5v-340q0 -25 -16.5 -41t-41.5 -16h-342q-23 0 -39 16t-16 41z" />
<glyph unicode="/" d="M115 57v308q0 23 16 43l893 890v238q0 25 16.5 41t40.5 16h113q25 0 41 -16t16 -41v-303q0 -25 -18 -43l-891 -891v-242q0 -25 -17.5 -41t-39.5 -16h-115q-23 0 -39 16t-16 41z" />
<glyph unicode="0" d="M115 455v684q0 188 133 321t321 133h228q186 0 320 -133t134 -321v-684q0 -188 -134 -321.5t-320 -133.5h-228q-188 0 -321 133.5t-133 321.5zM342 616l645 646q-68 104 -190 104h-228q-94 0 -160.5 -66.5t-66.5 -160.5v-523zM377 332q68 -104 192 -105h228 q94 0 160.5 66.5t66.5 161.5v524z" />
<glyph unicode="1" d="M115 57v113q0 25 16 41t39 16h399v979l-280 -280q-16 -16 -40 -16.5t-40 16.5l-80 80q-39 39 0 79l440 439v10q0 27 16.5 43t41.5 16h112q25 0 41.5 -16t16.5 -41v-1309h397q25 0 41 -16t16 -41v-113q0 -25 -16 -41t-41 -16h-1024q-23 0 -39 16t-16 41z" />
<glyph unicode="2" d="M115 57v113q0 25 16 41t39 16h39l745 748q70 70 70 164t-66.5 160.5t-160.5 66.5h-228q-94 0 -160.5 -66.5t-66.5 -160.5q0 -25 -17.5 -41.5t-39.5 -16.5h-115q-23 0 -39 16.5t-16 41.5q0 188 133 321t321 133h228q186 0 320 -133t134 -321q0 -190 -133 -324l-590 -588 h666q25 0 41 -16t16 -41v-113q0 -25 -16 -41t-41 -16h-1024q-23 0 -39 16t-16 41z" />
<glyph unicode="3" d="M115 455q0 25 16 41t39 16h115q23 0 40 -16.5t17 -40.5q0 -94 66.5 -161t160.5 -67h228q94 0 160.5 66.5t66.5 161t-66.5 161t-160.5 66.5h-400q-23 0 -39 17.5t-16 39.5v115q0 23 16.5 39t38.5 16h15l452 457h-694q-23 0 -39 16.5t-16 38.5v115q0 25 16 41t39 16h1024 q25 0 41 -16t16 -41v-115q0 -23 -16 -39t-41 -16h-10l-455 -457h68q186 0 320 -133t134 -321.5t-134 -321.5t-320 -133h-228q-188 0 -321 133.5t-133 321.5z" />
<glyph unicode="4" d="M115 512v295q0 25 16 45l666 664v20q0 25 16 41t41 16h113q25 0 41 -16t16 -41v-854h170q25 0 41 -16.5t16 -38.5v-115q0 -25 -16 -41t-41 -16h-170v-398q0 -25 -16.5 -41t-40.5 -16h-113q-25 0 -41 16.5t-16 40.5v398h-627q-25 0 -40 16t-15 41zM342 682h455v518 l-455 -457v-61zM1251 512v115v-115z" />
<glyph unicode="5" d="M115 455q0 25 16 41t39 16h115q23 0 40 -16.5t17 -40.5q0 -94 66.5 -161t160.5 -67h228q94 0 160.5 66.5t66.5 161t-66.5 161t-160.5 66.5h-627q-23 0 -39 17.5t-16 39.5v797q0 25 16 41t39 16h1024q25 0 41 -16t16 -41v-115q0 -23 -16 -39t-41 -16h-852v-457h455 q186 0 320 -133t134 -321.5t-134 -321.5t-320 -133h-228q-188 0 -321 133.5t-133 321.5z" />
<glyph unicode="6" d="M115 455v684q0 188 133 321t321 133h228q186 0 320 -133t134 -321q0 -25 -16 -41.5t-41 -16.5h-113q-25 0 -41 16.5t-16 41.5q0 94 -66.5 160.5t-160.5 66.5h-228q-94 0 -160.5 -66.5t-66.5 -160.5v-230h455q186 0 320 -133t134 -321.5t-134 -321.5t-320 -133h-228 q-188 0 -321 133.5t-133 321.5zM342 455q0 -94 66.5 -161t160.5 -67h228q94 0 160.5 66.5t66.5 161t-66.5 161t-160.5 66.5h-455v-227z" />
<glyph unicode="7" d="M115 1421v115q0 25 16 41t39 16h1024q27 0 42 -16t15 -41v-305q0 -25 -18 -43l-436 -443v-688q0 -25 -16.5 -41t-41.5 -16h-112q-25 0 -41.5 16.5t-16.5 40.5v760q0 23 17 39l438 438v72h-854q-23 0 -39 16t-16 39z" />
<glyph unicode="8" d="M115 455q0 211 153 342q-154 131 -153 342q0 188 133 321t321 133h228q186 0 320 -133t134 -321q0 -209 -153 -342q154 -133 153 -342q0 -188 -134 -321.5t-320 -133.5h-228q-188 0 -321 133.5t-133 321.5zM342 454.5q0 -94.5 66.5 -161t160.5 -66.5h228q94 0 160.5 66.5 t66.5 161t-66.5 161t-160.5 66.5h-228q-94 0 -160.5 -66.5t-66.5 -161zM342 1138.5q0 -94.5 66.5 -162t158.5 -67.5h230q94 0 160.5 67.5t66.5 162t-66.5 161t-160.5 66.5h-228q-94 0 -160.5 -66.5t-66.5 -161z" />
<glyph unicode="9" d="M115 455q0 25 16 41t39 16h115q23 0 40 -16.5t17 -40.5q0 -94 66.5 -161t160.5 -67h228q94 0 160.5 66.5t66.5 161.5v227h-455q-188 0 -321 134t-133 322.5t133 321.5t321 133h228q186 0 320 -133t134 -321v-684q0 -188 -134 -321.5t-320 -133.5h-228q-188 0 -321 133.5 t-133 321.5zM342 1138.5q0 -94.5 66.5 -162t160.5 -67.5h455v230q0 94 -66.5 160.5t-160.5 66.5h-228q-94 0 -160.5 -66.5t-66.5 -161z" />
<glyph unicode=":" d="M342 57v340q0 25 16.5 41.5t38.5 16.5h342q25 0 41.5 -16.5t16.5 -41.5v-340q0 -25 -16.5 -41t-41.5 -16h-342q-23 0 -39 16t-16 41zM342 739v342q0 23 16.5 40.5t38.5 17.5h342q25 0 41.5 -17.5t16.5 -40.5v-342q0 -23 -16.5 -40t-41.5 -17h-342q-23 0 -39 17t-16 40z " />
<glyph unicode=";" d="M342 57v340q0 25 16.5 41.5t38.5 16.5h342q25 0 41.5 -16.5t16.5 -41.5v-512q0 -141 -100.5 -240.5t-241.5 -99.5h-58q-23 0 -39 16.5t-16 41.5v112q0 25 16.5 41.5t38.5 16.5h58q47 0 80.5 33.5t33.5 78.5v115h-172q-23 0 -39 16t-16 41zM342 739v342q0 23 16.5 40.5 t38.5 17.5h342q25 0 41.5 -17.5t16.5 -40.5v-342q0 -23 -16.5 -40t-41.5 -17h-342q-23 0 -39 17t-16 40z" />
<glyph unicode="&#x3c;" d="M322 797q0 23 12 39l743 741q39 39 78 0l80 -80q39 -39 0 -80l-621 -620l621 -621q39 -41 0 -80l-80 -80q-39 -39 -78 0l-743 742q-12 12 -12 39z" />
<glyph unicode="=" d="M115 285v112q0 25 16 41.5t39 16.5h1024q25 0 41 -16.5t16 -41.5v-112q0 -25 -16 -41.5t-41 -16.5h-1024q-23 0 -39 16.5t-16 41.5zM115 739v115q0 23 16 39t39 16h1024q25 0 41 -16t16 -39v-115q0 -23 -16 -40t-41 -17h-1024q-23 0 -39 17t-16 40z" />
<glyph unicode="&#x3e;" d="M340 1457.5q0 23.5 16 39.5l80 80q16 16 40 16t40 -16l741 -741q14 -14 15 -39q0 -27 -15 -39l-741 -742q-16 -16 -39.5 -16t-40.5 16l-80 80q-39 39 0 80l623 621l-623 620q-16 17 -16 40.5z" />
<glyph unicode="?" d="M115 1139q0 188 133 321t321 133h228q186 0 320 -133t134 -321q0 -186 -133 -324l-373 -371q-39 -39 -77 0l-82 82q-41 39 0 80l368 369q70 70 70 164t-66.5 160.5t-160.5 66.5h-228q-94 0 -160.5 -66.5t-66.5 -160.5q0 -25 -17.5 -41.5t-39.5 -16.5h-115q-23 0 -39 16.5 t-16 41.5zM569 57v113q0 25 16.5 41t41.5 16h112q25 0 41.5 -16t16.5 -41v-113q0 -25 -16.5 -41t-41.5 -16h-112q-25 0 -41.5 16t-16.5 41z" />
<glyph unicode="@" d="M115 342v227q0 141 99 240.5t241 99.5h284q25 0 41.5 -16t16.5 -39v-512q0 -47 33.5 -81t78.5 -34t80 34t35 81v797q0 94 -66.5 160.5t-160.5 66.5h-228q-94 0 -160.5 -66.5t-66.5 -160.5q0 -25 -17.5 -41.5t-39.5 -16.5h-115q-23 0 -39 16.5t-16 41.5q0 188 133 321 t321 133h228q186 0 320 -133t134 -321v-797q0 -143 -99 -242.5t-243 -99.5q-131 0 -227 86q-96 -86 -227 -86q-141 0 -240.5 99.5t-99.5 242.5zM342 342q0 -47 34 -81t79 -34t79.5 34t34.5 81v340h-114q-45 0 -79 -34t-34 -79v-227z" />
<glyph unicode="A" d="M115 57v1082q0 188 133 321t321 133h228q186 0 320 -133t134 -321v-1082q0 -25 -16 -41t-41 -16h-113q-25 0 -41 16.5t-16 40.5v625h-682v-625q0 -25 -17.5 -41t-39.5 -16h-115q-23 0 -39 16t-16 41zM342 909h682v230q0 94 -66.5 160.5t-160.5 66.5h-228 q-94 0 -160.5 -66.5t-66.5 -160.5v-230z" />
<glyph unicode="B" d="M115 57v1479q0 25 16 41t39 16h627q186 0 320 -133t134 -321q0 -209 -153 -342q153 -132 153 -339q0 -191 -134 -324.5t-320 -133.5h-627q-23 0 -39 16t-16 41zM342 227h455q94 0 160.5 66.5t66.5 161t-66.5 161t-160.5 66.5h-455v-455zM342 909h455q94 0 160.5 67.5 t66.5 162t-66.5 161t-160.5 66.5h-455v-457z" />
<glyph unicode="C" d="M115 455v684q0 188 133 321t321 133h228q186 0 320 -133t134 -321q0 -25 -16 -41.5t-41 -16.5h-113q-25 0 -41 16.5t-16 41.5q0 94 -66.5 160.5t-160.5 66.5h-228q-94 0 -160.5 -66.5t-66.5 -160.5v-684q0 -94 66.5 -161t160.5 -67h228q94 0 160.5 66.5t66.5 161.5 q0 25 16.5 41t40.5 16h113q25 0 41 -16.5t16 -40.5q0 -188 -134 -321.5t-320 -133.5h-228q-188 0 -321 133.5t-133 321.5z" />
<glyph unicode="D" d="M115 57v1479q0 25 16 41t39 16h627q186 0 320 -133t134 -321v-684q0 -188 -134 -321.5t-320 -133.5h-627q-23 0 -39 16t-16 41zM342 227h455q94 0 160.5 66.5t66.5 161.5v684q0 94 -66.5 160.5t-160.5 66.5h-455v-1139z" />
<glyph unicode="E" d="M115 57v1479q0 25 16 41t39 16h1024q25 0 41 -16t16 -41v-115q0 -23 -16 -39t-41 -16h-852v-457h625q25 0 41 -16t16 -39v-115q0 -23 -16.5 -40t-40.5 -17h-625v-455h852q25 0 41 -16t16 -41v-113q0 -25 -16 -41t-41 -16h-1024q-23 0 -39 16t-16 41z" />
<glyph unicode="F" d="M115 57v1479q0 25 16 41t39 16h1024q25 0 41 -16t16 -41v-115q0 -23 -16 -39t-41 -16h-852v-457h625q25 0 41 -16t16 -39v-115q0 -23 -16.5 -40t-40.5 -17h-625v-625q0 -25 -17.5 -41t-39.5 -16h-115q-23 0 -39 16t-16 41z" />
<glyph unicode="G" d="M115 455v684q0 188 133 321t321 133h228q186 0 320 -133t134 -321q0 -25 -16 -41.5t-41 -16.5h-113q-25 0 -41 16.5t-16 41.5q0 94 -66.5 160.5t-160.5 66.5h-228q-94 0 -160.5 -66.5t-66.5 -160.5v-684q0 -94 66.5 -161t160.5 -67h228q94 0 160.5 66.5t66.5 161.5v227 h-397q-25 0 -41.5 17.5t-16.5 39.5v115q0 23 16.5 39t41.5 16h567q25 0 41 -16t16 -39v-399q0 -188 -134 -321.5t-320 -133.5h-228q-188 0 -321 133.5t-133 321.5z" />
<glyph unicode="H" d="M115 57v1479q0 25 16 41t39 16h115q23 0 40 -16t17 -41v-627h682v627q0 25 16.5 41t40.5 16h113q25 0 41 -16t16 -41v-1479q0 -25 -16 -41t-41 -16h-113q-25 0 -41 16.5t-16 40.5v625h-682v-625q0 -25 -17.5 -41t-39.5 -16h-115q-23 0 -39 16t-16 41z" />
<glyph unicode="I" d="M115 57v113q0 25 16 41t39 16h399v1139h-172q-23 0 -39 16.5t-16 38.5v115q0 25 16.5 41t38.5 16h570q25 0 41 -16t16 -41v-115q0 -23 -16.5 -39t-40.5 -16h-170v-1139h397q25 0 41 -16t16 -41v-113q0 -25 -16 -41t-41 -16h-1024q-23 0 -39 16t-16 41z" />
<glyph unicode="J" d="M115 455q0 25 16 41t39 16h115q23 0 40 -16.5t17 -40.5q0 -94 66.5 -161t160.5 -67h228q94 0 160.5 66.5t66.5 161.5v1081q0 25 16.5 41t40.5 16h113q25 0 41 -16t16 -41v-1081q0 -188 -134 -321.5t-320 -133.5h-228q-188 0 -321 133.5t-133 321.5z" />
<glyph unicode="K" d="M115 57v1479q0 25 16 41t39 16h115q23 0 40 -16t17 -41v-627h66l665 668q20 19 40.5 19t39.5 -19l80 -80q16 -16 16 -39.5t-16 -40.5l-621 -620l621 -621q19 -20 19 -40t-19 -40l-80 -80q-19 -19 -39 -19t-41 19l-665 666h-66v-625q0 -25 -17.5 -41t-39.5 -16h-115 q-23 0 -39 16t-16 41z" />
<glyph unicode="L" d="M115 57v1479q0 25 16 41t39 16h115q23 0 40 -16t17 -41v-1309h852q25 0 41 -16t16 -41v-113q0 -25 -16 -41t-41 -16h-1024q-23 0 -39 16t-16 41z" />
<glyph unicode="M" d="M115 57v1479q0 25 16 41t39 16h115q23 0 40 -16t17 -41v-12l340 -340l342 340v10q0 27 16.5 43t40.5 16h113q25 0 41 -16t16 -41v-1479q0 -25 -16 -41t-41 -16h-113q-25 0 -41 16.5t-16 40.5v1149l-227 -227v-240q0 -23 -16.5 -40t-41.5 -17h-112q-25 0 -41.5 17.5 t-16.5 39.5v240l-227 227v-1149q0 -25 -17.5 -41t-39.5 -16h-115q-23 0 -39 16t-16 41z" />
<glyph unicode="N" d="M115 57v1479q0 25 16 41t39 16h115q23 0 40 -16t17 -41v-240l682 -682v922q0 25 16.5 41t40.5 16h113q25 0 41 -16t16 -41v-1479q0 -25 -16 -41t-41 -16h-113q-25 0 -41 16.5t-16 40.5v238l-682 684v-922q0 -25 -17.5 -41t-39.5 -16h-115q-23 0 -39 16t-16 41z" />
<glyph unicode="O" d="M115 455v684q0 188 133 321t321 133h228q186 0 320 -133t134 -321v-684q0 -188 -134 -321.5t-320 -133.5h-228q-188 0 -321 133.5t-133 321.5zM342 455q0 -94 66.5 -161t160.5 -67h228q94 0 160.5 66.5t66.5 161.5v684q0 94 -66.5 160.5t-160.5 66.5h-228 q-94 0 -160.5 -66.5t-66.5 -160.5v-684z" />
<glyph unicode="P" d="M115 57v1479q0 25 16 41t39 16h627q186 0 320 -133t134 -321.5t-133 -322.5t-321 -134h-455v-625q0 -25 -17.5 -41t-39.5 -16h-115q-23 0 -39 16t-16 41zM342 909h455q94 0 160.5 67.5t66.5 162t-66.5 161t-160.5 66.5h-455v-457z" />
<glyph unicode="Q" d="M115 455v684q0 188 133 321t321 133h228q186 0 320 -133t134 -321v-459q0 -223 -125 -395l109 -109q19 -20 19 -40t-19 -40l-80 -80q-19 -19 -39 -19l-39 19l-110 109q-172 -125 -398 -125q-188 2 -321 135.5t-133 319.5zM342 455q0 -94 66.5 -161t160.5 -67 q127 0 232 64l-213 215q-19 19 -19.5 39t19.5 41l80 78q16 18 38.5 18t38.5 -18l216 -213q63 102 63 231v457q0 94 -66.5 160.5t-160.5 66.5h-228q-94 0 -160.5 -66.5t-66.5 -160.5v-684z" />
<glyph unicode="R" d="M115 57v1479q0 25 16 41t39 16h627q186 0 320 -133t134 -321.5t-133 -322.5t-321 -134h-72l508 -506q19 -20 19 -40t-19 -40l-80 -80q-19 -19 -39 -19t-41 19l-665 666h-66v-625q0 -25 -17.5 -41t-39.5 -16h-115q-23 0 -39 16t-16 41zM342 909h455q94 0 160.5 67.5 t66.5 162t-66.5 161t-160.5 66.5h-455v-457z" />
<glyph unicode="S" d="M115 455q0 25 16 41t39 16h115q23 0 40 -16.5t17 -40.5q0 -94 66.5 -161t160.5 -67h228q94 0 160.5 66.5t66.5 161t-66.5 161t-160.5 66.5h-228q-188 0 -321 134t-133 322.5t133 321.5t321 133h228q186 0 320 -133t134 -321q0 -25 -16 -41.5t-41 -16.5h-113 q-25 0 -41 16.5t-16 41.5q0 94 -66.5 160.5t-160.5 66.5h-228q-94 0 -160.5 -66.5t-66.5 -161t66.5 -162t160.5 -67.5h228q186 0 320 -133t134 -321.5t-134 -321.5t-320 -133h-228q-188 0 -321 133.5t-133 321.5z" />
<glyph unicode="T" d="M115 1421v115q0 25 16 41t39 16h1024q25 0 41 -16t16 -41v-115q0 -23 -16 -39t-41 -16h-397v-1309q0 -25 -16.5 -41t-41.5 -16h-112q-25 0 -41.5 16.5t-16.5 40.5v1309h-399q-23 0 -39 16t-16 39z" />
<glyph unicode="U" d="M115 455v1081q0 25 16 41t39 16h115q23 0 40 -16t17 -41v-1081q0 -94 66.5 -161t160.5 -67h228q94 0 160.5 66.5t66.5 161.5v1081q0 25 16.5 41t40.5 16h113q25 0 41 -16t16 -41v-1081q0 -188 -134 -321.5t-320 -133.5h-228q-188 0 -321 133.5t-133 321.5z" />
<glyph unicode="V" d="M115 551v985q0 25 16 41t39 16h115q23 0 40 -16t17 -41v-922l340 -342l342 342v920q0 27 16.5 43t40.5 16h113q25 0 41 -16t16 -41v-985q0 -27 -18 -43l-512 -514q-12 -14 -39 -14q-25 0 -39 14l-512 514q-16 16 -16 43z" />
<glyph unicode="W" d="M115 342v1194q0 25 16 41t39 16h115q23 0 40 -16t17 -41v-1194q0 -47 34 -81t79 -34t79.5 34t34.5 81v512q0 23 16.5 39t41.5 16h112q25 0 41.5 -16t16.5 -39v-512q0 -47 33.5 -81t78.5 -34t80 34t35 81v1194q0 25 16.5 41t40.5 16h113q25 0 41 -16t16 -41v-1194 q0 -143 -99 -242.5t-243 -99.5q-131 0 -227 86q-96 -86 -227 -86q-141 0 -240.5 99.5t-99.5 242.5z" />
<glyph unicode="X" d="M115 57v310q0 23 16 43l389 389l-389 389q-16 20 -16 43v305q0 25 16 41t39 16h115q23 0 40 -16t17 -41v-242l340 -340l342 340v242q0 25 16.5 41t40.5 16h113q25 0 41 -16t16 -41v-305q0 -25 -18 -43l-389 -389l389 -389q18 -18 18 -43v-310q0 -25 -16 -41t-41 -16h-113 q-25 0 -41 16.5t-16 40.5v242l-342 340l-340 -340v-242q0 -25 -17.5 -41t-39.5 -16h-115q-23 0 -39 16t-16 41z" />
<glyph unicode="Y" d="M115 1231v305q0 25 16 41t39 16h115q23 0 40 -16t17 -41v-242l340 -340l342 340v242q0 25 16.5 41t40.5 16h113q25 0 41 -16t16 -41v-305q0 -25 -18 -43l-436 -434v-697q0 -25 -16.5 -41t-41.5 -16h-112q-25 0 -41.5 16.5t-16.5 40.5v697l-438 434q-16 20 -16 43z" />
<glyph unicode="Z" d="M115 57v310q0 23 16 43l893 884v72h-854q-23 0 -39 16.5t-16 38.5v115q0 25 16 41t39 16h1024q27 0 42 -16t15 -41v-305q0 -25 -18 -43l-891 -889v-72h852q25 0 41 -16t16 -41v-113q0 -25 -16 -41t-41 -16h-1024q-23 0 -39 16t-16 41z" />
<glyph unicode="[" d="M342 57v1479q0 25 16.5 41t38.5 16h797q25 0 41 -16t16 -41v-115q0 -23 -16 -39t-41 -16h-625v-1139h625q25 0 41 -16t16 -41v-113q0 -25 -16 -41t-41 -16h-797q-23 0 -39 16t-16 41z" />
<glyph unicode="\" d="M115 1231v305q0 25 16 41t39 16h115q23 0 40 -16t17 -41v-240l891 -890q18 -18 18 -44v-305q0 -25 -16 -41t-41 -16h-113q-25 0 -41 16.5t-16 40.5v238l-893 893q-16 20 -16 43z" />
<glyph unicode="]" d="M115 57v113q0 25 16 41t39 16h627v1139h-627q-23 0 -39 16.5t-16 38.5v115q0 25 16 41t39 16h797q25 0 41 -16t16 -41v-1479q0 -25 -16.5 -41t-40.5 -16h-797q-23 0 -39 16t-16 41z" />
<glyph unicode="^" d="M340 1272.5q0 23.5 16 40.5l287 286q14 14 39 15q27 0 39 -15l287 -286q16 -16 16 -40t-16 -40l-80 -80q-39 -39 -80 0l-166 166l-166 -166q-41 -39 -80 0l-80 80q-16 16 -16 39.5z" />
<glyph unicode="_" d="M115 -57q0 25 16 41t39 16h1024q25 0 41 -16.5t16 -40.5v-113q0 -25 -16 -41t-41 -16h-1024q-23 0 -39 16t-16 41v113z" />
<glyph unicode="`" d="M340 1455.5q0 23.5 16 39.5l80 80q39 39 80 0l262 -262q16 -16 16.5 -40t-16.5 -40l-80 -80q-39 -39 -80 0l-262 262q-16 17 -16 40.5z" />
<glyph unicode="a" d="M115 342q0 141 99 240.5t241 99.5h569q0 94 -66.5 160.5t-160.5 66.5h-400q-23 0 -39 17.5t-16 40.5v114q0 23 16.5 40.5t38.5 17.5h400q188 0 321 -134.5t133 -322.5v-625q0 -25 -16 -41t-41 -16h-739q-141 0 -240.5 99.5t-99.5 242.5zM342 342q0 -47 33 -81t80 -34h569 v228h-569q-47 0 -80 -33t-33 -80z" />
<glyph unicode="b" d="M115 57v1479q0 25 16 41t39 16h115q23 0 40 -16t17 -41v-397h455q188 0 321 -134.5t133 -322.5v-227q0 -188 -134 -321.5t-320 -133.5h-627q-23 0 -39 16t-16 41zM342 227h455q94 0 160.5 66.5t66.5 161.5v227q0 94 -66.5 160.5t-160.5 66.5h-455v-682z" />
<glyph unicode="c" d="M115 455v227q0 188 133 322.5t321 134.5h625q25 0 41 -17.5t16 -40.5v-114q0 -23 -16 -40.5t-41 -17.5h-625q-94 0 -160.5 -66.5t-66.5 -160.5v-227q0 -94 66.5 -161t160.5 -67h625q25 0 41 -16t16 -41v-113q0 -25 -16 -41t-41 -16h-625q-188 0 -321 133.5t-133 321.5z " />
<glyph unicode="d" d="M115 455v227q0 188 133 322.5t321 134.5h455v397q0 25 16.5 41t40.5 16h113q25 0 41 -16t16 -41v-1479q0 -25 -16 -41t-41 -16h-625q-188 0 -321 133.5t-133 321.5zM342 455q0 -94 66.5 -161t160.5 -67h455v682h-455q-94 0 -160.5 -66.5t-66.5 -160.5v-227z" />
<glyph unicode="e" d="M115 455v227q0 188 133 322.5t321 134.5h228q188 0 321 -134.5t133 -322.5v-170q0 -25 -16 -41t-41 -16h-852q0 -94 66.5 -161t160.5 -67h625q25 0 41 -16t16 -41v-113q0 -25 -16 -41t-41 -16h-625q-188 0 -321 133.5t-133 321.5zM342 682h682q0 94 -66.5 160.5 t-160.5 66.5h-228q-94 0 -160.5 -66.5t-66.5 -160.5z" />
<glyph unicode="f" d="M115 967v114q0 23 16 40.5t39 17.5h399q0 188 133.5 321t321.5 133h170q25 0 41 -16t16 -41v-115q0 -23 -16 -39t-41 -16h-170q-94 0 -160.5 -66.5t-66.5 -160.5h397q25 0 41 -17.5t16 -40.5v-114q0 -23 -16 -40.5t-41 -17.5h-397v-852q0 -25 -16.5 -41t-41.5 -16h-112 q-25 0 -41.5 16.5t-16.5 40.5v852h-399q-23 0 -39 17.5t-16 40.5z" />
<glyph unicode="g" d="M115 -285q0 25 16 41.5t39 16.5h627q94 0 160.5 66.5t66.5 160.5h-455q-188 0 -321 133t-133 322v227q0 188 133 322.5t321 134.5h625q25 0 41 -17.5t16 -40.5v-1081q0 -188 -134 -321.5t-320 -133.5h-627q-23 0 -39 16.5t-16 41.5v112zM342 455q0 -94 66.5 -161 t160.5 -67h455v682h-455q-94 0 -160.5 -66.5t-66.5 -160.5v-227z" />
<glyph unicode="h" d="M115 57v1479q0 25 16 41t39 16h115q23 0 40 -16t17 -41v-397h455q188 0 321 -134.5t133 -322.5v-625q0 -25 -16 -41t-41 -16h-113q-25 0 -41 16.5t-16 40.5v625q0 94 -66.5 160.5t-160.5 66.5h-455v-852q-10 -57 -57 -57h-115q-23 0 -39 16t-16 41z" />
<glyph unicode="i" d="M115 57v113q0 25 16 41t39 16h399v682h-172q-23 0 -39 17.5t-16 40.5v114q0 23 16.5 40.5t38.5 17.5h342q25 0 41.5 -17.5t16.5 -40.5v-854h397q25 0 41 -16t16 -41v-113q0 -25 -16 -41t-41 -16h-1024q-23 0 -39 16t-16 41zM569 1421v115q0 25 16.5 41t41.5 16h112 q25 0 41.5 -16t16.5 -41v-115q0 -23 -16.5 -39t-41.5 -16h-112q-25 0 -41.5 16t-16.5 39z" />
<glyph unicode="j" d="M115 0q0 25 16 41t39 16h115q23 0 40 -16t17 -41q0 -94 66.5 -160.5t160.5 -66.5h228q94 0 160.5 66.5t66.5 160.5v909h-170q-25 0 -41 17.5t-16 40.5v114q0 23 16 40.5t41 17.5h340q25 0 41 -17.5t16 -40.5v-1081q0 -188 -134 -321.5t-320 -133.5h-228 q-188 0 -321 133.5t-133 321.5zM1024 1421v115q0 25 16.5 41t40.5 16h113q25 0 41 -16t16 -41v-115q0 -23 -16 -39t-41 -16h-113q-25 0 -41 16t-16 39z" />
<glyph unicode="k" d="M115 57v1479q0 25 16 41t39 16h115q23 0 40 -16t17 -41v-1149l731 733q20 19 40.5 19.5t39.5 -19.5l78 -78q16 -16 16 -40.5t-16 -40.5l-391 -392l393 -393q19 -20 19 -40t-19 -40l-80 -80q-19 -19 -39 -19t-41 19l-393 394l-393 -394q-16 -16 -41 -16h-76q-23 0 -39 16 t-16 41z" />
<glyph unicode="l" d="M115 57v113q0 25 16 41t39 16h399v1139h-172q-23 0 -39 16.5t-16 38.5v115q0 25 16.5 41t38.5 16h342q25 0 41.5 -16t16.5 -41v-1309h397q25 0 41 -16t16 -41v-113q0 -25 -16 -41t-41 -16h-1024q-23 0 -39 16t-16 41z" />
<glyph unicode="m" d="M115 57v1024q0 23 16 40.5t39 17.5h285q133 0 227 -88q94 88 227 88q143 0 242.5 -100.5t99.5 -241.5v-740q0 -25 -16 -41t-41 -16h-113q-25 0 -41 16.5t-16 40.5v740q0 45 -34 78.5t-81 33.5q-45 0 -78.5 -32.5t-33.5 -79.5v-740q0 -25 -16.5 -41t-41.5 -16h-112 q-25 0 -41.5 16.5t-16.5 40.5v740q0 45 -33.5 78.5t-80.5 33.5h-113v-852q0 -25 -17.5 -41t-39.5 -16h-115q-23 0 -39 16t-16 41z" />
<glyph unicode="n" d="M115 57v1024q0 23 16 40.5t39 17.5h627q188 0 321 -134.5t133 -322.5v-625q0 -25 -16 -41t-41 -16h-113q-25 0 -41 16.5t-16 40.5v625q0 94 -66.5 160.5t-160.5 66.5h-455v-852q0 -25 -17.5 -41t-39.5 -16h-115q-23 0 -39 16t-16 41z" />
<glyph unicode="o" d="M115 455v227q0 188 133 322.5t321 134.5h228q188 0 321 -134.5t133 -322.5v-227q0 -188 -134 -321.5t-320 -133.5h-228q-188 0 -321 133.5t-133 321.5zM342 455q0 -94 66.5 -161t160.5 -67h228q94 0 160.5 66.5t66.5 161.5v227q0 94 -66.5 160.5t-160.5 66.5h-228 q-94 0 -160.5 -66.5t-66.5 -160.5v-227z" />
<glyph unicode="p" d="M115 -397v1478q0 23 16 40.5t39 17.5h627q188 0 321 -134.5t133 -322.5v-227q0 -188 -134 -321.5t-320 -133.5h-455v-397q0 -25 -17.5 -41.5t-39.5 -16.5h-115q-23 0 -39 16.5t-16 41.5zM342 227h455q94 0 160.5 66.5t66.5 161.5v227q0 94 -66.5 160.5t-160.5 66.5h-455 v-682z" />
<glyph unicode="q" d="M115 455v227q0 188 133 322.5t321 134.5h625q25 0 41 -17.5t16 -40.5v-1478q0 -25 -16 -41.5t-41 -16.5h-113q-25 0 -41 16.5t-16 41.5v397h-455q-188 0 -321 133.5t-133 321.5zM342 455q0 -94 66.5 -161t160.5 -67h455v682h-455q-94 0 -160.5 -66.5t-66.5 -160.5v-227z " />
<glyph unicode="r" d="M115 57v1024q0 23 16 40.5t39 17.5h627q188 0 321 -134.5t133 -322.5q0 -23 -16 -39t-41 -16h-113q-25 0 -41 16t-16 39q0 94 -66.5 160.5t-160.5 66.5h-455v-852q0 -25 -17.5 -41t-39.5 -16h-115q-23 0 -39 16t-16 41z" />
<glyph unicode="s" d="M115 57v113q0 25 16 41t39 16h739q45 0 80 34t35 81q0 45 -34 79t-81 34h-454q-141 0 -240.5 100t-99.5 241.5t99 242t241 100.5h739q25 0 41 -17.5t16 -40.5v-114q0 -23 -16 -40.5t-41 -17.5h-739q-45 0 -79 -32.5t-34 -79.5t34 -81t79 -34h454q143 0 242.5 -99.5 t99.5 -240.5q0 -143 -99 -242.5t-243 -99.5h-739q-23 0 -39 16t-16 41z" />
<glyph unicode="t" d="M115 967v114q0 23 16 40.5t39 17.5h399v397q0 25 16.5 41t41.5 16h112q25 0 41.5 -16t16.5 -41v-397h397q25 0 41 -17.5t16 -40.5v-114q0 -23 -16 -40.5t-41 -17.5h-397v-454q0 -94 66.5 -161t160.5 -67h170q25 0 41 -16t16 -41v-113q0 -25 -16 -41t-41 -16h-170 q-188 0 -321.5 133t-133.5 322v454h-399q-23 0 -39 17.5t-16 40.5z" />
<glyph unicode="u" d="M115 455v626q0 23 16 40.5t39 17.5h115q23 0 40 -17.5t17 -40.5v-626q0 -94 66.5 -161t160.5 -67h455v854q0 23 16.5 40.5t40.5 17.5h113q25 0 41 -17.5t16 -40.5v-1024q0 -25 -16 -41t-41 -16h-625q-188 0 -321 133.5t-133 321.5z" />
<glyph unicode="v" d="M115 551v530q0 23 16 40.5t39 17.5h115q23 0 40 -17.5t17 -40.5v-467l340 -342l342 342v465q0 25 16.5 42.5t40.5 17.5h113q25 0 41 -17.5t16 -40.5v-530q0 -27 -18 -43l-512 -514q-12 -14 -39 -14q-25 0 -39 14l-512 514q-16 16 -16 43z" />
<glyph unicode="w" d="M115 342v739q0 23 16 40.5t39 17.5h115q23 0 40 -17.5t17 -40.5v-739q0 -47 34 -81t79 -34t79.5 34t34.5 81v285q0 23 16.5 39t41.5 16h112q25 0 41.5 -16.5t16.5 -38.5v-285q0 -47 33.5 -81t78.5 -34t80 34t35 81v739q0 23 16.5 40.5t40.5 17.5h113q25 0 41 -17.5 t16 -40.5v-739q0 -143 -99 -242.5t-243 -99.5q-131 0 -227 86q-96 -86 -227 -86q-141 0 -240.5 99.5t-99.5 242.5z" />
<glyph unicode="x" d="M110 135.5q0 20.5 19 40.5l395 393l-393 392q-16 16 -16 39.5t16 39.5l80 80q19 20 39 20h1q20 0 40 -20l391 -391l391 391q21 20 41 20t39 -20l80 -80q16 -16 16 -39.5t-16 -39.5l-391 -392l393 -393q19 -20 19 -40t-19 -40l-80 -80q-19 -19 -39 -19l-39 19l-395 394 l-393 -394q-16 -16 -40 -16t-40 16l-80 80q-19 19 -19 39.5z" />
<glyph unicode="y" d="M115 -285q0 25 16 41.5t39 16.5h627q94 0 160.5 66.5t66.5 160.5h-455q-188 0 -321 133t-133 322v626q0 23 16 40.5t39 17.5h115q23 0 40 -17.5t17 -40.5v-626q0 -94 66.5 -161t160.5 -67h455v854q8 57 57 58h113q25 0 41 -17.5t16 -40.5v-1081q0 -188 -134 -321.5 t-320 -133.5h-627q-23 0 -39 16.5t-16 41.5v112z" />
<glyph unicode="z" d="M115 57v113q0 25 16 41t39 16h12l682 682h-694q-23 0 -39 17.5t-16 40.5v114q0 23 16 40.5t39 17.5h1024q25 0 41 -17.5t16 -40.5v-114q0 -23 -16 -40.5t-41 -17.5h-10l-684 -682h694q25 0 41 -16t16 -41v-113q0 -25 -16 -41t-41 -16h-1024q-23 0 -39 16t-16 41z" />
<glyph unicode="{" d="M342 739v115q0 23 16.5 39t38.5 16h172v230q0 188 133.5 321t321.5 133h170q25 0 41 -16t16 -41v-115q0 -23 -16 -39t-41 -16h-170q-94 0 -160.5 -66.5t-66.5 -160.5v-684q0 -94 66.5 -161t160.5 -67h170q25 0 41 -16t16 -41v-113q0 -25 -16 -41t-41 -16h-170 q-188 0 -321.5 133t-133.5 322v227h-172q-23 0 -39 17t-16 40z" />
<glyph unicode="|" d="M569 -397v1933q0 25 16.5 41t41.5 16h112q25 0 41.5 -16t16.5 -41v-1933q0 -25 -16.5 -41.5t-41.5 -16.5h-112q-25 0 -41.5 16.5t-16.5 41.5z" />
<glyph unicode="}" d="M115 57v113q0 25 16 41t39 16h172q94 0 160.5 66.5t66.5 161.5v684q0 94 -66.5 160.5t-160.5 66.5h-172q-23 0 -39 16.5t-16 38.5v115q0 25 16 41t39 16h172q186 0 320.5 -133t134.5 -321v-230h170q25 0 41 -16t16 -39v-115q0 -23 -16.5 -40t-40.5 -17h-170v-227 q0 -188 -134.5 -321.5t-320.5 -133.5h-172q-23 0 -39 16t-16 41z" />
<glyph unicode="~" d="M115 797q0 141 99 241.5t240.5 100.5t242 -100.5t100.5 -241.5q0 -47 33.5 -81t78.5 -34t80 34t35 81q0 23 16.5 40t40.5 17h113q25 0 41 -17.5t16 -39.5q0 -141 -99 -241.5t-243 -100.5q-141 0 -240.5 100t-99.5 242q0 47 -33.5 79.5t-80.5 32.5t-80 -32.5t-33 -79.5 q0 -25 -17.5 -41.5t-39.5 -16.5h-115q-23 0 -39 16.5t-16 41.5z" />
<glyph unicode="&#xa0;" />
<glyph unicode="&#xa1;" d="M797 57v1024q0 23 16 40.5t41 17.5h113q25 0 41 -17.5t16 -40.5v-1024q0 -25 -16.5 -41t-40.5 -16h-113q-25 0 -41 16t-16 41zM797 1421v115q0 25 16 41t41 16h113q25 0 41 -16t16 -41v-115q0 -23 -16.5 -39t-40.5 -16h-113q-25 0 -41 16t-16 39z" />
<glyph unicode="&#xa2;" d="M115 682v227q0 188 133 322.5t321 134.5h228v170q0 25 16 41t41 16h113q25 0 41 -16t16 -41v-170h170q25 0 41 -17.5t16 -39.5v-115q0 -23 -16 -39t-41 -16h-170v-684h170q25 0 41 -16.5t16 -41.5v-112q0 -25 -16 -41.5t-41 -16.5h-170v-170q0 -25 -16.5 -41t-40.5 -16 h-113q-25 0 -41 16.5t-16 40.5v170h-228q-188 0 -321 134.5t-133 320.5zM342 682q0 -94 66.5 -160.5t160.5 -66.5h228v684h-228q-94 0 -160.5 -67.5t-66.5 -162.5v-227z" />
<glyph unicode="&#xa3;" d="M115 57v113q0 25 16 41t39 16h172v228h-172q-23 0 -39 16t-16 41v115q0 23 16 39t39 16h172v457q0 188 134 321t320.5 133t320.5 -133t134 -321q0 -25 -16 -41.5t-41 -16.5h-113q-25 0 -41 16.5t-16 41.5q0 94 -66.5 160.5t-161 66.5t-161 -66.5t-66.5 -160.5v-457h398 q25 0 41 -16.5t16 -38.5v-115q0 -25 -16.5 -41t-40.5 -16h-398v-228h625q25 0 41 -16t16 -41v-113q0 -25 -16 -41t-41 -16h-1024q-23 0 -39 16t-16 41z" />
<glyph unicode="&#xa5;" d="M115 285v112q0 25 16 41.5t39 16.5h399v227h-399q-23 0 -39 17.5t-16 39.5v115q0 23 16 39t39 16h242l-281 279q-16 20 -16 43v305q0 25 16 41t39 16h115q23 0 40 -16t17 -41v-242l340 -340l342 340v242q0 25 16.5 41t40.5 16h113q25 0 41 -16t16 -41v-305q0 -25 -18 -43 l-279 -279h240q25 0 41 -16t16 -39v-115q0 -23 -16 -40t-41 -17h-397v-227h397q25 0 41 -16.5t16 -41.5v-112q0 -25 -16 -41.5t-41 -16.5h-397v-170q0 -25 -16.5 -41t-41.5 -16h-112q-25 0 -41.5 16.5t-16.5 40.5v170h-399q-23 0 -39 16.5t-16 41.5z" />
<glyph unicode="&#xa6;" d="M569 -397v794q0 25 16.5 41.5t41.5 16.5h112q25 0 41.5 -16.5t16.5 -41.5v-794q0 -25 -16.5 -41.5t-41.5 -16.5h-112q-25 0 -41.5 16.5t-16.5 41.5zM569 739v797q0 25 16.5 41t41.5 16h112q25 0 41.5 -16t16.5 -41v-797q0 -23 -16.5 -40t-41.5 -17h-112q-25 0 -41.5 17 t-16.5 40z" />
<glyph unicode="&#xa7;" d="M115 57v113q0 25 16 41t39 16h739q45 0 80 34t35 81q0 45 -34 79t-81 34h-454q-141 0 -240.5 100t-99.5 242q0 131 86 227q-86 96 -86 227q0 141 99 241.5t241 100.5h739q25 0 41 -16t16 -41v-115q0 -23 -16 -39t-41 -16h-739q-45 0 -79 -34t-34 -81t34 -79.5t79 -32.5 h454q143 0 242.5 -100.5t99.5 -241.5q0 -131 -86 -228q86 -98 86 -227q0 -143 -99 -242.5t-243 -99.5h-739q-23 0 -39 16t-16 41zM342 797q0 -47 34 -81t79 -34h454q45 0 80 34t35 81q0 45 -34 78.5t-81 33.5h-454q-45 0 -79 -32.5t-34 -79.5z" />
<glyph unicode="&#xa8;" d="M342 1421v115q0 25 16.5 41t38.5 16h115q25 0 41 -16t16 -41v-115q0 -23 -16 -39t-41 -16h-115q-23 0 -39 16t-16 39zM797 1421v115q0 25 16 41t41 16h113q25 0 41 -16t16 -41v-115q0 -23 -16.5 -39t-40.5 -16h-113q-25 0 -41 16t-16 39z" />
<glyph unicode="&#xa9;" d="M115 -285q0 25 16 41.5t39 16.5h1024q25 0 41 -16.5t16 -41.5v-112q0 -25 -16 -41.5t-41 -16.5h-1024q-23 0 -39 16.5t-16 41.5v112zM115 455v227q0 188 133 322.5t321 134.5h625q25 0 41 -17.5t16 -40.5v-114q0 -23 -16 -40.5t-41 -17.5h-625q-94 0 -160.5 -66.5 t-66.5 -160.5v-227q0 -94 66.5 -161t160.5 -67h625q25 0 41 -16t16 -41v-113q0 -25 -16 -41t-41 -16h-625q-188 0 -321 133.5t-133 321.5zM115 1421v115q0 25 16 41t39 16h1024q25 0 41 -16t16 -41v-115q0 -23 -16 -39t-41 -16h-1024q-23 0 -39 16t-16 39z" />
<glyph unicode="&#xaa;" d="M115 796.5q0 141.5 99 242t241 100.5h569q0 94 -66.5 160.5t-160.5 66.5h-400q-23 0 -39 16.5t-16 38.5v115q0 25 16.5 41t38.5 16h400q186 0 320 -133t134 -321v-627q0 -25 -16 -41t-41 -16h-739q-141 0 -240.5 100t-99.5 241.5zM342 797q0 -47 33 -81t80 -34h569v227 h-569q-47 0 -80 -32.5t-33 -79.5z" />
<glyph unicode="&#xab;" d="M94 797q0 23 12 39l742 741q41 39 80 0l80 -80q16 -16 16 -39.5t-16 -40.5l-621 -620l621 -621q39 -41 0 -80l-80 -80q-39 -39 -80 0l-742 742q-12 12 -12 39zM776 797q0 25 15 39l286 286q39 39 78 0l80 -80q39 -39 0 -79l-166 -166l166 -166q39 -41 0 -80l-80 -80 q-39 -39 -78 0l-286 287q-15 12 -15 39z" />
<glyph unicode="&#xad;" d="M115 512v115q0 23 16 39t39 16h1024q25 0 41 -16.5t16 -38.5v-115q0 -25 -16 -41t-41 -16h-1024q-23 0 -39 16t-16 41z" />
<glyph unicode="&#xae;" d="M115 57v1024q0 23 16 40.5t39 17.5h739q143 0 242.5 -100.5t99.5 -241.5q0 -131 -86 -227.5t-215 -112.5l283 -281q39 -41 0 -80l-80 -80q-39 -39 -80 0l-438 439h-293v-398q0 -25 -17.5 -41t-39.5 -16h-115q-23 0 -39 16t-16 41zM115 -285q0 25 16 41.5t39 16.5h1024 q25 0 41 -16.5t16 -41.5v-112q0 -25 -16 -41.5t-41 -16.5h-1024q-23 0 -39 16.5t-16 41.5v112zM115 1421v115q0 25 16 41t39 16h1024q25 0 41 -16t16 -41v-115q0 -23 -16 -39t-41 -16h-1024q-23 0 -39 16t-16 39zM342 682h567q49 0 82 34t33 81t-33 79.5t-82 32.5h-567v-227 z" />
<glyph unicode="&#xaf;" d="M342 1421v115q0 25 16.5 41t38.5 16h570q25 0 41 -16t16 -41v-115q0 -23 -16.5 -39t-40.5 -16h-570q-23 0 -39 16t-16 39z" />
<glyph unicode="&#xb0;" d="M342 1251.5q0 141.5 99.5 241.5t240.5 100q143 0 242.5 -100t99.5 -241.5t-99.5 -242t-242.5 -100.5q-141 0 -240.5 100.5t-99.5 242zM569 1251q0 -47 33 -79.5t80 -32.5t81 32.5t34 79.5t-34 81t-81 34t-80 -34t-33 -81z" />
<glyph unicode="&#xb1;" d="M115 57v113q0 25 16 41t39 16h1024q25 0 41 -16t16 -41v-113q0 -25 -16 -41t-41 -16h-1024q-23 0 -39 16t-16 41zM115 967v114q0 23 16 40.5t39 17.5h399v397q0 25 16.5 41t41.5 16h112q25 0 41.5 -16t16.5 -41v-397h397q25 0 41 -17.5t16 -40.5v-114q0 -23 -16 -40.5 t-41 -17.5h-397v-397q0 -25 -16.5 -41t-41.5 -16h-112q-25 0 -41.5 16t-16.5 41v397h-399q-23 0 -39 17.5t-16 40.5z" />
<glyph unicode="&#xb2;" d="M115 57v113q0 25 16 41t39 16h39l745 748q70 70 70 164t-66.5 160.5t-160.5 66.5h-228q-94 0 -160.5 -66.5t-66.5 -160.5q0 -25 -17.5 -41.5t-39.5 -16.5h-115q-23 0 -39 16.5t-16 41.5q0 188 133 321t321 133h228q186 0 320 -133t134 -321q0 -190 -133 -324l-590 -588 h666q25 0 41 -16t16 -41v-113q0 -25 -16 -41t-41 -16h-1024q-23 0 -39 16t-16 41z" />
<glyph unicode="&#xb3;" d="M115 455q0 25 16 41t39 16h115q23 0 40 -16.5t17 -40.5q0 -94 66.5 -161t160.5 -67h228q94 0 160.5 66.5t66.5 161t-66.5 161t-160.5 66.5h-400q-23 0 -39 17.5t-16 39.5v115q0 23 16.5 39t38.5 16h15l452 457h-694q-23 0 -39 16.5t-16 38.5v115q0 25 16 41t39 16h1024 q25 0 41 -16t16 -41v-115q0 -23 -16 -39t-41 -16h-10l-455 -457h68q186 0 320 -133t134 -321.5t-134 -321.5t-320 -133h-228q-188 0 -321 133.5t-133 321.5z" />
<glyph unicode="&#xb4;" d="M588 1233q-39 41 0 80l260 262q41 39 80 0l80 -80q16 -16 16 -39.5t-16 -40.5l-263 -262q-39 -39 -77 0z" />
<glyph unicode="&#xb6;" d="M115 1138.5q0 188.5 133 321.5t321 133h625q25 0 41 -16t16 -41v-115q0 -23 -16 -39t-41 -16h-170v-1366q0 -188 -133 -321.5t-322 -133.5q-25 0 -41 16.5t-16 41.5v112q0 25 16.5 41.5t40.5 16.5q94 0 161 66.5t67 160.5v682h-228q-188 0 -321 134t-133 322.5z" />
<glyph unicode="&#xb7;" d="M569 739v342q0 23 16.5 40.5t41.5 17.5h340q25 0 41 -17.5t16 -40.5v-342q0 -23 -16.5 -40t-40.5 -17h-340q-25 0 -41.5 17t-16.5 40z" />
<glyph unicode="&#xb8;" d="M246 -281l489 490q16 16 40 16t40 -16l80 -80q39 -39 0 -80l-489 -487q-16 -18 -40 -18.5t-40 18.5l-80 78q-39 40 0 79z" />
<glyph unicode="&#xb9;" d="M115 57v113q0 25 16 41t39 16h399v979l-280 -280q-16 -16 -40 -16.5t-40 16.5l-80 80q-39 39 0 79l440 439v10q0 27 16.5 43t41.5 16h112q25 0 41.5 -16t16.5 -41v-1309h397q25 0 41 -16t16 -41v-113q0 -25 -16 -41t-41 -16h-1024q-23 0 -39 16t-16 41z" />
<glyph unicode="&#xba;" d="M115 909v230q0 188 133 321t321 133h228q186 0 320 -133t134 -321v-230q0 -188 -134 -321t-320 -133h-228q-188 0 -321 133t-133 321zM342 909q0 -94 66.5 -160.5t160.5 -66.5h228q94 0 160.5 66.5t66.5 160.5v230q0 94 -66.5 160.5t-160.5 66.5h-228q-104 0 -209 -190 l-18 -37v-230z" />
<glyph unicode="&#xbb;" d="M129 551q-39 39 0 80l166 166l-166 166q-39 41 0 79l80 80q16 16 39.5 16.5t40.5 -16.5l286 -286q14 -14 15 -39q0 -27 -15 -39l-286 -287q-16 -16 -40 -16t-40 16zM340 1457.5q0 23.5 16 39.5l80 80q16 16 40 16t40 -16l741 -741q14 -14 15 -39q0 -27 -15 -39l-741 -742 q-16 -16 -39.5 -16t-40.5 16l-80 80q-39 39 0 80l623 621l-623 620q-16 17 -16 40.5z" />
<glyph unicode="&#xbf;" d="M115 455q0 190 133 323l370 371q41 39 80 0l82 -82q39 -39 0 -80l-368 -369q-70 -70 -70 -164t66.5 -160.5t160.5 -66.5h228q94 0 160.5 66.5t66.5 161.5q0 25 16.5 41t40.5 16h113q25 0 41 -16.5t16 -40.5q0 -188 -134 -321.5t-320 -133.5h-228q-188 0 -321 133.5 t-133 321.5zM569 1421v115q0 25 16.5 41t41.5 16h112q25 0 41.5 -16t16.5 -41v-115q0 -23 -16.5 -39t-41.5 -16h-112q-25 0 -41.5 16t-16.5 39z" />
<glyph unicode="&#xc0;" d="M115 57v1082q0 188 133 321t321 133h78q-18 4 -29 17l-262 260q-16 16 -16 39.5t16 40.5l80 80q39 39 80 0l262 -263q39 -39 0 -79l-80 -78q-10 -12 -28 -17h127q186 0 320 -133t134 -321v-1082q0 -25 -16 -41t-41 -16h-113q-25 0 -41 16.5t-16 40.5v625h-682v-625 q0 -25 -17.5 -41t-39.5 -16h-115q-23 0 -39 16t-16 41zM342 909h682v230q0 94 -66.5 160.5t-160.5 66.5h-228q-94 0 -160.5 -66.5t-66.5 -160.5v-230z" />
<glyph unicode="&#xc1;" d="M115 57v1082q0 188 133 321t321 133h228q186 0 320 -133t134 -321v-1082q0 -25 -16 -41t-41 -16h-113q-25 0 -41 16.5t-16 40.5v625h-682v-625q0 -25 -17.5 -41t-39.5 -16h-115q-23 0 -39 16t-16 41zM342 909h682v230q0 94 -66.5 160.5t-160.5 66.5h-228 q-94 0 -160.5 -66.5t-66.5 -160.5v-230zM588 1688q-39 41 0 79l260 263q41 39 80 0l80 -80q16 -16 16 -40t-16 -40l-263 -260q-16 -18 -38.5 -18.5t-38.5 18.5z" />
<glyph unicode="&#xc2;" d="M115 57v1082q0 188 133 321t321 133h228q186 0 320 -133t134 -321v-1082q0 -25 -16 -41t-41 -16h-113q-25 0 -41 16.5t-16 40.5v625h-682v-625q0 -25 -17.5 -41t-39.5 -16h-115q-23 0 -39 16t-16 41zM342 909h682v230q0 94 -66.5 160.5t-160.5 66.5h-228 q-94 0 -160.5 -66.5t-66.5 -160.5v-230zM356 1688q-39 41 0 79l287 287q14 14 39 14q27 0 39 -14l287 -287q39 -39 0 -79l-80 -78q-39 -41 -80 0l-166 166l-166 -166q-16 -18 -39.5 -18.5t-40.5 18.5z" />
<glyph unicode="&#xc3;" d="M115 57v1082q0 188 133 321t321 133h19q-18 53 -19 113q0 47 -33.5 81t-80.5 34t-80 -34t-33 -81q0 -23 -17.5 -39t-39.5 -16h-115q-23 0 -39 16t-16 39q0 143 99 242.5t240.5 99.5t242 -99.5t100.5 -242.5q0 -47 33.5 -80t78.5 -33q47 0 81 34t34 79q0 25 16.5 41 t40.5 16h113q25 0 41 -16t16 -41q0 -156 -121 -260q121 -131 121 -307v-1082q0 -25 -16 -41t-41 -16h-113q-25 0 -41 16.5t-16 40.5v625h-682v-625q0 -25 -17.5 -41t-39.5 -16h-115q-23 0 -39 16t-16 41zM342 909h682v230q0 94 -66.5 160.5t-160.5 66.5h-228 q-94 0 -160.5 -66.5t-66.5 -160.5v-230z" />
<glyph unicode="&#xc4;" d="M115 57v1082q0 188 133 321t321 133h228q186 0 320 -133t134 -321v-1082q0 -25 -16 -41t-41 -16h-113q-25 0 -41 16.5t-16 40.5v625h-682v-625q0 -25 -17.5 -41t-39.5 -16h-115q-23 0 -39 16t-16 41zM342 909h682v230q0 94 -66.5 160.5t-160.5 66.5h-228 q-94 0 -160.5 -66.5t-66.5 -160.5v-230zM342 1878v113q0 25 16.5 41t38.5 16h115q25 0 41 -16.5t16 -40.5v-113q0 -25 -16 -41t-41 -16h-115q-23 0 -39 16t-16 41zM797 1878v113q0 25 16 41t41 16h113q25 0 41 -16.5t16 -40.5v-113q0 -25 -16.5 -41t-40.5 -16h-113 q-25 0 -41 16t-16 41z" />
<glyph unicode="&#xc5;" d="M115 57v1082q0 135 72.5 245.5t191.5 165.5q-37 72 -37 156q0 141 99.5 241.5t240.5 100.5t241.5 -100.5t100.5 -241.5q0 -78 -37 -156q119 -55 191.5 -165.5t72.5 -245.5v-1082q0 -25 -16 -41t-41 -16h-113q-25 0 -41 16.5t-16 40.5v625h-682v-625q0 -25 -17.5 -41 t-39.5 -16h-115q-23 0 -39 16t-16 41zM342 909h682v230q0 94 -66.5 160.5t-160.5 66.5h-228q-94 0 -160.5 -66.5t-66.5 -160.5v-230zM569 1706q0 -47 33 -80t80 -33t81 33t34 80t-34 81t-81 34t-80 -34t-33 -81z" />
<glyph unicode="&#xc6;" d="M115 57v1082q0 188 133 321t321 133h625q25 0 41 -16t16 -41v-115q0 -23 -16 -39t-41 -16h-397v-457h170q25 0 41 -16t16 -39v-115q0 -23 -16.5 -40t-40.5 -17h-170v-455h397q25 0 41 -16t16 -41v-113q0 -25 -16 -41t-41 -16h-567q-25 0 -41.5 16.5t-16.5 40.5v625h-227 v-625q0 -25 -17.5 -41t-39.5 -16h-115q-23 0 -39 16t-16 41zM342 909h227v457q-94 0 -160.5 -66.5t-66.5 -160.5v-230z" />
<glyph unicode="&#xc7;" d="M115 455v684q0 188 133 321t321 133h228q186 0 320 -133t134 -321q0 -25 -16 -41.5t-41 -16.5h-113q-25 0 -41 16.5t-16 41.5q0 94 -66.5 160.5t-160.5 66.5h-228q-94 0 -160.5 -66.5t-66.5 -160.5v-684q0 -94 66.5 -161t160.5 -67h228q94 0 160.5 66.5t66.5 161.5 q0 25 16.5 41t40.5 16h113q25 0 41 -16.5t16 -40.5q0 -174 -117.5 -304.5t-287.5 -148.5l-440 -440q-16 -18 -40 -18.5t-40 18.5l-80 78q-39 41 0 79l282 283q-176 16 -294.5 146.5t-118.5 306.5z" />
<glyph unicode="&#xc8;" d="M115 57v1479q0 25 16 41t39 16h477q-18 4 -29 17l-262 260q-16 16 -16 39.5t16 40.5l80 80q39 39 80 0l262 -263q39 -39 0 -79l-80 -78q-10 -12 -28 -17h524q25 0 41 -16t16 -41v-115q0 -23 -16 -39t-41 -16h-852v-457h625q25 0 41 -16t16 -39v-115q0 -23 -16.5 -40 t-40.5 -17h-625v-455h852q25 0 41 -16t16 -41v-113q0 -25 -16 -41t-41 -16h-1024q-23 0 -39 16t-16 41z" />
<glyph unicode="&#xc9;" d="M115 57v1479q0 25 16 41t39 16h526q-18 4 -28 17l-80 78q-39 41 0 79l260 263q41 39 80 0l80 -80q16 -16 16 -40t-16 -40l-263 -260q-10 -12 -28 -17h477q25 0 41 -16t16 -41v-115q0 -23 -16 -39t-41 -16h-852v-457h625q25 0 41 -16t16 -39v-115q0 -23 -16.5 -40 t-40.5 -17h-625v-455h852q25 0 41 -16t16 -41v-113q0 -25 -16 -41t-41 -16h-1024q-23 0 -39 16t-16 41z" />
<glyph unicode="&#xca;" d="M115 57v1479q0 25 16 41t39 16h295q-18 4 -29 17l-80 78q-39 41 0 79l287 287q14 14 39 14q27 0 39 -14l287 -287q39 -39 0 -79l-80 -78q-10 -12 -29 -17h295q25 0 41 -16t16 -41v-115q0 -23 -16 -39t-41 -16h-852v-457h625q25 0 41 -16t16 -39v-115q0 -23 -16.5 -40 t-40.5 -17h-625v-455h852q25 0 41 -16t16 -41v-113q0 -25 -16 -41t-41 -16h-1024q-23 0 -39 16t-16 41zM487 1593h392q-16 2 -31 17l-166 166l-166 -166q-11 -13 -29 -17z" />
<glyph unicode="&#xcb;" d="M115 57v1479q0 25 16 41t39 16h1024q25 0 41 -16t16 -41v-115q0 -23 -16 -39t-41 -16h-852v-457h625q25 0 41 -16t16 -39v-115q0 -23 -16.5 -40t-40.5 -17h-625v-455h852q25 0 41 -16t16 -41v-113q0 -25 -16 -41t-41 -16h-1024q-23 0 -39 16t-16 41zM342 1878v113 q0 25 16.5 41t38.5 16h115q25 0 41 -16.5t16 -40.5v-113q0 -25 -16 -41t-41 -16h-115q-23 0 -39 16t-16 41zM797 1878v113q0 25 16 41t41 16h113q25 0 41 -16.5t16 -40.5v-113q0 -25 -16.5 -41t-40.5 -16h-113q-25 0 -41 16t-16 41z" />
<glyph unicode="&#xcc;" d="M115 57v113q0 25 16 41t39 16h399v1139h-172q-23 0 -39 16.5t-16 38.5v115q0 25 16.5 41t38.5 16h250q-18 4 -29 17l-262 260q-16 16 -16 39.5t16 40.5l80 80q39 39 80 0l262 -263q39 -39 0 -79l-80 -78q-10 -12 -28 -17h297q25 0 41 -16t16 -41v-115q0 -23 -16.5 -39 t-40.5 -16h-170v-1139h397q25 0 41 -16t16 -41v-113q0 -25 -16 -41t-41 -16h-1024q-23 0 -39 16t-16 41z" />
<glyph unicode="&#xcd;" d="M115 57v113q0 25 16 41t39 16h399v1139h-172q-23 0 -39 16.5t-16 38.5v115q0 25 16.5 41t38.5 16h299q-18 4 -28 17l-80 78q-39 41 0 79l260 263q41 39 80 0l80 -80q16 -16 16 -40t-16 -40l-263 -260q-10 -12 -28 -17h250q25 0 41 -16t16 -41v-115q0 -23 -16.5 -39 t-40.5 -16h-170v-1139h397q25 0 41 -16t16 -41v-113q0 -25 -16 -41t-41 -16h-1024q-23 0 -39 16t-16 41z" />
<glyph unicode="&#xce;" d="M115 57v113q0 25 16 41t39 16h399v1139h-172q-23 0 -39 16.5t-16 38.5v115q0 25 16.5 41t38.5 16h68q-18 4 -29 17l-80 78q-39 41 0 79l287 287q14 14 39 14q27 0 39 -14l287 -287q39 -39 0 -79l-80 -78q-10 -12 -29 -17h68q25 0 41 -16t16 -41v-115q0 -23 -16.5 -39 t-40.5 -16h-170v-1139h397q25 0 41 -16t16 -41v-113q0 -25 -16 -41t-41 -16h-1024q-23 0 -39 16t-16 41zM487 1593h392q-16 2 -31 17l-166 166l-166 -166q-11 -13 -29 -17z" />
<glyph unicode="&#xcf;" d="M115 57v113q0 25 16 41t39 16h399v1139h-172q-23 0 -39 16.5t-16 38.5v115q0 25 16.5 41t38.5 16h570q25 0 41 -16t16 -41v-115q0 -23 -16.5 -39t-40.5 -16h-170v-1139h397q25 0 41 -16t16 -41v-113q0 -25 -16 -41t-41 -16h-1024q-23 0 -39 16t-16 41zM342 1878v113 q0 25 16.5 41t38.5 16h115q25 0 41 -16.5t16 -40.5v-113q0 -25 -16 -41t-41 -16h-115q-23 0 -39 16t-16 41zM797 1878v113q0 25 16 41t41 16h113q25 0 41 -16.5t16 -40.5v-113q0 -25 -16.5 -41t-40.5 -16h-113q-25 0 -41 16t-16 41z" />
<glyph unicode="&#xd0;" d="M115 57v1479q0 25 16 41t39 16h627q186 0 320 -133t134 -321v-684q0 -188 -134 -321.5t-320 -133.5h-627q-23 0 -39 16t-16 41zM342 227h455q94 0 160.5 66.5t66.5 161.5v684q0 94 -66.5 160.5t-160.5 66.5h-455v-457h397q25 0 41.5 -16t16.5 -39v-115q0 -23 -16.5 -40 t-41.5 -17h-397v-455z" />
<glyph unicode="&#xd1;" d="M115 57v1479q0 25 16 41t39 16h115q23 0 40 -16t17 -41v-240l682 -682v770q-53 -18 -115 -18q-141 0 -240.5 99.5t-99.5 240.5q0 47 -33.5 81t-80.5 34t-80 -34t-33 -81q0 -23 -17.5 -39t-39.5 -16h-115q-23 0 -39 16t-16 39q0 143 99 242.5t240.5 99.5t242 -99.5 t100.5 -242.5q0 -47 33.5 -80t78.5 -33q47 0 81 34t34 79q0 25 16.5 41t40.5 16h113q25 0 41 -16t16 -41v-1649q0 -25 -16 -41t-41 -16h-113q-25 0 -41 16.5t-16 40.5v238l-682 684v-922q0 -25 -17.5 -41t-39.5 -16h-115q-23 0 -39 16t-16 41z" />
<glyph unicode="&#xd2;" d="M115 455v684q0 188 133 321t321 133h78q-18 4 -29 17l-262 260q-16 16 -16 39.5t16 40.5l80 80q39 39 80 0l262 -263q39 -39 0 -79l-80 -78q-10 -12 -28 -17h127q186 0 320 -133t134 -321v-684q0 -188 -134 -321.5t-320 -133.5h-228q-188 0 -321 133.5t-133 321.5z M342 455q0 -94 66.5 -161t160.5 -67h228q94 0 160.5 66.5t66.5 161.5v684q0 94 -66.5 160.5t-160.5 66.5h-228q-94 0 -160.5 -66.5t-66.5 -160.5v-684z" />
<glyph unicode="&#xd3;" d="M115 455v684q0 188 133 321t321 133h228q186 0 320 -133t134 -321v-684q0 -188 -134 -321.5t-320 -133.5h-228q-188 0 -321 133.5t-133 321.5zM342 455q0 -94 66.5 -161t160.5 -67h228q94 0 160.5 66.5t66.5 161.5v684q0 94 -66.5 160.5t-160.5 66.5h-228 q-94 0 -160.5 -66.5t-66.5 -160.5v-684zM588 1688q-39 41 0 79l260 263q41 39 80 0l80 -80q16 -16 16 -40t-16 -40l-263 -260q-16 -18 -38.5 -18.5t-38.5 18.5z" />
<glyph unicode="&#xd4;" d="M115 455v684q0 188 133 321t321 133h228q186 0 320 -133t134 -321v-684q0 -188 -134 -321.5t-320 -133.5h-228q-188 0 -321 133.5t-133 321.5zM342 455q0 -94 66.5 -161t160.5 -67h228q94 0 160.5 66.5t66.5 161.5v684q0 94 -66.5 160.5t-160.5 66.5h-228 q-94 0 -160.5 -66.5t-66.5 -160.5v-684zM356 1688q-39 41 0 79l287 287q14 14 39 14q27 0 39 -14l287 -287q39 -39 0 -79l-80 -78q-39 -41 -80 0l-166 166l-166 -166q-16 -18 -39.5 -18.5t-40.5 18.5z" />
<glyph unicode="&#xd5;" d="M115 455v684q0 188 133 321t321 133h19q-18 53 -19 113q0 47 -33.5 81t-80.5 34t-80 -34t-33 -81q0 -23 -17.5 -39t-39.5 -16h-115q-23 0 -39 16t-16 39q0 143 99 242.5t240.5 99.5t242 -99.5t100.5 -242.5q0 -47 33.5 -80t78.5 -33q47 0 81 34t34 79q0 25 16.5 41 t40.5 16h113q25 0 41 -16t16 -41q0 -156 -121 -260q121 -131 121 -307v-684q0 -188 -134 -321.5t-320 -133.5h-228q-188 0 -321 133.5t-133 321.5zM342 455q0 -94 66.5 -161t160.5 -67h228q94 0 160.5 66.5t66.5 161.5v684q0 94 -66.5 160.5t-160.5 66.5h-228 q-94 0 -160.5 -66.5t-66.5 -160.5v-684z" />
<glyph unicode="&#xd6;" d="M115 455v684q0 188 133 321t321 133h228q186 0 320 -133t134 -321v-684q0 -188 -134 -321.5t-320 -133.5h-228q-188 0 -321 133.5t-133 321.5zM342 455q0 -94 66.5 -161t160.5 -67h228q94 0 160.5 66.5t66.5 161.5v684q0 94 -66.5 160.5t-160.5 66.5h-228 q-94 0 -160.5 -66.5t-66.5 -160.5v-684zM342 1878v113q0 25 16.5 41t38.5 16h115q25 0 41 -16.5t16 -40.5v-113q0 -25 -16 -41t-41 -16h-115q-23 0 -39 16t-16 41zM797 1878v113q0 25 16 41t41 16h113q25 0 41 -16.5t16 -40.5v-113q0 -25 -16.5 -41t-40.5 -16h-113 q-25 0 -41 16t-16 41z" />
<glyph unicode="&#xd7;" d="M115 1227.5q0 23.5 16 40.5l80 80q16 16 39.5 16t40.5 -16l391 -392l391 392q41 39 80 0l80 -80q16 -16 16 -40t-16 -40l-391 -391l393 -394q39 -39 0 -79l-80 -80q-39 -39 -78 0l-395 393l-393 -393q-39 -39 -80 0l-80 80q-39 41 0 79l395 394l-393 391q-16 16 -16 39.5 z" />
<glyph unicode="&#xd8;" d="M115 455v684q0 188 133 321t321 133h228q186 0 320 -133t134 -321v-684q0 -188 -134 -321.5t-320 -133.5h-228q-188 0 -321 133.5t-133 321.5zM342 616l645 646q-68 104 -190 104h-228q-94 0 -160.5 -66.5t-66.5 -160.5v-523zM377 332q68 -104 192 -105h228 q94 0 160.5 66.5t66.5 161.5v524z" />
<glyph unicode="&#xd9;" d="M115 455v1081q0 25 16 41t39 16h115q23 0 40 -16t17 -41v-1081q0 -94 66.5 -161t160.5 -67h228q94 0 160.5 66.5t66.5 161.5v1081q0 25 16.5 41t40.5 16h113q25 0 41 -16t16 -41v-1081q0 -188 -134 -321.5t-320 -133.5h-228q-188 0 -321 133.5t-133 321.5zM340 1909.5 q0 23.5 16 40.5l80 80q39 39 80 0l262 -263q39 -39 0 -79l-80 -78q-16 -18 -39.5 -18.5t-40.5 18.5l-262 260q-16 16 -16 39.5z" />
<glyph unicode="&#xda;" d="M115 455v1081q0 25 16 41t39 16h115q23 0 40 -16t17 -41v-1081q0 -94 66.5 -161t160.5 -67h228q94 0 160.5 66.5t66.5 161.5v1081q0 25 16.5 41t40.5 16h113q25 0 41 -16t16 -41v-1081q0 -188 -134 -321.5t-320 -133.5h-228q-188 0 -321 133.5t-133 321.5zM588 1688 q-39 41 0 79l260 263q41 39 80 0l80 -80q16 -16 16 -40t-16 -40l-263 -260q-16 -18 -38.5 -18.5t-38.5 18.5z" />
<glyph unicode="&#xdb;" d="M115 455v1081q0 25 16 41t39 16h115q23 0 40 -16t17 -41v-1081q0 -94 66.5 -161t160.5 -67h228q94 0 160.5 66.5t66.5 161.5v1081q0 25 16.5 41t40.5 16h113q25 0 41 -16t16 -41v-1081q0 -188 -134 -321.5t-320 -133.5h-228q-188 0 -321 133.5t-133 321.5zM356 1688 q-39 41 0 79l287 287q14 14 39 14q27 0 39 -14l287 -287q39 -39 0 -79l-80 -78q-39 -41 -80 0l-166 166l-166 -166q-16 -18 -39.5 -18.5t-40.5 18.5z" />
<glyph unicode="&#xdc;" d="M115 455v1081q0 25 16 41t39 16h115q23 0 40 -16t17 -41v-1081q0 -94 66.5 -161t160.5 -67h228q94 0 160.5 66.5t66.5 161.5v1081q0 25 16.5 41t40.5 16h113q25 0 41 -16t16 -41v-1081q0 -188 -134 -321.5t-320 -133.5h-228q-188 0 -321 133.5t-133 321.5zM342 1878v113 q0 25 16.5 41t38.5 16h115q25 0 41 -16.5t16 -40.5v-113q0 -25 -16 -41t-41 -16h-115q-23 0 -39 16t-16 41zM797 1878v113q0 25 16 41t41 16h113q25 0 41 -16.5t16 -40.5v-113q0 -25 -16.5 -41t-40.5 -16h-113q-25 0 -41 16t-16 41z" />
<glyph unicode="&#xdd;" d="M115 1231v305q0 25 16 41t39 16h115q23 0 40 -16t17 -41v-242l340 -340l342 340v242q0 25 16.5 41t40.5 16h113q25 0 41 -16t16 -41v-305q0 -25 -18 -43l-436 -434v-697q0 -25 -16.5 -41t-41.5 -16h-112q-25 0 -41.5 16.5t-16.5 40.5v697l-438 434q-16 20 -16 43z M588 1688q-39 41 0 79l260 263q41 39 80 0l80 -80q16 -16 16 -40t-16 -40l-263 -260q-16 -18 -38.5 -18.5t-38.5 18.5z" />
<glyph unicode="&#xde;" d="M115 57v1479q0 25 16 41t39 16h115q23 0 40 -16t17 -41v-170h455q188 0 321 -134t133 -322.5t-134 -321.5t-320 -133h-455v-398q0 -25 -17.5 -41t-39.5 -16h-115q-23 0 -39 16t-16 41zM342 682h455q94 0 160.5 66.5t66.5 161t-66.5 162t-160.5 67.5h-455v-457z" />
<glyph unicode="&#xdf;" d="M115 57v1082q0 188 133 321t321.5 133t321.5 -133t133 -321q0 -141 -78 -254q135 -49 220 -166t85 -264q0 -188 -134 -321.5t-320 -133.5h-228q-25 0 -41 16.5t-16 40.5v113q0 25 16.5 41t40.5 16h228q94 0 160.5 66.5t66.5 161t-66.5 161t-160.5 66.5h-228 q-25 0 -41 17.5t-16 39.5v115q0 23 16.5 39t40.5 16q94 0 161 67.5t67 162t-66.5 161t-161 66.5t-161 -66.5t-66.5 -160.5v-1082q0 -25 -17.5 -41t-39.5 -16h-115q-23 0 -39 16t-16 41z" />
<glyph unicode="&#xe0;" d="M115 342q0 141 99 240.5t241 99.5h569q0 94 -66.5 160.5t-160.5 66.5h-400q-23 0 -39 17.5t-16 40.5v114q0 23 16.5 40.5t38.5 17.5h400q188 0 321 -134.5t133 -322.5v-625q0 -25 -16 -41t-41 -16h-739q-141 0 -240.5 99.5t-99.5 242.5zM340 1455.5q0 23.5 16 39.5l80 80 q39 39 80 0l262 -262q16 -16 16.5 -40t-16.5 -40l-80 -80q-39 -39 -80 0l-262 262q-16 17 -16 40.5zM342 342q0 -47 33 -81t80 -34h569v228h-569q-47 0 -80 -33t-33 -80z" />
<glyph unicode="&#xe1;" d="M115 342q0 141 99 240.5t241 99.5h569q0 94 -66.5 160.5t-160.5 66.5h-400q-23 0 -39 17.5t-16 40.5v114q0 23 16.5 40.5t38.5 17.5h299q-18 4 -28 14l-80 80q-39 41 0 80l260 262q41 39 80 0l80 -80q16 -16 16 -39.5t-16 -40.5l-263 -262q-10 -10 -28 -14h80 q188 0 321 -134.5t133 -322.5v-625q0 -25 -16 -41t-41 -16h-739q-141 0 -240.5 99.5t-99.5 242.5zM342 342q0 -47 33 -81t80 -34h569v228h-569q-47 0 -80 -33t-33 -80z" />
<glyph unicode="&#xe2;" d="M115 342q0 141 99 240.5t241 99.5h569q0 94 -66.5 160.5t-160.5 66.5h-400q-23 0 -39 17.5t-16 40.5v114q0 23 16.5 40.5t38.5 17.5h400q188 0 321 -134.5t133 -322.5v-625q0 -25 -16 -41t-41 -16h-739q-141 0 -240.5 99.5t-99.5 242.5zM340 1272.5q0 23.5 16 40.5 l287 286q14 14 39 15q27 0 39 -15l287 -286q16 -16 16 -40t-16 -40l-80 -80q-39 -39 -80 0l-166 166l-166 -166q-41 -39 -80 0l-80 80q-16 16 -16 39.5zM342 342q0 -47 33 -81t80 -34h569v228h-569q-47 0 -80 -33t-33 -80z" />
<glyph unicode="&#xe3;" d="M115 342q0 141 99 240.5t241 99.5h569q0 94 -66.5 160.5t-160.5 66.5h-400q-23 0 -39 17.5t-16 40.5v114q0 23 16.5 40.5t38.5 17.5h193q-20 49 -21 112q0 47 -33.5 81t-80.5 34t-80 -34t-33 -81q0 -23 -17.5 -40t-39.5 -17h-115q-23 0 -39 17.5t-16 39.5q0 141 99 241.5 t240.5 100.5t242 -100t100.5 -242q0 -47 33.5 -79.5t78.5 -32.5q47 0 81 33.5t34 78.5q0 25 16.5 41.5t40.5 16.5h113q25 0 41 -16.5t16 -41.5q0 -158 -121 -262q121 -127 121 -307v-625q0 -25 -16 -41t-41 -16h-739q-141 0 -240.5 99.5t-99.5 242.5zM342 342q0 -47 33 -81 t80 -34h569v228h-569q-47 0 -80 -33t-33 -80z" />
<glyph unicode="&#xe4;" d="M115 342q0 141 99 240.5t241 99.5h569q0 94 -66.5 160.5t-160.5 66.5h-400q-23 0 -39 17.5t-16 40.5v114q0 23 16.5 40.5t38.5 17.5h400q188 0 321 -134.5t133 -322.5v-625q0 -25 -16 -41t-41 -16h-739q-141 0 -240.5 99.5t-99.5 242.5zM342 342q0 -47 33 -81t80 -34h569 v228h-569q-47 0 -80 -33t-33 -80zM342 1421v115q0 25 16.5 41t38.5 16h115q25 0 41 -16t16 -41v-115q0 -23 -16 -39t-41 -16h-115q-23 0 -39 16t-16 39zM797 1421v115q0 25 16 41t41 16h113q25 0 41 -16t16 -41v-115q0 -23 -16.5 -39t-40.5 -16h-113q-25 0 -41 16t-16 39z " />
<glyph unicode="&#xe5;" d="M115 342q0 141 99 240.5t241 99.5h569q0 94 -66.5 160.5t-160.5 66.5h-400q-23 0 -39 17.5t-16 40.5v114q0 33 23 45q-23 61 -23 125q0 141 99.5 241.5t240.5 100.5q143 0 242.5 -100t99.5 -242q0 -80 -37 -153q119 -55 191.5 -168t72.5 -248v-625q0 -25 -16 -41t-41 -16 h-739q-141 0 -240.5 99.5t-99.5 242.5zM342 342q0 -47 33 -81t80 -34h569v228h-569q-47 0 -80 -33t-33 -80zM569 1251q0 -47 33 -79.5t80 -32.5t81 32.5t34 79.5t-34 81t-81 34t-80 -34t-33 -81z" />
<glyph unicode="&#xe6;" d="M115 342q0 141 99 240.5t241 99.5h114v227h-172q-23 0 -39 17.5t-16 40.5v114q0 23 16.5 40.5t38.5 17.5h400q188 0 321 -134.5t133 -322.5v-170q0 -25 -16 -41t-41 -16h-397v-228h393q25 0 43 -16t18 -41v-113q0 -25 -16 -41t-41 -16h-739q-141 0 -240.5 99.5 t-99.5 242.5zM342 342q0 -47 33 -81t80 -34h114v228h-114q-47 0 -80 -33t-33 -80zM797 682h227q0 94 -66.5 160.5t-160.5 66.5v-227z" />
<glyph unicode="&#xe7;" d="M115 455v227q0 188 133 322.5t321 134.5h625q25 0 41 -17.5t16 -40.5v-114q0 -23 -16 -40.5t-41 -17.5h-625q-94 0 -160.5 -66.5t-66.5 -160.5v-227q0 -94 66.5 -161t160.5 -67h625q25 0 41 -16t16 -41v-113q0 -25 -16 -41t-41 -16h-350l-438 -438q-16 -18 -40 -18.5 t-40 18.5l-80 78q-39 41 0 79l282 283q-176 16 -294.5 146.5t-118.5 306.5z" />
<glyph unicode="&#xe8;" d="M115 455v227q0 188 133 322.5t321 134.5h228q188 0 321 -134.5t133 -322.5v-170q0 -25 -16 -41t-41 -16h-852q0 -94 66.5 -161t160.5 -67h625q25 0 41 -16t16 -41v-113q0 -25 -16 -41t-41 -16h-625q-188 0 -321 133.5t-133 321.5zM340 1455.5q0 23.5 16 39.5l80 80 q39 39 80 0l262 -262q16 -16 16.5 -40t-16.5 -40l-80 -80q-39 -39 -80 0l-262 262q-16 17 -16 40.5zM342 682h682q0 94 -66.5 160.5t-160.5 66.5h-228q-94 0 -160.5 -66.5t-66.5 -160.5z" />
<glyph unicode="&#xe9;" d="M115 455v227q0 188 133 322.5t321 134.5h127q-18 4 -28 14l-80 80q-39 41 0 80l260 262q41 39 80 0l80 -80q16 -16 16 -39.5t-16 -40.5l-263 -262q-10 -10 -28 -14h80q188 0 321 -134.5t133 -322.5v-170q0 -25 -16 -41t-41 -16h-852q0 -94 66.5 -161t160.5 -67h625 q25 0 41 -16t16 -41v-113q0 -25 -16 -41t-41 -16h-625q-188 0 -321 133.5t-133 321.5zM342 682h682q0 94 -66.5 160.5t-160.5 66.5h-228q-94 0 -160.5 -66.5t-66.5 -160.5z" />
<glyph unicode="&#xea;" d="M115 455v227q0 188 133 322.5t321 134.5h228q188 0 321 -134.5t133 -322.5v-170q0 -25 -16 -41t-41 -16h-852q0 -94 66.5 -161t160.5 -67h625q25 0 41 -16t16 -41v-113q0 -25 -16 -41t-41 -16h-625q-188 0 -321 133.5t-133 321.5zM340 1272.5q0 23.5 16 40.5l287 286 q14 14 39 15q27 0 39 -15l287 -286q16 -16 16 -40t-16 -40l-80 -80q-39 -39 -80 0l-166 166l-166 -166q-41 -39 -80 0l-80 80q-16 16 -16 39.5zM342 682h682q0 94 -66.5 160.5t-160.5 66.5h-228q-94 0 -160.5 -66.5t-66.5 -160.5z" />
<glyph unicode="&#xeb;" d="M115 455v227q0 188 133 322.5t321 134.5h228q188 0 321 -134.5t133 -322.5v-170q0 -25 -16 -41t-41 -16h-852q0 -94 66.5 -161t160.5 -67h625q25 0 41 -16t16 -41v-113q0 -25 -16 -41t-41 -16h-625q-188 0 -321 133.5t-133 321.5zM342 682h682q0 94 -66.5 160.5 t-160.5 66.5h-228q-94 0 -160.5 -66.5t-66.5 -160.5zM342 1421v115q0 25 16.5 41t38.5 16h115q25 0 41 -16t16 -41v-115q0 -23 -16 -39t-41 -16h-115q-23 0 -39 16t-16 39zM797 1421v115q0 25 16 41t41 16h113q25 0 41 -16t16 -41v-115q0 -23 -16.5 -39t-40.5 -16h-113 q-25 0 -41 16t-16 39z" />
<glyph unicode="&#xec;" d="M115 57v113q0 25 16 41t39 16h399v682h-172q-23 0 -39 17.5t-16 40.5v114q0 23 16.5 40.5t38.5 17.5h250q-18 4 -29 14l-262 262q-16 16 -16 40t16 40l80 80q39 39 80 0l262 -262q16 -16 16.5 -40t-16.5 -40l-80 -80q-10 -10 -28 -14h69q25 0 41.5 -17.5t16.5 -40.5v-854 h397q25 0 41 -16t16 -41v-113q0 -25 -16 -41t-41 -16h-1024q-23 0 -39 16t-16 41z" />
<glyph unicode="&#xed;" d="M115 57v113q0 25 16 41t39 16h399v682h-172q-23 0 -39 17.5t-16 40.5v114q0 23 16.5 40.5t38.5 17.5h299q-18 4 -28 14l-80 80q-39 41 0 80l260 262q41 39 80 0l80 -80q16 -16 16 -39.5t-16 -40.5l-263 -262q-10 -10 -28 -14h22q25 0 41.5 -17.5t16.5 -40.5v-854h397 q25 0 41 -16t16 -41v-113q0 -25 -16 -41t-41 -16h-1024q-23 0 -39 16t-16 41z" />
<glyph unicode="&#xee;" d="M115 57v113q0 25 16 41t39 16h399v682h-172q-23 0 -39 17.5t-16 40.5v114q0 23 16.5 40.5t38.5 17.5h68q-18 4 -29 14l-80 80q-16 16 -16 39.5t16 40.5l287 286q14 14 39 15q27 0 39 -15l287 -286q16 -16 16 -40t-16 -40l-80 -80q-39 -39 -80 0l-166 166l-166 -166 q-10 -10 -29 -14h252q25 0 41.5 -17.5t16.5 -40.5v-854h397q25 0 41 -16t16 -41v-113q0 -25 -16 -41t-41 -16h-1024q-23 0 -39 16t-16 41z" />
<glyph unicode="&#xef;" d="M115 57v113q0 25 16 41t39 16h399v682h-172q-23 0 -39 17.5t-16 40.5v114q0 23 16.5 40.5t38.5 17.5h342q25 0 41.5 -17.5t16.5 -40.5v-854h397q25 0 41 -16t16 -41v-113q0 -25 -16 -41t-41 -16h-1024q-23 0 -39 16t-16 41zM342 1421v115q0 25 16.5 41t38.5 16h115 q25 0 41 -16t16 -41v-115q0 -23 -16 -39t-41 -16h-115q-23 0 -39 16t-16 39zM797 1421v115q0 25 16 41t41 16h113q25 0 41 -16t16 -41v-115q0 -23 -16.5 -39t-40.5 -16h-113q-25 0 -41 16t-16 39z" />
<glyph unicode="&#xf0;" d="M115 454.5q0 188.5 133 321.5t321 133h95l-181 183l-164 -164q-41 -39 -79 0l-80 80q-16 16 -16.5 39.5t16.5 39.5l164 164l-164 164q-16 16 -16.5 40t16.5 40l80 80q39 39 79 0l166 -166l166 166q41 39 80 0l80 -80q16 -16 16 -39.5t-16 -40.5l-168 -166l471 -471 q137 -133 137 -323q0 -188 -134 -321.5t-320 -133.5h-228q-188 0 -321 133t-133 321.5zM342 454.5q0 -94.5 66.5 -161t160.5 -66.5h228q94 0 160.5 66.5t66.5 161t-66.5 161t-160.5 66.5h-228q-94 0 -160.5 -66.5t-66.5 -161z" />
<glyph unicode="&#xf1;" d="M115 57v1024q0 23 16 40.5t39 17.5h420q-20 49 -21 112q0 47 -33.5 81t-80.5 34t-80 -34t-33 -81q0 -23 -17.5 -40t-39.5 -17h-115q-23 0 -39 17.5t-16 39.5q0 141 99 241.5t240.5 100.5t242 -100t100.5 -242q0 -47 33.5 -79.5t78.5 -32.5q47 0 81 33.5t34 78.5 q0 25 16.5 41.5t40.5 16.5h113q25 0 41 -16.5t16 -41.5q0 -158 -121 -262q121 -127 121 -307v-625q0 -25 -16 -41t-41 -16h-113q-25 0 -41 16.5t-16 40.5v625q0 94 -66.5 160.5t-160.5 66.5h-455v-852q0 -25 -17.5 -41t-39.5 -16h-115q-23 0 -39 16t-16 41z" />
<glyph unicode="&#xf2;" d="M115 455v227q0 188 133 322.5t321 134.5h78q-18 4 -29 14l-262 262q-16 16 -16 40t16 40l80 80q39 39 80 0l262 -262q16 -16 16.5 -40t-16.5 -40l-80 -80q-10 -10 -28 -14h127q188 0 321 -134.5t133 -322.5v-227q0 -188 -134 -321.5t-320 -133.5h-228q-188 0 -321 133.5 t-133 321.5zM342 455q0 -94 66.5 -161t160.5 -67h228q94 0 160.5 66.5t66.5 161.5v227q0 94 -66.5 160.5t-160.5 66.5h-228q-94 0 -160.5 -66.5t-66.5 -160.5v-227z" />
<glyph unicode="&#xf3;" d="M115 455v227q0 188 133 322.5t321 134.5h127q-18 4 -28 14l-80 80q-39 41 0 80l260 262q41 39 80 0l80 -80q16 -16 16 -39.5t-16 -40.5l-263 -262q-10 -10 -28 -14h80q188 0 321 -134.5t133 -322.5v-227q0 -188 -134 -321.5t-320 -133.5h-228q-188 0 -321 133.5 t-133 321.5zM342 455q0 -94 66.5 -161t160.5 -67h228q94 0 160.5 66.5t66.5 161.5v227q0 94 -66.5 160.5t-160.5 66.5h-228q-94 0 -160.5 -66.5t-66.5 -160.5v-227z" />
<glyph unicode="&#xf4;" d="M115 455v227q0 188 133 322.5t321 134.5h228q188 0 321 -134.5t133 -322.5v-227q0 -188 -134 -321.5t-320 -133.5h-228q-188 0 -321 133.5t-133 321.5zM340 1272.5q0 23.5 16 40.5l287 286q14 14 39 15q27 0 39 -15l287 -286q16 -16 16 -40t-16 -40l-80 -80 q-39 -39 -80 0l-166 166l-166 -166q-41 -39 -80 0l-80 80q-16 16 -16 39.5zM342 455q0 -94 66.5 -161t160.5 -67h228q94 0 160.5 66.5t66.5 161.5v227q0 94 -66.5 160.5t-160.5 66.5h-228q-94 0 -160.5 -66.5t-66.5 -160.5v-227z" />
<glyph unicode="&#xf5;" d="M115 455v227q0 188 133 322.5t321 134.5h19q-18 53 -19 112q0 47 -33.5 81t-80.5 34t-80 -34t-33 -81q0 -23 -17.5 -40t-39.5 -17h-115q-23 0 -39 17.5t-16 39.5q0 141 99 241.5t240.5 100.5t242 -100t100.5 -242q0 -47 33.5 -79.5t78.5 -32.5q47 0 81 33.5t34 78.5 q0 25 16.5 41.5t40.5 16.5h113q25 0 41 -16.5t16 -41.5q0 -158 -121 -262q121 -127 121 -307v-227q0 -188 -134 -321.5t-320 -133.5h-228q-188 0 -321 133.5t-133 321.5zM342 455q0 -94 66.5 -161t160.5 -67h228q94 0 160.5 66.5t66.5 161.5v227q0 94 -66.5 160.5 t-160.5 66.5h-228q-94 0 -160.5 -66.5t-66.5 -160.5v-227z" />
<glyph unicode="&#xf6;" d="M115 455v227q0 188 133 322.5t321 134.5h228q188 0 321 -134.5t133 -322.5v-227q0 -188 -134 -321.5t-320 -133.5h-228q-188 0 -321 133.5t-133 321.5zM342 455q0 -94 66.5 -161t160.5 -67h228q94 0 160.5 66.5t66.5 161.5v227q0 94 -66.5 160.5t-160.5 66.5h-228 q-94 0 -160.5 -66.5t-66.5 -160.5v-227zM342 1421v115q0 25 16.5 41t38.5 16h115q25 0 41 -16t16 -41v-115q0 -23 -16 -39t-41 -16h-115q-23 0 -39 16t-16 39zM797 1421v115q0 25 16 41t41 16h113q25 0 41 -16t16 -41v-115q0 -23 -16.5 -39t-40.5 -16h-113q-25 0 -41 16 t-16 39z" />
<glyph unicode="&#xf7;" d="M115 739v115q0 23 16 39t39 16h1024q25 0 41 -16t16 -39v-115q0 -23 -16 -40t-41 -17h-1024q-23 0 -39 17t-16 40zM569 285v112q0 25 16.5 41.5t41.5 16.5h112q25 0 41.5 -16.5t16.5 -41.5v-112q0 -25 -16.5 -41.5t-41.5 -16.5h-112q-25 0 -41.5 16.5t-16.5 41.5z M569 1194v115q0 23 16.5 40t41.5 17h112q25 0 41.5 -17.5t16.5 -39.5v-115q0 -23 -16.5 -39t-41.5 -16h-112q-25 0 -41.5 16t-16.5 39z" />
<glyph unicode="&#xf8;" d="M115 455v227q0 188 133 322.5t321 134.5h228q188 0 321 -134.5t133 -322.5v-227q0 -188 -134 -321.5t-320 -133.5h-228q-188 0 -321 133.5t-133 321.5zM342 455q0 -35 8 -60l506 506q-25 8 -59 8h-228q-94 0 -160.5 -66.5t-66.5 -160.5v-227zM510 238q27 -10 59 -11h228 q94 0 160.5 66.5t66.5 161.5v227q0 35 -8 59z" />
<glyph unicode="&#xf9;" d="M115 455v626q0 23 16 40.5t39 17.5h115q23 0 40 -17.5t17 -40.5v-626q0 -94 66.5 -161t160.5 -67h455v854q0 23 16.5 40.5t40.5 17.5h113q25 0 41 -17.5t16 -40.5v-1024q0 -25 -16 -41t-41 -16h-625q-188 0 -321 133.5t-133 321.5zM340 1455.5q0 23.5 16 39.5l80 80 q39 39 80 0l262 -262q16 -16 16.5 -40t-16.5 -40l-80 -80q-39 -39 -80 0l-262 262q-16 17 -16 40.5z" />
<glyph unicode="&#xfa;" d="M115 455v626q0 23 16 40.5t39 17.5h115q23 0 40 -17.5t17 -40.5v-626q0 -94 66.5 -161t160.5 -67h455v854q0 23 16.5 40.5t40.5 17.5h113q25 0 41 -17.5t16 -40.5v-1024q0 -25 -16 -41t-41 -16h-625q-188 0 -321 133.5t-133 321.5zM588 1233q-39 41 0 80l260 262 q41 39 80 0l80 -80q16 -16 16 -39.5t-16 -40.5l-263 -262q-39 -39 -77 0z" />
<glyph unicode="&#xfb;" d="M115 455v626q0 23 16 40.5t39 17.5h115q23 0 40 -17.5t17 -40.5v-626q0 -94 66.5 -161t160.5 -67h455v854q0 23 16.5 40.5t40.5 17.5h113q25 0 41 -17.5t16 -40.5v-1024q0 -25 -16 -41t-41 -16h-625q-188 0 -321 133.5t-133 321.5zM340 1272.5q0 23.5 16 40.5l287 286 q14 14 39 15q27 0 39 -15l287 -286q16 -16 16 -40t-16 -40l-80 -80q-39 -39 -80 0l-166 166l-166 -166q-41 -39 -80 0l-80 80q-16 16 -16 39.5z" />
<glyph unicode="&#xfc;" d="M115 455v626q0 23 16 40.5t39 17.5h115q23 0 40 -17.5t17 -40.5v-626q0 -94 66.5 -161t160.5 -67h455v854q0 23 16.5 40.5t40.5 17.5h113q25 0 41 -17.5t16 -40.5v-1024q0 -25 -16 -41t-41 -16h-625q-188 0 -321 133.5t-133 321.5zM342 1421v115q0 25 16.5 41t38.5 16 h115q25 0 41 -16t16 -41v-115q0 -23 -16 -39t-41 -16h-115q-23 0 -39 16t-16 39zM797 1421v115q0 25 16 41t41 16h113q25 0 41 -16t16 -41v-115q0 -23 -16.5 -39t-40.5 -16h-113q-25 0 -41 16t-16 39z" />
<glyph unicode="&#xfd;" d="M115 -285q0 25 16 41.5t39 16.5h627q94 0 160.5 66.5t66.5 160.5h-455q-188 0 -321 133t-133 322v626q0 23 16 40.5t39 17.5h115q23 0 40 -17.5t17 -40.5v-626q0 -94 66.5 -161t160.5 -67h455v854q8 57 57 58h113q25 0 41 -17.5t16 -40.5v-1081q0 -188 -134 -321.5 t-320 -133.5h-627q-23 0 -39 16.5t-16 41.5v112zM588 1233q-39 41 0 80l260 262q41 39 80 0l80 -80q16 -16 16 -39.5t-16 -40.5l-263 -262q-39 -39 -77 0z" />
<glyph unicode="&#xfe;" d="M115 -397v1933q0 25 16 41t39 16h115q23 0 40 -16t17 -41v-397h455q188 0 321 -134.5t133 -322.5v-227q0 -188 -134 -321.5t-320 -133.5h-455v-397q0 -25 -17.5 -41.5t-39.5 -16.5h-115q-23 0 -39 16.5t-16 41.5zM342 227h455q94 0 160.5 66.5t66.5 161.5v227 q0 94 -66.5 160.5t-160.5 66.5h-455v-682z" />
<glyph unicode="&#xff;" d="M115 -285q0 25 16 41.5t39 16.5h627q94 0 160.5 66.5t66.5 160.5h-455q-188 0 -321 133t-133 322v626q0 23 16 40.5t39 17.5h115q23 0 40 -17.5t17 -40.5v-626q0 -94 66.5 -161t160.5 -67h455v854q8 57 57 58h113q25 0 41 -17.5t16 -40.5v-1081q0 -188 -134 -321.5 t-320 -133.5h-627q-23 0 -39 16.5t-16 41.5v112zM342 1421v115q0 25 16.5 41t38.5 16h115q25 0 41 -16t16 -41v-115q0 -23 -16 -39t-41 -16h-115q-23 0 -39 16t-16 39zM797 1421v115q0 25 16 41t41 16h113q25 0 41 -16t16 -41v-115q0 -23 -16.5 -39t-40.5 -16h-113 q-25 0 -41 16t-16 39z" />
<glyph unicode="&#x152;" d="M115 455v684q0 188 133 321t321 133h625q25 0 41 -16t16 -41v-115q0 -23 -16 -39t-41 -16h-397v-457h170q25 0 41 -16t16 -39v-115q0 -23 -16.5 -40t-40.5 -17h-170v-455h397q25 0 41 -16t16 -41v-113q0 -25 -16 -41t-41 -16h-625q-188 0 -321 133.5t-133 321.5zM342 455 q0 -94 66.5 -161t160.5 -67v1139q-94 0 -160.5 -66.5t-66.5 -160.5v-684z" />
<glyph unicode="&#x153;" d="M115 455v227q0 188 133 322.5t321 134.5h228q188 0 321 -134.5t133 -322.5v-170q0 -25 -16 -41t-41 -16h-397v-228h397q25 0 41 -16t16 -41v-113q0 -25 -16 -41t-41 -16h-625q-188 0 -321 133.5t-133 321.5zM342 455q0 -94 66.5 -161t160.5 -67v682q-94 0 -160.5 -66.5 t-66.5 -160.5v-227zM797 682h227q0 94 -66.5 160.5t-160.5 66.5v-227z" />
<glyph unicode="&#x178;" d="M115 1231v305q0 25 16 41t39 16h115q23 0 40 -16t17 -41v-242l340 -340l342 340v242q0 25 16.5 41t40.5 16h113q25 0 41 -16t16 -41v-305q0 -25 -18 -43l-436 -434v-697q0 -25 -16.5 -41t-41.5 -16h-112q-25 0 -41.5 16.5t-16.5 40.5v697l-438 434q-16 20 -16 43z M342 1878v113q0 25 16.5 41t38.5 16h115q25 0 41 -16.5t16 -40.5v-113q0 -25 -16 -41t-41 -16h-115q-23 0 -39 16t-16 41zM797 1878v113q0 25 16 41t41 16h113q25 0 41 -16.5t16 -40.5v-113q0 -25 -16.5 -41t-40.5 -16h-113q-25 0 -41 16t-16 41z" />
<glyph unicode="&#x2c6;" d="M340 1272.5q0 23.5 16 40.5l287 286q14 14 39 15q27 0 39 -15l287 -286q16 -16 16 -40t-16 -40l-80 -80q-39 -39 -80 0l-166 166l-166 -166q-41 -39 -80 0l-80 80q-16 16 -16 39.5z" />
<glyph unicode="&#x2dc;" d="M115 1251q0 141 99 241.5t240.5 100.5t242 -100t100.5 -242q0 -47 33.5 -79.5t78.5 -32.5q47 0 81 33.5t34 78.5q0 25 16.5 41.5t40.5 16.5h113q25 0 41 -16.5t16 -41.5q0 -141 -99 -241.5t-243 -100.5q-141 0 -240.5 100.5t-99.5 241.5q0 47 -33.5 81t-80.5 34t-80 -34 t-33 -81q0 -23 -17.5 -40t-39.5 -17h-115q-23 0 -39 17t-16 40z" />
<glyph unicode="&#x2000;" horiz-adv-x="1034" />
<glyph unicode="&#x2001;" horiz-adv-x="2068" />
<glyph unicode="&#x2002;" horiz-adv-x="1034" />
<glyph unicode="&#x2003;" horiz-adv-x="2068" />
<glyph unicode="&#x2004;" horiz-adv-x="689" />
<glyph unicode="&#x2005;" horiz-adv-x="517" />
<glyph unicode="&#x2006;" horiz-adv-x="344" />
<glyph unicode="&#x2007;" horiz-adv-x="344" />
<glyph unicode="&#x2008;" horiz-adv-x="258" />
<glyph unicode="&#x2009;" horiz-adv-x="413" />
<glyph unicode="&#x200a;" horiz-adv-x="114" />
<glyph unicode="&#x2010;" d="M115 512v115q0 23 16 39t39 16h1024q25 0 41 -16.5t16 -38.5v-115q0 -25 -16 -41t-41 -16h-1024q-23 0 -39 16t-16 41z" />
<glyph unicode="&#x2011;" d="M115 512v115q0 23 16 39t39 16h1024q25 0 41 -16.5t16 -38.5v-115q0 -25 -16 -41t-41 -16h-1024q-23 0 -39 16t-16 41z" />
<glyph unicode="&#x2012;" d="M115 512v115q0 23 16 39t39 16h1024q25 0 41 -16.5t16 -38.5v-115q0 -25 -16 -41t-41 -16h-1024q-23 0 -39 16t-16 41z" />
<glyph unicode="&#x2013;" d="M115 512v115q0 23 16 39t39 16h1024q25 0 41 -16.5t16 -38.5v-115q0 -25 -16 -41t-41 -16h-1024q-23 0 -39 16t-16 41z" />
<glyph unicode="&#x2014;" d="M115 512v115q0 23 16 39t39 16h1024q25 0 41 -16.5t16 -38.5v-115q0 -25 -16 -41t-41 -16h-1024q-23 0 -39 16t-16 41z" />
<glyph unicode="&#x2018;" d="M569 739v512q0 141 99.5 241.5t240.5 100.5h58q25 0 41 -16t16 -41v-115q0 -23 -16.5 -39t-40.5 -16h-58q-45 0 -78.5 -34t-33.5 -81v-112h170q25 0 41 -17.5t16 -40.5v-342q0 -23 -16.5 -40t-40.5 -17h-340q-25 0 -41.5 17t-16.5 40z" />
<glyph unicode="&#x2019;" d="M342 739v115q0 23 16.5 39t38.5 16h58q45 0 79.5 35t34.5 80v115h-172q-23 0 -39 16t-16 39v342q0 25 16.5 41t38.5 16h342q25 0 41.5 -16t16.5 -41v-512q0 -141 -100.5 -241.5t-241.5 -100.5h-58q-23 0 -39 17t-16 40z" />
<glyph unicode="&#x201a;" d="M342 57v340q0 25 16.5 41.5t38.5 16.5h342q25 0 41.5 -16.5t16.5 -41.5v-512q0 -141 -100.5 -240.5t-241.5 -99.5h-58q-23 0 -39 16.5t-16 41.5v112q0 25 16.5 41.5t38.5 16.5h58q47 0 80.5 33.5t33.5 78.5v115h-172q-23 0 -39 16t-16 41z" />
<glyph unicode="&#x201c;" d="M115 739v512q0 141 99 241.5t241 100.5h57q25 0 41 -16t16 -41v-115q0 -23 -16 -39t-41 -16h-57q-45 0 -79 -34t-34 -81v-112h170q25 0 41 -17.5t16 -40.5v-342q0 -23 -16 -40t-41 -17h-342q-23 0 -39 17t-16 40zM797 739v512q0 141 99 241.5t243 100.5h55q25 0 41 -16 t16 -41v-115q0 -23 -16 -39t-41 -16h-55q-45 0 -80 -34t-35 -81v-112h170q25 0 41 -17.5t16 -40.5v-342q0 -23 -16 -40t-41 -17h-340q-25 0 -41 17t-16 40z" />
<glyph unicode="&#x201d;" d="M115 739v115q0 23 16 39t39 16h57q47 0 81 35t34 80v115h-172q-23 0 -39 16t-16 39v342q0 25 16 41t39 16h342q25 0 41 -16t16 -41v-512q0 -141 -100 -241.5t-242 -100.5h-57q-23 0 -39 17t-16 40zM797 739v115q0 23 16 39t41 16h55q45 0 80 35t35 80v115h-170 q-25 0 -41 16t-16 39v342q0 25 16 41t41 16h340q25 0 41 -16t16 -41v-512q0 -141 -99 -241.5t-243 -100.5h-55q-25 0 -41 17t-16 40z" />
<glyph unicode="&#x201e;" d="M115 57v340q0 25 16 41.5t39 16.5h342q25 0 41 -16.5t16 -41.5v-512q0 -141 -100 -240.5t-242 -99.5h-57q-23 0 -39 16.5t-16 41.5v112q0 25 16 41.5t39 16.5h57q47 0 81 33.5t34 78.5v115h-172q-23 0 -39 16t-16 41zM797 57v340q0 25 16 41.5t41 16.5h340q25 0 41 -16.5 t16 -41.5v-512q0 -141 -99 -240.5t-243 -99.5h-55q-25 0 -41 16.5t-16 41.5v112q0 25 16 41.5t41 16.5h55q47 0 81 33.5t34 78.5v115h-170q-25 0 -41 16t-16 41z" />
<glyph unicode="&#x2022;" d="M569 739v342q0 23 16.5 40.5t41.5 17.5h340q25 0 41 -17.5t16 -40.5v-342q0 -23 -16.5 -40t-40.5 -17h-340q-25 0 -41.5 17t-16.5 40z" />
<glyph unicode="&#x2026;" d="M115 57v340q0 25 16 41.5t39 16.5h115q23 0 40 -16.5t17 -41.5v-340q0 -25 -17.5 -41t-39.5 -16h-115q-23 0 -39 16t-16 41zM569 57v340q0 25 16.5 41.5t41.5 16.5h112q25 0 41.5 -16.5t16.5 -41.5v-340q0 -25 -16.5 -41t-41.5 -16h-112q-25 0 -41.5 16t-16.5 41z M1024 57v340q0 25 16.5 41.5t40.5 16.5h113q25 0 41 -16.5t16 -41.5v-340q0 -25 -16 -41t-41 -16h-113q-25 0 -41 16t-16 41z" />
<glyph unicode="&#x202f;" horiz-adv-x="413" />
<glyph unicode="&#x2039;" d="M322 797q0 23 12 39l743 741q39 39 78 0l80 -80q39 -39 0 -80l-621 -620l621 -621q39 -41 0 -80l-80 -80q-39 -39 -78 0l-743 742q-12 12 -12 39z" />
<glyph unicode="&#x203a;" d="M340 1457.5q0 23.5 16 39.5l80 80q16 16 40 16t40 -16l741 -741q14 -14 15 -39q0 -27 -15 -39l-741 -742q-16 -16 -39.5 -16t-40.5 16l-80 80q-39 39 0 80l623 621l-623 620q-16 17 -16 40.5z" />
<glyph unicode="&#x205f;" horiz-adv-x="517" />
<glyph unicode="&#x20ac;" d="M115 512v115q0 23 16 39t39 16h172v227h-172q-23 0 -39 17.5t-16 40.5v114q0 23 16 40.5t39 17.5h172q0 188 134 321t321 133h397q25 0 41 -16t16 -41v-115q0 -23 -16 -39t-41 -16h-397q-94 0 -161 -66.5t-67 -160.5h398q25 0 41 -17.5t16 -40.5v-114q0 -23 -16.5 -40.5 t-40.5 -17.5h-398v-227h170q25 0 41.5 -16.5t16.5 -38.5v-115q0 -25 -16.5 -41t-41.5 -16h-170q0 -94 66.5 -161t161.5 -67h397q25 0 41 -16t16 -41v-113q0 -25 -16 -41t-41 -16h-397q-186 0 -320.5 133t-134.5 322h-172q-23 0 -39 16t-16 41z" />
<glyph unicode="&#x2122;" d="M115 57v797q0 23 16 39t39 16h115q23 0 40 -16t17 -39v-12l340 -342l342 342v10q0 25 16.5 41t40.5 16h113q25 0 41 -16t16 -39v-797q0 -25 -16 -41t-41 -16h-113q-25 0 -41 16.5t-16 40.5v467l-227 -229v-238q0 -25 -16.5 -41t-41.5 -16h-112q-25 0 -41.5 16.5 t-16.5 40.5v238l-227 229v-467q0 -25 -17.5 -41t-39.5 -16h-115q-23 0 -39 16t-16 41zM115 1421v115q0 25 16 41t39 16h1024q25 0 41 -16t16 -41v-115q0 -23 -16 -39t-41 -16h-397v-627q0 -23 -16.5 -40t-41.5 -17h-112q-25 0 -41.5 17.5t-16.5 39.5v627h-399q-23 0 -39 16 t-16 39z" />
<glyph unicode="&#xe000;" horiz-adv-x="1140" d="M0 0v1140h1140v-1140h-1140z" />
<glyph unicode="&#xfb01;" d="M115 57v1082q0 188 133 321t321 133h398q25 0 41 -16t16 -41v-115q0 -23 -16.5 -39t-40.5 -16h-398q-94 0 -160.5 -66.5t-66.5 -160.5h625q25 0 41 -17.5t16 -40.5v-854h170q25 0 41 -16t16 -41v-113q0 -25 -16 -41t-41 -16h-567q-25 0 -41.5 16.5t-16.5 40.5v113 q0 25 16.5 41t41.5 16h170v682h-455v-852q0 -25 -17.5 -41t-39.5 -16h-115q-23 0 -39 16t-16 41z" />
<glyph unicode="&#xfb02;" d="M111 57v1082q0 188 134 321t322 133h400q25 0 41 -16t16 -41v-1309h170q25 0 41 -16t16 -41v-113q0 -25 -16 -41t-41 -16h-567q-25 0 -41.5 16.5t-16.5 40.5v113q0 25 16.5 41t41.5 16h170v1139h-230q-94 0 -160.5 -66.5t-66.5 -160.5h170q23 0 40 -17.5t17 -40.5v-114 q0 -23 -17.5 -40.5t-39.5 -17.5h-170v-852q0 -25 -17.5 -41t-39.5 -16h-115q-23 0 -40 16t-17 41z" />
<glyph unicode="&#xfb03;" horiz-adv-x="4098" d="M115 967v114q0 23 16 40.5t39 17.5h399q0 188 133.5 321t321.5 133h170q25 0 41 -16t16 -41v-115q0 -23 -16 -39t-41 -16h-170q-94 0 -160.5 -66.5t-66.5 -160.5h397q25 0 41 -17.5t16 -40.5v-114q0 -23 -16 -40.5t-41 -17.5h-397v-852q0 -25 -16.5 -41t-41.5 -16h-112 q-25 0 -41.5 16.5t-16.5 40.5v852h-399q-23 0 -39 17.5t-16 40.5zM1481 967v114q0 23 16 40.5t39 17.5h399q0 188 133.5 321t321.5 133h170q25 0 41 -16t16 -41v-115q0 -23 -16 -39t-41 -16h-170q-94 0 -160.5 -66.5t-66.5 -160.5h397q25 0 41 -17.5t16 -40.5v-114 q0 -23 -16 -40.5t-41 -17.5h-397v-852q0 -25 -16.5 -41t-41.5 -16h-112q-25 0 -41.5 16.5t-16.5 40.5v852h-399q-23 0 -39 17.5t-16 40.5zM2847 57v113q0 25 16 41t39 16h399v682h-172q-23 0 -39 17.5t-16 40.5v114q0 23 16.5 40.5t38.5 17.5h342q25 0 41.5 -17.5 t16.5 -40.5v-854h397q25 0 41 -16t16 -41v-113q0 -25 -16 -41t-41 -16h-1024q-23 0 -39 16t-16 41zM3301 1421v115q0 25 16.5 41t41.5 16h112q25 0 41.5 -16t16.5 -41v-115q0 -23 -16.5 -39t-41.5 -16h-112q-25 0 -41.5 16t-16.5 39z" />
<glyph unicode="&#xfb04;" horiz-adv-x="4098" d="M115 967v114q0 23 16 40.5t39 17.5h399q0 188 133.5 321t321.5 133h170q25 0 41 -16t16 -41v-115q0 -23 -16 -39t-41 -16h-170q-94 0 -160.5 -66.5t-66.5 -160.5h397q25 0 41 -17.5t16 -40.5v-114q0 -23 -16 -40.5t-41 -17.5h-397v-852q0 -25 -16.5 -41t-41.5 -16h-112 q-25 0 -41.5 16.5t-16.5 40.5v852h-399q-23 0 -39 17.5t-16 40.5zM1481 967v114q0 23 16 40.5t39 17.5h399q0 188 133.5 321t321.5 133h170q25 0 41 -16t16 -41v-115q0 -23 -16 -39t-41 -16h-170q-94 0 -160.5 -66.5t-66.5 -160.5h397q25 0 41 -17.5t16 -40.5v-114 q0 -23 -16 -40.5t-41 -17.5h-397v-852q0 -25 -16.5 -41t-41.5 -16h-112q-25 0 -41.5 16.5t-16.5 40.5v852h-399q-23 0 -39 17.5t-16 40.5zM2847 57v113q0 25 16 41t39 16h399v1139h-172q-23 0 -39 16.5t-16 38.5v115q0 25 16.5 41t38.5 16h342q25 0 41.5 -16t16.5 -41v-1309 h397q25 0 41 -16t16 -41v-113q0 -25 -16 -41t-41 -16h-1024q-23 0 -39 16t-16 41z" />
</font>
</defs>
</svg>
